Hoogli-Medium_b007.ufo
<glyph name="exclam" format="1">
  <advance width="317"/>
  <unicode hex="0021"/>
  <outline>
    <contour>
      <point x="157" y="237" type="curve" smooth="yes"/>
      <point x="172" y="236"/>
      <point x="188" y="249"/>
      <point x="188" y="264" type="curve" smooth="yes"/>
      <point x="195" y="550" type="line" smooth="yes"/>
      <point x="196" y="565"/>
      <point x="180" y="578"/>
      <point x="164" y="579" type="curve" smooth="yes"/>
      <point x="149" y="579"/>
      <point x="133" y="566"/>
      <point x="133" y="551" type="curve" smooth="yes"/>
      <point x="126" y="265" type="line" smooth="yes"/>
      <point x="125" y="251"/>
      <point x="141" y="237"/>
    </contour>
    <contour>
      <point x="158" y="-17" type="curve" smooth="yes"/>
      <point x="188" y="-17"/>
      <point x="210" y="-2"/>
      <point x="210" y="41" type="curve" smooth="yes"/>
      <point x="210" y="77"/>
      <point x="186" y="100"/>
      <point x="157" y="100" type="curve" smooth="yes"/>
      <point x="126" y="100"/>
      <point x="105" y="77"/>
      <point x="105" y="41" type="curve" smooth="yes"/>
      <point x="105" y="-1"/>
      <point x="134" y="-17"/>
    </contour>
  </outline>
</glyph>
<glyph name="quotedbl" format="1">
  <advance width="398"/>
  <unicode hex="0022"/>
  <outline>
    <contour>
      <point x="251" y="359" type="curve" smooth="yes"/>
      <point x="266" y="355"/>
      <point x="284" y="364"/>
      <point x="287" y="380" type="curve" smooth="yes"/>
      <point x="329" y="559" type="line" smooth="yes"/>
      <point x="333" y="574"/>
      <point x="321" y="590"/>
      <point x="305" y="593" type="curve" smooth="yes"/>
      <point x="290" y="597"/>
      <point x="272" y="587"/>
      <point x="269" y="573" type="curve" smooth="yes"/>
      <point x="227" y="392" type="line" smooth="yes"/>
      <point x="223" y="378"/>
      <point x="235" y="362"/>
    </contour>
    <contour>
      <point x="84" y="359" type="curve" smooth="yes"/>
      <point x="99" y="355"/>
      <point x="117" y="364"/>
      <point x="120" y="380" type="curve" smooth="yes"/>
      <point x="162" y="559" type="line" smooth="yes"/>
      <point x="166" y="574"/>
      <point x="154" y="590"/>
      <point x="138" y="593" type="curve" smooth="yes"/>
      <point x="123" y="597"/>
      <point x="105" y="587"/>
      <point x="102" y="573" type="curve" smooth="yes"/>
      <point x="60" y="392" type="line" smooth="yes"/>
      <point x="56" y="378"/>
      <point x="68" y="362"/>
    </contour>
  </outline>
</glyph>
<glyph name="dollar" format="1">
  <advance width="577"/>
  <unicode hex="0024"/>
  <outline>
    <contour>
      <point x="289" y="-20" type="curve" smooth="yes"/>
      <point x="459" y="-20"/>
      <point x="518" y="58"/>
      <point x="518" y="134" type="curve" smooth="yes"/>
      <point x="518" y="209"/>
      <point x="471" y="275"/>
      <point x="294" y="308" type="curve" smooth="yes"/>
      <point x="167" y="329"/>
      <point x="132" y="371"/>
      <point x="132" y="414" type="curve" smooth="yes"/>
      <point x="132" y="459"/>
      <point x="189" y="494"/>
      <point x="265" y="494" type="curve" smooth="yes"/>
      <point x="343" y="494"/>
      <point x="382" y="482"/>
      <point x="436" y="464" type="curve" smooth="yes"/>
      <point x="451" y="459"/>
      <point x="468" y="467"/>
      <point x="474" y="481" type="curve" smooth="yes"/>
      <point x="478" y="496"/>
      <point x="471" y="512"/>
      <point x="456" y="517" type="curve" smooth="yes"/>
      <point x="396" y="538"/>
      <point x="352" y="550"/>
      <point x="265" y="550" type="curve" smooth="yes"/>
      <point x="134" y="550"/>
      <point x="70" y="480"/>
      <point x="70" y="414" type="curve" smooth="yes"/>
      <point x="70" y="356"/>
      <point x="91" y="283"/>
      <point x="285" y="252" type="curve" smooth="yes"/>
      <point x="403" y="230"/>
      <point x="456" y="191"/>
      <point x="456" y="134" type="curve" smooth="yes"/>
      <point x="456" y="79"/>
      <point x="395" y="37"/>
      <point x="289" y="37" type="curve" smooth="yes"/>
      <point x="221" y="37"/>
      <point x="158" y="50"/>
      <point x="99" y="78" type="curve" smooth="yes"/>
      <point x="85" y="85"/>
      <point x="67" y="79"/>
      <point x="60" y="65" type="curve" smooth="yes"/>
      <point x="52" y="52"/>
      <point x="58" y="34"/>
      <point x="73" y="27" type="curve" smooth="yes"/>
      <point x="140" y="-5"/>
      <point x="212" y="-20"/>
    </contour>
    <contour>
      <point x="285" y="-120" type="curve" smooth="yes"/>
      <point x="301" y="-120"/>
      <point x="316" y="-107"/>
      <point x="316" y="-92" type="curve" smooth="yes"/>
      <point x="316" y="616" type="line" smooth="yes"/>
      <point x="316" y="631"/>
      <point x="301" y="644"/>
      <point x="285" y="644" type="curve" smooth="yes"/>
      <point x="269" y="644"/>
      <point x="254" y="631"/>
      <point x="254" y="616" type="curve" smooth="yes"/>
      <point x="254" y="-92" type="line" smooth="yes"/>
      <point x="254" y="-107"/>
      <point x="269" y="-120"/>
    </contour>
  </outline>
</glyph>
<glyph name="percent" format="1">
  <advance width="829"/>
  <unicode hex="0025"/>
  <outline>
    <contour>
      <point x="252" y="-6" type="curve" smooth="yes"/>
      <point x="266" y="-15"/>
      <point x="285" y="-10"/>
      <point x="293" y="3" type="curve" smooth="yes"/>
      <point x="591" y="501" type="line" smooth="yes"/>
      <point x="599" y="513"/>
      <point x="593" y="532"/>
      <point x="580" y="539" type="curve" smooth="yes"/>
      <point x="566" y="547"/>
      <point x="547" y="543"/>
      <point x="539" y="530" type="curve" smooth="yes"/>
      <point x="241" y="32" type="line" smooth="yes"/>
      <point x="233" y="20"/>
      <point x="239" y="1"/>
    </contour>
    <contour>
      <point x="200" y="215" type="curve" smooth="yes"/>
      <point x="288" y="215"/>
      <point x="345" y="286"/>
      <point x="345" y="383" type="curve" smooth="yes"/>
      <point x="345" y="486"/>
      <point x="276" y="551"/>
      <point x="200" y="551" type="curve" smooth="yes"/>
      <point x="120" y="551"/>
      <point x="55" y="486"/>
      <point x="55" y="382" type="curve" smooth="yes"/>
      <point x="55" y="286"/>
      <point x="121" y="215"/>
    </contour>
    <contour>
      <point x="200" y="272" type="curve" smooth="yes"/>
      <point x="147" y="272"/>
      <point x="117" y="328"/>
      <point x="117" y="382" type="curve" smooth="yes"/>
      <point x="117" y="442"/>
      <point x="146" y="494"/>
      <point x="200" y="494" type="curve" smooth="yes"/>
      <point x="250" y="494"/>
      <point x="283" y="442"/>
      <point x="283" y="383" type="curve" smooth="yes"/>
      <point x="283" y="328"/>
      <point x="258" y="272"/>
    </contour>
    <contour>
      <point x="630" y="-22" type="curve" smooth="yes"/>
      <point x="717" y="-22"/>
      <point x="774" y="51"/>
      <point x="774" y="147" type="curve" smooth="yes"/>
      <point x="774" y="250"/>
      <point x="706" y="315"/>
      <point x="630" y="315" type="curve" smooth="yes"/>
      <point x="548" y="315"/>
      <point x="484" y="250"/>
      <point x="484" y="146" type="curve" smooth="yes"/>
      <point x="484" y="52"/>
      <point x="549" y="-22"/>
    </contour>
    <contour>
      <point x="630" y="35" type="curve" smooth="yes"/>
      <point x="577" y="35"/>
      <point x="546" y="91"/>
      <point x="546" y="146" type="curve" smooth="yes"/>
      <point x="546" y="205"/>
      <point x="576" y="258"/>
      <point x="630" y="258" type="curve" smooth="yes"/>
      <point x="680" y="258"/>
      <point x="712" y="205"/>
      <point x="712" y="147" type="curve" smooth="yes"/>
      <point x="712" y="92"/>
      <point x="687" y="35"/>
    </contour>
  </outline>
</glyph>
<glyph name="quotesingle" format="1">
  <advance width="231"/>
  <unicode hex="0027"/>
  <outline>
    <contour>
      <point x="84" y="359" type="curve" smooth="yes"/>
      <point x="99" y="355"/>
      <point x="117" y="364"/>
      <point x="120" y="380" type="curve" smooth="yes"/>
      <point x="162" y="559" type="line" smooth="yes"/>
      <point x="166" y="574"/>
      <point x="154" y="590"/>
      <point x="138" y="593" type="curve" smooth="yes"/>
      <point x="123" y="597"/>
      <point x="105" y="587"/>
      <point x="102" y="573" type="curve" smooth="yes"/>
      <point x="60" y="392" type="line" smooth="yes"/>
      <point x="56" y="378"/>
      <point x="68" y="362"/>
    </contour>
  </outline>
</glyph>
<glyph name="parenleft" format="1">
  <advance width="326"/>
  <unicode hex="0028"/>
  <outline>
    <contour>
      <point x="235" y="-104" type="curve" smooth="yes"/>
      <point x="246" y="-103"/>
      <point x="255" y="-93"/>
      <point x="253" y="-81" type="curve" smooth="yes"/>
      <point x="229" y="-48"/>
      <point x="209" y="2"/>
      <point x="204" y="52" type="curve" smooth="yes"/>
      <point x="156" y="149"/>
      <point x="141" y="269"/>
      <point x="169" y="380" type="curve" smooth="yes"/>
      <point x="175" y="469"/>
      <point x="213" y="559"/>
      <point x="253" y="617" type="curve" smooth="yes"/>
      <point x="250" y="628"/>
      <point x="238" y="635"/>
      <point x="227" y="633" type="curve" smooth="yes"/>
      <point x="189" y="603"/>
      <point x="153" y="550"/>
      <point x="148" y="489" type="curve" smooth="yes"/>
      <point x="98" y="379"/>
      <point x="84" y="244"/>
      <point x="120" y="121" type="curve" smooth="yes"/>
      <point x="126" y="26"/>
      <point x="175" y="-55"/>
    </contour>
  </outline>
</glyph>
<glyph name="parenright" format="1">
  <advance width="326"/>
  <unicode hex="0029"/>
  <outline>
    <contour>
      <point x="73" y="-104" type="curve" smooth="yes"/>
      <point x="85" y="-115"/>
      <point x="104" y="-115"/>
      <point x="115" y="-104" type="curve" smooth="yes"/>
      <point x="203" y="-15"/>
      <point x="268" y="117"/>
      <point x="268" y="260" type="curve" smooth="yes"/>
      <point x="268" y="405"/>
      <point x="199" y="542"/>
      <point x="116" y="632" type="curve" smooth="yes"/>
      <point x="105" y="643"/>
      <point x="86" y="644"/>
      <point x="74" y="634" type="curve" smooth="yes"/>
      <point x="63" y="624"/>
      <point x="61" y="605"/>
      <point x="72" y="594" type="curve" smooth="yes"/>
      <point x="146" y="513"/>
      <point x="206" y="389"/>
      <point x="206" y="260" type="curve" smooth="yes"/>
      <point x="206" y="132"/>
      <point x="150" y="15"/>
      <point x="73" y="-64" type="curve" smooth="yes"/>
      <point x="61" y="-75"/>
      <point x="62" y="-94"/>
    </contour>
  </outline>
</glyph>
<glyph name="asterisk" format="1">
  <advance width="427"/>
  <unicode hex="002A"/>
  <outline>
    <contour>
      <point x="351" y="455" type="line" smooth="yes"/>
      <point x="364" y="462"/>
      <point x="369" y="480"/>
      <point x="361" y="493" type="curve" smooth="yes"/>
      <point x="353" y="506"/>
      <point x="335" y="511"/>
      <point x="321" y="503" type="curve" smooth="yes"/>
      <point x="76" y="363" type="line" smooth="yes"/>
      <point x="59" y="352"/>
      <point x="55" y="342"/>
      <point x="66" y="325" type="curve" smooth="yes"/>
      <point x="74" y="312"/>
      <point x="92" y="307"/>
      <point x="106" y="315" type="curve" smooth="yes"/>
    </contour>
    <contour>
      <point x="321" y="315" type="line" smooth="yes"/>
      <point x="335" y="307"/>
      <point x="353" y="312"/>
      <point x="361" y="325" type="curve" smooth="yes"/>
      <point x="369" y="338"/>
      <point x="364" y="355"/>
      <point x="351" y="363" type="curve" smooth="yes"/>
      <point x="106" y="503" type="line" smooth="yes"/>
      <point x="92" y="511"/>
      <point x="74" y="506"/>
      <point x="66" y="493" type="curve" smooth="yes"/>
      <point x="58" y="480"/>
      <point x="63" y="462"/>
      <point x="76" y="455" type="curve" smooth="yes"/>
    </contour>
    <contour>
      <point x="213" y="257" type="curve" smooth="yes"/>
      <point x="229" y="257"/>
      <point x="242" y="269"/>
      <point x="242" y="284" type="curve" smooth="yes"/>
      <point x="242" y="539" type="line" smooth="yes"/>
      <point x="242" y="554"/>
      <point x="229" y="566"/>
      <point x="213" y="566" type="curve" smooth="yes"/>
      <point x="197" y="566"/>
      <point x="184" y="554"/>
      <point x="184" y="539" type="curve" smooth="yes"/>
      <point x="184" y="284" type="line" smooth="yes"/>
      <point x="184" y="269"/>
      <point x="197" y="257"/>
    </contour>
  </outline>
</glyph>
<glyph name="plus" format="1">
  <advance width="531"/>
  <unicode hex="002B"/>
  <outline>
    <contour>
      <point x="442" y="237" type="line" smooth="yes"/>
      <point x="458" y="237"/>
      <point x="471" y="250"/>
      <point x="471" y="265" type="curve" smooth="yes"/>
      <point x="471" y="280"/>
      <point x="458" y="293"/>
      <point x="442" y="293" type="curve" smooth="yes"/>
      <point x="88" y="293" type="line" smooth="yes"/>
      <point x="72" y="293"/>
      <point x="59" y="280"/>
      <point x="59" y="265" type="curve" smooth="yes"/>
      <point x="59" y="250"/>
      <point x="72" y="237"/>
      <point x="88" y="237" type="curve" smooth="yes"/>
    </contour>
    <contour>
      <point x="265" y="69" type="curve" smooth="yes"/>
      <point x="281" y="69"/>
      <point x="296" y="81"/>
      <point x="296" y="97" type="curve" smooth="yes"/>
      <point x="296" y="432" type="line" smooth="yes"/>
      <point x="296" y="448"/>
      <point x="281" y="460"/>
      <point x="265" y="460" type="curve" smooth="yes"/>
      <point x="249" y="460"/>
      <point x="234" y="448"/>
      <point x="234" y="432" type="curve" smooth="yes"/>
      <point x="234" y="97" type="line" smooth="yes"/>
      <point x="234" y="81"/>
      <point x="249" y="69"/>
    </contour>
  </outline>
</glyph>
<glyph name="comma" format="1">
  <advance width="216"/>
  <unicode hex="002C"/>
  <outline>
    <contour>
      <point x="48" y="-116" type="curve" smooth="yes"/>
      <point x="60" y="-125"/>
      <point x="80" y="-124"/>
      <point x="89" y="-111" type="curve" smooth="yes"/>
      <point x="119" y="-71"/>
      <point x="140" y="-17"/>
      <point x="140" y="36" type="curve" smooth="yes"/>
      <point x="140" y="60"/>
      <point x="137" y="82"/>
      <point x="132" y="95" type="curve" smooth="yes"/>
      <point x="127" y="110"/>
      <point x="109" y="117"/>
      <point x="94" y="113" type="curve" smooth="yes"/>
      <point x="79" y="109"/>
      <point x="69" y="91"/>
      <point x="74" y="77" type="curve" smooth="yes"/>
      <point x="77" y="67"/>
      <point x="78" y="52"/>
      <point x="78" y="36" type="curve" smooth="yes"/>
      <point x="78" y="-4"/>
      <point x="65" y="-46"/>
      <point x="41" y="-77" type="curve" smooth="yes"/>
      <point x="32" y="-89"/>
      <point x="35" y="-107"/>
    </contour>
  </outline>
</glyph>
<glyph name="slash" format="1">
  <advance width="389"/>
  <unicode hex="002F"/>
  <outline>
    <contour>
      <point x="51" y="-111" type="curve" smooth="yes"/>
      <point x="65" y="-116"/>
      <point x="84" y="-109"/>
      <point x="90" y="-95" type="curve" smooth="yes"/>
      <point x="351" y="603" type="line" smooth="yes"/>
      <point x="356" y="617"/>
      <point x="347" y="634"/>
      <point x="332" y="639" type="curve" smooth="yes"/>
      <point x="317" y="644"/>
      <point x="298" y="637"/>
      <point x="293" y="623" type="curve" smooth="yes"/>
      <point x="32" y="-75" type="line" smooth="yes"/>
      <point x="27" y="-89"/>
      <point x="36" y="-106"/>
    </contour>
  </outline>
</glyph>
<glyph name="zero" format="1">
  <advance width="568"/>
  <unicode hex="0030"/>
  <outline>
    <contour>
      <point x="285" y="-20" type="curve" smooth="yes"/>
      <point x="433" y="-20"/>
      <point x="523" y="106"/>
      <point x="523" y="268" type="curve" smooth="yes"/>
      <point x="523" y="439"/>
      <point x="413" y="552"/>
      <point x="285" y="552" type="curve" smooth="yes"/>
      <point x="147" y="552"/>
      <point x="44" y="439"/>
      <point x="44" y="266" type="curve" smooth="yes"/>
      <point x="44" y="106"/>
      <point x="150" y="-20"/>
    </contour>
    <contour>
      <point x="285" y="37" type="curve" smooth="yes"/>
      <point x="176" y="37"/>
      <point x="106" y="147"/>
      <point x="106" y="266" type="curve" smooth="yes"/>
      <point x="106" y="394"/>
      <point x="175" y="495"/>
      <point x="285" y="495" type="curve" smooth="yes"/>
      <point x="387" y="495"/>
      <point x="461" y="394"/>
      <point x="461" y="268" type="curve" smooth="yes"/>
      <point x="461" y="148"/>
      <point x="403" y="37"/>
    </contour>
  </outline>
</glyph>
<glyph name="two" format="1">
  <advance width="507"/>
  <unicode hex="0032"/>
  <outline>
    <contour>
      <point x="273" y="170" type="line" smooth="yes"/>
      <point x="397" y="286"/>
      <point x="433" y="338"/>
      <point x="433" y="408" type="curve" smooth="yes"/>
      <point x="433" y="480"/>
      <point x="379" y="552"/>
      <point x="258" y="552" type="curve" smooth="yes"/>
      <point x="197" y="552"/>
      <point x="138" y="536"/>
      <point x="83" y="503" type="curve" smooth="yes"/>
      <point x="70" y="495"/>
      <point x="65" y="477"/>
      <point x="74" y="464" type="curve" smooth="yes"/>
      <point x="83" y="451"/>
      <point x="101" y="446"/>
      <point x="115" y="455" type="curve" smooth="yes"/>
      <point x="159" y="482"/>
      <point x="208" y="495"/>
      <point x="258" y="495" type="curve" smooth="yes"/>
      <point x="331" y="495"/>
      <point x="371" y="455"/>
      <point x="371" y="408" type="curve" smooth="yes"/>
      <point x="371" y="350"/>
      <point x="334" y="307"/>
      <point x="231" y="210" type="curve" smooth="yes"/>
      <point x="56" y="47" type="line" smooth="yes"/>
      <point x="45" y="37"/>
      <point x="45" y="18"/>
      <point x="56" y="7" type="curve" smooth="yes"/>
      <point x="67" y="-4"/>
      <point x="86" y="-5"/>
      <point x="98" y="6" type="curve" smooth="yes"/>
    </contour>
    <contour>
      <point x="436" y="-11" type="line" smooth="yes"/>
      <point x="452" y="-11"/>
      <point x="465" y="2"/>
      <point x="465" y="18" type="curve" smooth="yes"/>
      <point x="465" y="33"/>
      <point x="452" y="46"/>
      <point x="436" y="46" type="curve" smooth="yes"/>
      <point x="67" y="46" type="line" smooth="yes"/>
      <point x="51" y="46"/>
      <point x="38" y="33"/>
      <point x="38" y="18" type="curve" smooth="yes"/>
      <point x="38" y="2"/>
      <point x="51" y="-11"/>
      <point x="67" y="-11" type="curve" smooth="yes"/>
    </contour>
  </outline>
</glyph>
<glyph name="four" format="1">
  <advance width="532"/>
  <unicode hex="0034"/>
  <outline>
    <contour>
      <point x="32" y="123" type="curve" smooth="yes"/>
      <point x="45" y="113"/>
      <point x="64" y="115"/>
      <point x="74" y="126" type="curve" smooth="yes"/>
      <point x="388" y="498" type="line" smooth="yes"/>
      <point x="398" y="510"/>
      <point x="396" y="528"/>
      <point x="384" y="538" type="curve" smooth="yes"/>
      <point x="371" y="547"/>
      <point x="352" y="546"/>
      <point x="342" y="535" type="curve" smooth="yes"/>
      <point x="28" y="163" type="line" smooth="yes"/>
      <point x="18" y="151"/>
      <point x="20" y="132"/>
    </contour>
    <contour>
      <point x="486" y="116" type="line" smooth="yes"/>
      <point x="502" y="116"/>
      <point x="515" y="129"/>
      <point x="515" y="145" type="curve" smooth="yes"/>
      <point x="515" y="160"/>
      <point x="502" y="173"/>
      <point x="486" y="173" type="curve" smooth="yes"/>
      <point x="62" y="173" type="line" smooth="yes"/>
      <point x="46" y="173"/>
      <point x="33" y="160"/>
      <point x="33" y="145" type="curve" smooth="yes"/>
      <point x="33" y="129"/>
      <point x="46" y="116"/>
      <point x="62" y="116" type="curve" smooth="yes"/>
    </contour>
    <contour>
      <point x="372" y="-11" type="curve" smooth="yes"/>
      <point x="388" y="-11"/>
      <point x="403" y="2"/>
      <point x="403" y="18" type="curve" smooth="yes"/>
      <point x="403" y="525" type="line" smooth="yes"/>
      <point x="403" y="540"/>
      <point x="388" y="553"/>
      <point x="372" y="553" type="curve" smooth="yes"/>
      <point x="356" y="553"/>
      <point x="341" y="540"/>
      <point x="341" y="525" type="curve" smooth="yes"/>
      <point x="341" y="18" type="line" smooth="yes"/>
      <point x="341" y="2"/>
      <point x="356" y="-11"/>
    </contour>
  </outline>
</glyph>
<glyph name="six" format="1">
  <advance width="540"/>
  <unicode hex="0036"/>
  <outline>
    <contour>
      <point x="286" y="-15" type="curve" smooth="yes"/>
      <point x="434" y="-15"/>
      <point x="493" y="79"/>
      <point x="493" y="169" type="curve" smooth="yes"/>
      <point x="493" y="270"/>
      <point x="418" y="339"/>
      <point x="307" y="339" type="curve" smooth="yes"/>
      <point x="201" y="339"/>
      <point x="110" y="272"/>
      <point x="74" y="146" type="curve" smooth="yes"/>
      <point x="70" y="131"/>
      <point x="81" y="115"/>
      <point x="96" y="111" type="curve" smooth="yes"/>
      <point x="111" y="107"/>
      <point x="129" y="115"/>
      <point x="133" y="130" type="curve" smooth="yes"/>
      <point x="160" y="224"/>
      <point x="225" y="282"/>
      <point x="307" y="282" type="curve" smooth="yes"/>
      <point x="380" y="282"/>
      <point x="431" y="236"/>
      <point x="431" y="169" type="curve" smooth="yes"/>
      <point x="431" y="107"/>
      <point x="388" y="42"/>
      <point x="286" y="42" type="curve" smooth="yes"/>
      <point x="183" y="42"/>
      <point x="118" y="116"/>
      <point x="118" y="250" type="curve" smooth="yes"/>
      <point x="118" y="396"/>
      <point x="185" y="495"/>
      <point x="308" y="495" type="curve" smooth="yes"/>
      <point x="340" y="495"/>
      <point x="360" y="491"/>
      <point x="385" y="483" type="curve" smooth="yes"/>
      <point x="400" y="479"/>
      <point x="417" y="487"/>
      <point x="422" y="502" type="curve" smooth="yes"/>
      <point x="426" y="516"/>
      <point x="418" y="533"/>
      <point x="403" y="537" type="curve" smooth="yes"/>
      <point x="372" y="547"/>
      <point x="346" y="552"/>
      <point x="308" y="552" type="curve" smooth="yes"/>
      <point x="157" y="552"/>
      <point x="56" y="443"/>
      <point x="56" y="250" type="curve" smooth="yes"/>
      <point x="56" y="68"/>
      <point x="155" y="-15"/>
    </contour>
  </outline>
</glyph>
<glyph name="seven" format="1">
  <advance width="463"/>
  <unicode hex="0037"/>
  <outline>
    <contour>
      <point x="189" y="-11" type="curve" smooth="yes"/>
      <point x="205" y="-11"/>
      <point x="220" y="2"/>
      <point x="220" y="18" type="curve" smooth="yes"/>
      <point x="220" y="74" type="line" smooth="yes"/>
      <point x="220" y="130"/>
      <point x="241" y="187"/>
      <point x="266" y="232" type="curve" smooth="yes"/>
      <point x="297" y="285"/>
      <point x="406" y="428"/>
      <point x="446" y="500" type="curve" smooth="yes"/>
      <point x="453" y="514"/>
      <point x="447" y="531"/>
      <point x="433" y="539" type="curve" smooth="yes"/>
      <point x="419" y="546"/>
      <point x="400" y="541"/>
      <point x="392" y="528" type="curve" smooth="yes"/>
      <point x="352" y="456"/>
      <point x="245" y="314"/>
      <point x="214" y="261" type="curve" smooth="yes"/>
      <point x="183" y="207"/>
      <point x="158" y="140"/>
      <point x="158" y="74" type="curve" smooth="yes"/>
      <point x="158" y="18" type="line" smooth="yes"/>
      <point x="158" y="2"/>
      <point x="173" y="-11"/>
    </contour>
    <contour>
      <point x="411" y="487" type="line" smooth="yes"/>
      <point x="427" y="487"/>
      <point x="440" y="500"/>
      <point x="440" y="515" type="curve" smooth="yes"/>
      <point x="440" y="531"/>
      <point x="427" y="543"/>
      <point x="411" y="543" type="curve" smooth="yes"/>
      <point x="51" y="543" type="line" smooth="yes"/>
      <point x="35" y="543"/>
      <point x="22" y="531"/>
      <point x="22" y="515" type="curve" smooth="yes"/>
      <point x="22" y="500"/>
      <point x="35" y="487"/>
      <point x="51" y="487" type="curve" smooth="yes"/>
    </contour>
  </outline>
</glyph>
<glyph name="eight" format="1">
  <advance width="560"/>
  <unicode hex="0038"/>
  <outline>
    <contour>
      <point x="281" y="-19" type="curve" smooth="yes"/>
      <point x="449" y="-19"/>
      <point x="504" y="61"/>
      <point x="504" y="148" type="curve" smooth="yes"/>
      <point x="504" y="244"/>
      <point x="422" y="315"/>
      <point x="281" y="315" type="curve" smooth="yes"/>
      <point x="132" y="315"/>
      <point x="56" y="244"/>
      <point x="56" y="147" type="curve" smooth="yes"/>
      <point x="56" y="61"/>
      <point x="123" y="-19"/>
    </contour>
    <contour>
      <point x="281" y="38" type="curve" smooth="yes"/>
      <point x="178" y="38"/>
      <point x="118" y="84"/>
      <point x="118" y="147" type="curve" smooth="yes"/>
      <point x="118" y="217"/>
      <point x="182" y="258"/>
      <point x="281" y="258" type="curve" smooth="yes"/>
      <point x="374" y="258"/>
      <point x="442" y="217"/>
      <point x="442" y="148" type="curve" smooth="yes"/>
      <point x="442" y="84"/>
      <point x="391" y="38"/>
    </contour>
    <contour>
      <point x="281" y="258" type="curve" smooth="yes"/>
      <point x="417" y="258"/>
      <point x="477" y="328"/>
      <point x="477" y="407" type="curve" smooth="yes"/>
      <point x="477" y="490"/>
      <point x="407" y="551"/>
      <point x="281" y="551" type="curve" smooth="yes"/>
      <point x="149" y="551"/>
      <point x="83" y="490"/>
      <point x="83" y="407" type="curve" smooth="yes"/>
      <point x="83" y="328"/>
      <point x="138" y="258"/>
    </contour>
    <contour>
      <point x="281" y="315" type="curve" smooth="yes"/>
      <point x="193" y="315"/>
      <point x="145" y="352"/>
      <point x="145" y="407" type="curve" smooth="yes"/>
      <point x="145" y="464"/>
      <point x="201" y="494"/>
      <point x="281" y="494" type="curve" smooth="yes"/>
      <point x="357" y="494"/>
      <point x="415" y="464"/>
      <point x="415" y="407" type="curve" smooth="yes"/>
      <point x="415" y="352"/>
      <point x="365" y="315"/>
    </contour>
  </outline>
</glyph>
<glyph name="nine" format="1">
  <advance width="537"/>
  <unicode hex="0039"/>
  <outline>
    <contour>
      <point x="232" y="-14" type="curve" smooth="yes"/>
      <point x="394" y="-14"/>
      <point x="481" y="84"/>
      <point x="481" y="269" type="curve" smooth="yes"/>
      <point x="481" y="456"/>
      <point x="383" y="552"/>
      <point x="251" y="552" type="curve" smooth="yes"/>
      <point x="112" y="552"/>
      <point x="47" y="460"/>
      <point x="47" y="370" type="curve" smooth="yes"/>
      <point x="47" y="257"/>
      <point x="117" y="193"/>
      <point x="241" y="193" type="curve" smooth="yes"/>
      <point x="349" y="193"/>
      <point x="417" y="246"/>
      <point x="469" y="330" type="curve" smooth="yes"/>
      <point x="477" y="343"/>
      <point x="472" y="361"/>
      <point x="458" y="369" type="curve" smooth="yes"/>
      <point x="444" y="377"/>
      <point x="425" y="373"/>
      <point x="417" y="360" type="curve" smooth="yes"/>
      <point x="377" y="296"/>
      <point x="326" y="249"/>
      <point x="241" y="249" type="curve" smooth="yes"/>
      <point x="157" y="249"/>
      <point x="109" y="293"/>
      <point x="109" y="370" type="curve" smooth="yes"/>
      <point x="109" y="433"/>
      <point x="156" y="495"/>
      <point x="251" y="495" type="curve" smooth="yes"/>
      <point x="357" y="495"/>
      <point x="419" y="406"/>
      <point x="419" y="269" type="curve" smooth="yes"/>
      <point x="419" y="129"/>
      <point x="362" y="43"/>
      <point x="232" y="43" type="curve" smooth="yes"/>
      <point x="200" y="43"/>
      <point x="178" y="48"/>
      <point x="153" y="55" type="curve" smooth="yes"/>
      <point x="138" y="59"/>
      <point x="121" y="49"/>
      <point x="118" y="35" type="curve" smooth="yes"/>
      <point x="113" y="20"/>
      <point x="124" y="3"/>
      <point x="139" y="0" type="curve" smooth="yes"/>
      <point x="168" y="-7"/>
      <point x="194" y="-14"/>
    </contour>
  </outline>
</glyph>
<glyph name="colon" format="1">
  <advance width="238"/>
  <unicode hex="003A"/>
  <outline>
    <contour>
      <point x="119" y="265" type="curve" smooth="yes"/>
      <point x="148" y="265"/>
      <point x="171" y="280"/>
      <point x="171" y="324" type="curve" smooth="yes"/>
      <point x="171" y="356"/>
      <point x="148" y="381"/>
      <point x="118" y="381" type="curve" smooth="yes"/>
      <point x="88" y="381"/>
      <point x="66" y="357"/>
      <point x="66" y="324" type="curve" smooth="yes"/>
      <point x="66" y="281"/>
      <point x="95" y="265"/>
    </contour>
    <contour>
      <point x="119" y="-12" type="curve" smooth="yes"/>
      <point x="149" y="-12"/>
      <point x="171" y="3"/>
      <point x="171" y="46" type="curve" smooth="yes"/>
      <point x="171" y="81"/>
      <point x="147" y="105"/>
      <point x="118" y="105" type="curve" smooth="yes"/>
      <point x="89" y="105"/>
      <point x="66" y="82"/>
      <point x="66" y="46" type="curve" smooth="yes"/>
      <point x="66" y="4"/>
      <point x="95" y="-12"/>
    </contour>
  </outline>
</glyph>
<glyph name="less" format="1">
  <advance width="531"/>
  <unicode hex="003C"/>
  <outline>
    <contour>
      <point x="416" y="89" type="line" smooth="yes"/>
      <point x="430" y="82"/>
      <point x="448" y="89"/>
      <point x="454" y="103" type="curve" smooth="yes"/>
      <point x="461" y="117"/>
      <point x="454" y="134"/>
      <point x="440" y="140" type="curve" smooth="yes"/>
      <point x="102" y="290" type="line" smooth="yes"/>
      <point x="88" y="296"/>
      <point x="70" y="290"/>
      <point x="63" y="276" type="curve" smooth="yes"/>
      <point x="56" y="261"/>
      <point x="63" y="244"/>
      <point x="78" y="238" type="curve" smooth="yes"/>
    </contour>
    <contour>
      <point x="434" y="386" type="line" smooth="yes"/>
      <point x="448" y="392"/>
      <point x="455" y="409"/>
      <point x="448" y="423" type="curve" smooth="yes"/>
      <point x="442" y="437"/>
      <point x="425" y="444"/>
      <point x="410" y="437" type="curve" smooth="yes"/>
      <point x="84" y="294" type="line" smooth="yes"/>
      <point x="69" y="287"/>
      <point x="62" y="271"/>
      <point x="69" y="257" type="curve" smooth="yes"/>
      <point x="76" y="242"/>
      <point x="93" y="235"/>
      <point x="108" y="242" type="curve" smooth="yes"/>
    </contour>
  </outline>
</glyph>
<glyph name="equal" format="1">
  <advance width="531"/>
  <unicode hex="003D"/>
  <outline>
    <contour>
      <point x="442" y="332" type="line" smooth="yes"/>
      <point x="458" y="332"/>
      <point x="471" y="345"/>
      <point x="471" y="360" type="curve" smooth="yes"/>
      <point x="471" y="376"/>
      <point x="458" y="389"/>
      <point x="442" y="389" type="curve" smooth="yes"/>
      <point x="88" y="389" type="line" smooth="yes"/>
      <point x="72" y="389"/>
      <point x="59" y="376"/>
      <point x="59" y="360" type="curve" smooth="yes"/>
      <point x="59" y="345"/>
      <point x="72" y="332"/>
      <point x="88" y="332" type="curve" smooth="yes"/>
    </contour>
    <contour>
      <point x="442" y="129" type="line" smooth="yes"/>
      <point x="458" y="129"/>
      <point x="471" y="142"/>
      <point x="471" y="157" type="curve" smooth="yes"/>
      <point x="471" y="173"/>
      <point x="458" y="186"/>
      <point x="442" y="186" type="curve" smooth="yes"/>
      <point x="88" y="186" type="line" smooth="yes"/>
      <point x="72" y="186"/>
      <point x="59" y="173"/>
      <point x="59" y="157" type="curve" smooth="yes"/>
      <point x="59" y="142"/>
      <point x="72" y="129"/>
      <point x="88" y="129" type="curve" smooth="yes"/>
    </contour>
  </outline>
</glyph>
<glyph name="greater" format="1">
  <advance width="515"/>
  <unicode hex="003E"/>
  <outline>
    <contour>
      <point x="449" y="238" type="line" smooth="yes"/>
      <point x="463" y="244"/>
      <point x="470" y="261"/>
      <point x="463" y="276" type="curve" smooth="yes"/>
      <point x="457" y="290"/>
      <point x="439" y="296"/>
      <point x="425" y="290" type="curve" smooth="yes"/>
      <point x="87" y="140" type="line" smooth="yes"/>
      <point x="72" y="134"/>
      <point x="65" y="117"/>
      <point x="72" y="103" type="curve" smooth="yes"/>
      <point x="79" y="89"/>
      <point x="97" y="82"/>
      <point x="111" y="89" type="curve" smooth="yes"/>
    </contour>
    <contour>
      <point x="419" y="242" type="line" smooth="yes"/>
      <point x="433" y="235"/>
      <point x="451" y="242"/>
      <point x="457" y="257" type="curve" smooth="yes"/>
      <point x="464" y="271"/>
      <point x="457" y="287"/>
      <point x="443" y="294" type="curve" smooth="yes"/>
      <point x="118" y="437" type="line" smooth="yes"/>
      <point x="104" y="444"/>
      <point x="86" y="437"/>
      <point x="79" y="423" type="curve" smooth="yes"/>
      <point x="72" y="409"/>
      <point x="79" y="392"/>
      <point x="94" y="386" type="curve" smooth="yes"/>
    </contour>
  </outline>
</glyph>
<glyph name="question" format="1">
  <advance width="364"/>
  <unicode hex="003F"/>
  <outline>
    <contour>
      <point x="152" y="176" type="curve" smooth="yes"/>
      <point x="167" y="175"/>
      <point x="183" y="188"/>
      <point x="184" y="203" type="curve" smooth="yes"/>
      <point x="187" y="243"/>
      <point x="198" y="258"/>
      <point x="242" y="281" type="curve" smooth="yes"/>
      <point x="305" y="312"/>
      <point x="351" y="358"/>
      <point x="351" y="419" type="curve" smooth="yes"/>
      <point x="351" y="488"/>
      <point x="298" y="552"/>
      <point x="191" y="552" type="curve" smooth="yes"/>
      <point x="125" y="552"/>
      <point x="84" y="538"/>
      <point x="43" y="513" type="curve" smooth="yes"/>
      <point x="30" y="504"/>
      <point x="25" y="487"/>
      <point x="34" y="473" type="curve" smooth="yes"/>
      <point x="43" y="461"/>
      <point x="61" y="456"/>
      <point x="75" y="464" type="curve" smooth="yes"/>
      <point x="107" y="484"/>
      <point x="139" y="495"/>
      <point x="191" y="495" type="curve" smooth="yes"/>
      <point x="252" y="495"/>
      <point x="289" y="461"/>
      <point x="289" y="419" type="curve" smooth="yes"/>
      <point x="289" y="379"/>
      <point x="255" y="351"/>
      <point x="216" y="331" type="curve" smooth="yes"/>
      <point x="145" y="295"/>
      <point x="125" y="270"/>
      <point x="122" y="206" type="curve" smooth="yes"/>
      <point x="121" y="191"/>
      <point x="136" y="177"/>
    </contour>
    <contour>
      <point x="159" y="-16" type="curve" smooth="yes"/>
      <point x="189" y="-16"/>
      <point x="211" y="-1"/>
      <point x="211" y="42" type="curve" smooth="yes"/>
      <point x="211" y="77"/>
      <point x="188" y="100"/>
      <point x="158" y="100" type="curve" smooth="yes"/>
      <point x="126" y="100"/>
      <point x="106" y="78"/>
      <point x="106" y="42" type="curve" smooth="yes"/>
      <point x="106" y="0"/>
      <point x="135" y="-16"/>
    </contour>
  </outline>
</glyph>
<glyph name="at" format="1">
  <advance width="672"/>
  <unicode hex="0040"/>
  <outline>
    <contour>
      <point x="343" y="-21" type="curve" smooth="yes"/>
      <point x="412" y="-21"/>
      <point x="472" y="-5"/>
      <point x="515" y="14" type="curve" smooth="yes"/>
      <point x="530" y="20"/>
      <point x="537" y="36"/>
      <point x="530" y="51" type="curve" smooth="yes"/>
      <point x="524" y="65"/>
      <point x="507" y="71"/>
      <point x="492" y="65" type="curve" smooth="yes"/>
      <point x="454" y="48"/>
      <point x="403" y="35"/>
      <point x="343" y="35" type="curve" smooth="yes"/>
      <point x="197" y="35"/>
      <point x="96" y="134"/>
      <point x="96" y="262" type="curve" smooth="yes"/>
      <point x="96" y="390"/>
      <point x="199" y="498"/>
      <point x="340" y="498" type="curve" smooth="yes"/>
      <point x="490" y="498"/>
      <point x="579" y="392"/>
      <point x="579" y="276" type="curve" smooth="yes"/>
      <point x="579" y="221"/>
      <point x="557" y="178"/>
      <point x="516" y="178" type="curve" smooth="yes"/>
      <point x="482" y="178"/>
      <point x="459" y="209"/>
      <point x="459" y="251" type="curve" smooth="yes"/>
      <point x="459" y="384" type="line" smooth="yes"/>
      <point x="459" y="399"/>
      <point x="446" y="412"/>
      <point x="430" y="412" type="curve" smooth="yes"/>
      <point x="414" y="412"/>
      <point x="401" y="399"/>
      <point x="401" y="384" type="curve" smooth="yes"/>
      <point x="401" y="251" type="line" smooth="yes"/>
      <point x="401" y="167"/>
      <point x="456" y="123"/>
      <point x="516" y="123" type="curve" smooth="yes"/>
      <point x="581" y="123"/>
      <point x="637" y="171"/>
      <point x="637" y="276" type="curve" smooth="yes"/>
      <point x="637" y="420"/>
      <point x="528" y="554"/>
      <point x="340" y="554" type="curve" smooth="yes"/>
      <point x="165" y="554"/>
      <point x="38" y="421"/>
      <point x="38" y="262" type="curve" smooth="yes"/>
      <point x="38" y="103"/>
      <point x="161" y="-21"/>
    </contour>
    <contour>
      <point x="316" y="124" type="curve" smooth="yes"/>
      <point x="367" y="124"/>
      <point x="419" y="151"/>
      <point x="454" y="211" type="curve" smooth="yes"/>
      <point x="462" y="224"/>
      <point x="457" y="242"/>
      <point x="444" y="249" type="curve" smooth="yes"/>
      <point x="430" y="257"/>
      <point x="412" y="252"/>
      <point x="404" y="239" type="curve" smooth="yes"/>
      <point x="381" y="201"/>
      <point x="349" y="179"/>
      <point x="316" y="179" type="curve" smooth="yes"/>
      <point x="278" y="179"/>
      <point x="247" y="210"/>
      <point x="247" y="258" type="curve" smooth="yes"/>
      <point x="247" y="317"/>
      <point x="286" y="356"/>
      <point x="335" y="356" type="curve" smooth="yes"/>
      <point x="367" y="356"/>
      <point x="391" y="347"/>
      <point x="414" y="332" type="curve" smooth="yes"/>
      <point x="427" y="324"/>
      <point x="446" y="328"/>
      <point x="454" y="340" type="curve" smooth="yes"/>
      <point x="463" y="353"/>
      <point x="459" y="371"/>
      <point x="446" y="379" type="curve" smooth="yes"/>
      <point x="414" y="400"/>
      <point x="379" y="412"/>
      <point x="335" y="412" type="curve" smooth="yes"/>
      <point x="258" y="412"/>
      <point x="189" y="355"/>
      <point x="189" y="258" type="curve" smooth="yes"/>
      <point x="189" y="171"/>
      <point x="252" y="124"/>
    </contour>
  </outline>
</glyph>
<glyph name="A" format="1">
  <advance width="583"/>
  <unicode hex="0041"/>
  <outline>
    <contour>
      <point x="527" y="-9" type="curve" smooth="yes"/>
      <point x="542" y="-3"/>
      <point x="552" y="14"/>
      <point x="546" y="29" type="curve" smooth="yes"/>
      <point x="496" y="156"/>
      <point x="392" y="379"/>
      <point x="316" y="537" type="curve" smooth="yes"/>
      <point x="308" y="550"/>
      <point x="290" y="557"/>
      <point x="275" y="550" type="curve" smooth="yes"/>
      <point x="261" y="543"/>
      <point x="253" y="525"/>
      <point x="260" y="511" type="curve" smooth="yes"/>
      <point x="336" y="355"/>
      <point x="438" y="133"/>
      <point x="488" y="8" type="curve" smooth="yes"/>
      <point x="494" y="-7"/>
      <point x="513" y="-14"/>
    </contour>
    <contour>
      <point x="54" y="-9" type="curve" smooth="yes"/>
      <point x="69" y="-13"/>
      <point x="87" y="-6"/>
      <point x="93" y="8" type="curve" smooth="yes"/>
      <point x="140" y="137"/>
      <point x="239" y="356"/>
      <point x="310" y="512" type="curve" smooth="yes"/>
      <point x="317" y="526"/>
      <point x="308" y="544"/>
      <point x="294" y="550" type="curve" smooth="yes"/>
      <point x="279" y="557"/>
      <point x="261" y="550"/>
      <point x="254" y="536" type="curve" smooth="yes"/>
      <point x="183" y="379"/>
      <point x="82" y="158"/>
      <point x="35" y="28" type="curve" smooth="yes"/>
      <point x="30" y="14"/>
      <point x="39" y="-3"/>
    </contour>
    <contour>
      <point x="442" y="138" type="line" smooth="yes"/>
      <point x="458" y="138"/>
      <point x="471" y="151"/>
      <point x="471" y="167" type="curve" smooth="yes"/>
      <point x="471" y="182"/>
      <point x="458" y="195"/>
      <point x="442" y="195" type="curve" smooth="yes"/>
      <point x="136" y="195" type="line" smooth="yes"/>
      <point x="120" y="195"/>
      <point x="107" y="182"/>
      <point x="107" y="167" type="curve" smooth="yes"/>
      <point x="107" y="151"/>
      <point x="120" y="138"/>
      <point x="136" y="138" type="curve" smooth="yes"/>
    </contour>
    <contour>
      <point x="519" y="28" type="move" name="ogonek"/>
    </contour>
    <contour>
      <point x="284" y="551" type="move" name="top"/>
    </contour>
  </outline>
</glyph>
<glyph name="F" format="1">
  <advance width="473"/>
  <unicode hex="0046"/>
  <outline>
    <contour>
      <point x="116" y="-11" type="curve" smooth="yes"/>
      <point x="132" y="-11"/>
      <point x="147" y="2"/>
      <point x="147" y="18" type="curve" smooth="yes"/>
      <point x="147" y="515" type="line" smooth="yes"/>
      <point x="147" y="531"/>
      <point x="132" y="543"/>
      <point x="116" y="543" type="curve" smooth="yes"/>
      <point x="100" y="543"/>
      <point x="85" y="531"/>
      <point x="85" y="515" type="curve" smooth="yes"/>
      <point x="85" y="18" type="line" smooth="yes"/>
      <point x="85" y="2"/>
      <point x="100" y="-11"/>
    </contour>
    <contour>
      <point x="362" y="238" type="line" smooth="yes"/>
      <point x="378" y="238"/>
      <point x="391" y="251"/>
      <point x="391" y="266" type="curve" smooth="yes"/>
      <point x="391" y="281"/>
      <point x="378" y="294"/>
      <point x="362" y="294" type="curve" smooth="yes"/>
      <point x="125" y="294" type="line" smooth="yes"/>
      <point x="109" y="294"/>
      <point x="96" y="281"/>
      <point x="96" y="266" type="curve" smooth="yes"/>
      <point x="96" y="251"/>
      <point x="109" y="238"/>
      <point x="125" y="238" type="curve" smooth="yes"/>
    </contour>
    <contour>
      <point x="415" y="487" type="line" smooth="yes"/>
      <point x="431" y="487"/>
      <point x="444" y="500"/>
      <point x="444" y="515" type="curve" smooth="yes"/>
      <point x="444" y="531"/>
      <point x="431" y="543"/>
      <point x="415" y="543" type="curve" smooth="yes"/>
      <point x="125" y="543" type="line" smooth="yes"/>
      <point x="109" y="543"/>
      <point x="96" y="531"/>
      <point x="96" y="515" type="curve" smooth="yes"/>
      <point x="96" y="500"/>
      <point x="109" y="487"/>
      <point x="125" y="487" type="curve" smooth="yes"/>
    </contour>
  </outline>
</glyph>
<glyph name="H" format="1">
  <advance width="637"/>
  <unicode hex="0048"/>
  <outline>
    <contour>
      <point x="520" y="-11" type="curve" smooth="yes"/>
      <point x="536" y="-11"/>
      <point x="551" y="2"/>
      <point x="551" y="18" type="curve" smooth="yes"/>
      <point x="551" y="515" type="line" smooth="yes"/>
      <point x="551" y="531"/>
      <point x="536" y="543"/>
      <point x="520" y="543" type="curve" smooth="yes"/>
      <point x="504" y="543"/>
      <point x="489" y="531"/>
      <point x="489" y="515" type="curve" smooth="yes"/>
      <point x="489" y="18" type="line" smooth="yes"/>
      <point x="489" y="2"/>
      <point x="504" y="-11"/>
    </contour>
    <contour>
      <point x="116" y="-11" type="curve" smooth="yes"/>
      <point x="132" y="-11"/>
      <point x="147" y="2"/>
      <point x="147" y="18" type="curve" smooth="yes"/>
      <point x="147" y="515" type="line" smooth="yes"/>
      <point x="147" y="531"/>
      <point x="132" y="543"/>
      <point x="116" y="543" type="curve" smooth="yes"/>
      <point x="100" y="543"/>
      <point x="85" y="531"/>
      <point x="85" y="515" type="curve" smooth="yes"/>
      <point x="85" y="18" type="line" smooth="yes"/>
      <point x="85" y="2"/>
      <point x="100" y="-11"/>
    </contour>
    <contour>
      <point x="519" y="256" type="line" smooth="yes"/>
      <point x="535" y="256"/>
      <point x="548" y="269"/>
      <point x="548" y="284" type="curve" smooth="yes"/>
      <point x="548" y="300"/>
      <point x="535" y="313"/>
      <point x="519" y="313" type="curve" smooth="yes"/>
      <point x="120" y="313" type="line" smooth="yes"/>
      <point x="104" y="313"/>
      <point x="91" y="300"/>
      <point x="91" y="284" type="curve" smooth="yes"/>
      <point x="91" y="269"/>
      <point x="104" y="256"/>
      <point x="120" y="256" type="curve" smooth="yes"/>
    </contour>
  </outline>
</glyph>
<glyph name="I" format="1">
  <advance width="243"/>
  <unicode hex="0049"/>
  <outline>
    <contour>
      <point x="121" y="-11" type="curve" smooth="yes"/>
      <point x="137" y="-11"/>
      <point x="152" y="2"/>
      <point x="152" y="18" type="curve" smooth="yes"/>
      <point x="152" y="515" type="line" smooth="yes"/>
      <point x="152" y="531"/>
      <point x="137" y="543"/>
      <point x="121" y="543" type="curve" smooth="yes"/>
      <point x="105" y="543"/>
      <point x="90" y="531"/>
      <point x="90" y="515" type="curve" smooth="yes"/>
      <point x="90" y="18" type="line" smooth="yes"/>
      <point x="90" y="2"/>
      <point x="105" y="-11"/>
    </contour>
    <contour>
      <point x="124" y="39" type="move" name="ogonek"/>
    </contour>
    <contour>
      <point x="121" y="-11" type="move" name="bottom"/>
    </contour>
    <contour>
      <point x="121" y="543" type="move" name="top"/>
    </contour>
  </outline>
</glyph>
<glyph name="J" format="1">
  <advance width="382"/>
  <unicode hex="004A"/>
  <outline>
    <contour>
      <point x="155" y="-20" type="curve" smooth="yes"/>
      <point x="252" y="-20"/>
      <point x="310" y="36"/>
      <point x="310" y="163" type="curve" smooth="yes"/>
      <point x="310" y="515" type="line" smooth="yes"/>
      <point x="310" y="531"/>
      <point x="295" y="543"/>
      <point x="279" y="543" type="curve" smooth="yes"/>
      <point x="263" y="543"/>
      <point x="248" y="531"/>
      <point x="248" y="515" type="curve" smooth="yes"/>
      <point x="248" y="163" type="line" smooth="yes"/>
      <point x="248" y="86"/>
      <point x="222" y="37"/>
      <point x="155" y="37" type="curve" smooth="yes"/>
      <point x="128" y="37"/>
      <point x="101" y="42"/>
      <point x="74" y="54" type="curve" smooth="yes"/>
      <point x="60" y="61"/>
      <point x="42" y="54"/>
      <point x="35" y="40" type="curve" smooth="yes"/>
      <point x="28" y="26"/>
      <point x="35" y="9"/>
      <point x="50" y="3" type="curve" smooth="yes"/>
      <point x="83" y="-13"/>
      <point x="120" y="-20"/>
    </contour>
  </outline>
</glyph>
<glyph name="K" format="1">
  <advance width="559"/>
  <unicode hex="004B"/>
  <outline>
    <contour>
      <point x="136" y="169" type="curve" smooth="yes"/>
      <point x="187" y="213"/>
      <point x="385" y="387"/>
      <point x="490" y="495" type="curve" smooth="yes"/>
      <point x="501" y="506"/>
      <point x="501" y="525"/>
      <point x="489" y="535" type="curve" smooth="yes"/>
      <point x="478" y="546"/>
      <point x="458" y="546"/>
      <point x="448" y="535" type="curve" smooth="yes"/>
      <point x="343" y="428"/>
      <point x="147" y="256"/>
      <point x="96" y="211" type="curve" smooth="yes"/>
      <point x="84" y="201"/>
      <point x="83" y="182"/>
      <point x="94" y="171" type="curve" smooth="yes"/>
      <point x="104" y="160"/>
      <point x="124" y="158"/>
    </contour>
    <contour>
      <point x="116" y="-11" type="curve" smooth="yes"/>
      <point x="132" y="-11"/>
      <point x="147" y="2"/>
      <point x="147" y="18" type="curve" smooth="yes"/>
      <point x="147" y="515" type="line" smooth="yes"/>
      <point x="147" y="531"/>
      <point x="132" y="543"/>
      <point x="116" y="543" type="curve" smooth="yes"/>
      <point x="100" y="543"/>
      <point x="85" y="531"/>
      <point x="85" y="515" type="curve" smooth="yes"/>
      <point x="85" y="18" type="line" smooth="yes"/>
      <point x="85" y="2"/>
      <point x="100" y="-11"/>
    </contour>
    <contour>
      <point x="509" y="-3" type="curve" smooth="yes"/>
      <point x="521" y="6"/>
      <point x="523" y="25"/>
      <point x="512" y="37" type="curve" smooth="yes"/>
      <point x="454" y="101"/>
      <point x="329" y="250"/>
      <point x="269" y="321" type="curve" smooth="yes"/>
      <point x="259" y="333"/>
      <point x="240" y="334"/>
      <point x="227" y="325" type="curve" smooth="yes"/>
      <point x="215" y="315"/>
      <point x="213" y="297"/>
      <point x="223" y="285" type="curve" smooth="yes"/>
      <point x="283" y="213"/>
      <point x="410" y="64"/>
      <point x="468" y="-1" type="curve" smooth="yes"/>
      <point x="478" y="-13"/>
      <point x="497" y="-14"/>
    </contour>
    <contour>
      <point x="276" y="19" type="move" name="bottom"/>
    </contour>
  </outline>
</glyph>
<glyph name="L" format="1">
  <advance width="456"/>
  <unicode hex="004C"/>
  <outline>
    <contour>
      <point x="116" y="-11" type="curve" smooth="yes"/>
      <point x="132" y="-11"/>
      <point x="147" y="2"/>
      <point x="147" y="18" type="curve" smooth="yes"/>
      <point x="147" y="515" type="line" smooth="yes"/>
      <point x="147" y="531"/>
      <point x="132" y="543"/>
      <point x="116" y="543" type="curve" smooth="yes"/>
      <point x="100" y="543"/>
      <point x="85" y="531"/>
      <point x="85" y="515" type="curve" smooth="yes"/>
      <point x="85" y="18" type="line" smooth="yes"/>
      <point x="85" y="2"/>
      <point x="100" y="-11"/>
    </contour>
    <contour>
      <point x="401" y="-11" type="line" smooth="yes"/>
      <point x="417" y="-11"/>
      <point x="430" y="2"/>
      <point x="430" y="18" type="curve" smooth="yes"/>
      <point x="430" y="33"/>
      <point x="417" y="46"/>
      <point x="401" y="46" type="curve" smooth="yes"/>
      <point x="125" y="46" type="line" smooth="yes"/>
      <point x="109" y="46"/>
      <point x="96" y="33"/>
      <point x="96" y="18" type="curve" smooth="yes"/>
      <point x="96" y="2"/>
      <point x="109" y="-11"/>
      <point x="125" y="-11" type="curve" smooth="yes"/>
    </contour>
    <contour>
      <point x="116" y="543" type="move" name="top"/>
    </contour>
    <contour>
      <point x="256" y="-9" type="move" name="bottom"/>
    </contour>
  </outline>
</glyph>
<glyph name="N" format="1">
  <advance width="641"/>
  <unicode hex="004E"/>
  <outline>
    <contour>
      <point x="535" y="-5" type="curve" smooth="yes"/>
      <point x="548" y="4"/>
      <point x="551" y="22"/>
      <point x="542" y="35" type="curve" smooth="yes"/>
      <point x="430" y="182"/>
      <point x="225" y="430"/>
      <point x="146" y="532" type="curve" smooth="yes"/>
      <point x="136" y="545"/>
      <point x="117" y="546"/>
      <point x="105" y="538" type="curve" smooth="yes"/>
      <point x="92" y="528"/>
      <point x="89" y="510"/>
      <point x="98" y="498" type="curve" smooth="yes"/>
      <point x="177" y="395"/>
      <point x="382" y="147"/>
      <point x="494" y="0" type="curve" smooth="yes"/>
      <point x="503" y="-12"/>
      <point x="522" y="-14"/>
    </contour>
    <contour>
      <point x="116" y="-11" type="curve" smooth="yes"/>
      <point x="132" y="-11"/>
      <point x="147" y="2"/>
      <point x="147" y="18" type="curve" smooth="yes"/>
      <point x="147" y="515" type="line" smooth="yes"/>
      <point x="147" y="531"/>
      <point x="132" y="543"/>
      <point x="116" y="543" type="curve" smooth="yes"/>
      <point x="100" y="543"/>
      <point x="85" y="531"/>
      <point x="85" y="515" type="curve" smooth="yes"/>
      <point x="85" y="18" type="line" smooth="yes"/>
      <point x="85" y="2"/>
      <point x="100" y="-11"/>
    </contour>
    <contour>
      <point x="525" y="-11" type="curve" smooth="yes"/>
      <point x="541" y="-11"/>
      <point x="556" y="2"/>
      <point x="556" y="18" type="curve" smooth="yes"/>
      <point x="556" y="515" type="line" smooth="yes"/>
      <point x="556" y="531"/>
      <point x="541" y="543"/>
      <point x="525" y="543" type="curve" smooth="yes"/>
      <point x="509" y="543"/>
      <point x="494" y="531"/>
      <point x="494" y="515" type="curve" smooth="yes"/>
      <point x="494" y="18" type="line" smooth="yes"/>
      <point x="494" y="2"/>
      <point x="509" y="-11"/>
    </contour>
    <contour>
      <point x="327" y="519" type="move" name="top"/>
    </contour>
    <contour>
      <point x="305" y="35" type="move" name="bottom"/>
    </contour>
  </outline>
</glyph>
<glyph name="O" format="1">
  <advance width="646"/>
  <unicode hex="004F"/>
  <outline>
    <contour>
      <point x="325" y="-21" type="curve" smooth="yes"/>
      <point x="496" y="-21"/>
      <point x="600" y="103"/>
      <point x="600" y="266" type="curve" smooth="yes"/>
      <point x="600" y="436"/>
      <point x="476" y="553"/>
      <point x="325" y="553" type="curve" smooth="yes"/>
      <point x="161" y="553"/>
      <point x="46" y="436"/>
      <point x="46" y="263" type="curve" smooth="yes"/>
      <point x="46" y="103"/>
      <point x="163" y="-21"/>
    </contour>
    <contour>
      <point x="325" y="36" type="curve" smooth="yes"/>
      <point x="195" y="36"/>
      <point x="108" y="139"/>
      <point x="108" y="263" type="curve" smooth="yes"/>
      <point x="108" y="398"/>
      <point x="193" y="496"/>
      <point x="325" y="496" type="curve" smooth="yes"/>
      <point x="446" y="496"/>
      <point x="538" y="398"/>
      <point x="538" y="266" type="curve" smooth="yes"/>
      <point x="538" y="140"/>
      <point x="462" y="36"/>
    </contour>
    <contour>
      <point x="324" y="555" type="move" name="top"/>
    </contour>
    <contour>
      <point x="326" y="-18" type="move" name="bottom"/>
    </contour>
  </outline>
</glyph>
<glyph name="P" format="1">
  <advance width="510"/>
  <unicode hex="0050"/>
  <outline>
    <contour>
      <point x="116" y="-11" type="curve" smooth="yes"/>
      <point x="132" y="-11"/>
      <point x="147" y="2"/>
      <point x="147" y="18" type="curve" smooth="yes"/>
      <point x="147" y="515" type="line"/>
      <point x="116" y="487" type="line"/>
      <point x="266" y="487" type="line" smooth="yes"/>
      <point x="353" y="487"/>
      <point x="415" y="433"/>
      <point x="415" y="357" type="curve" smooth="yes"/>
      <point x="415" y="284"/>
      <point x="363" y="227"/>
      <point x="266" y="227" type="curve" smooth="yes"/>
      <point x="143" y="227" type="line" smooth="yes"/>
      <point x="127" y="227"/>
      <point x="114" y="214"/>
      <point x="114" y="198" type="curve" smooth="yes"/>
      <point x="114" y="183"/>
      <point x="127" y="170"/>
      <point x="143" y="170" type="curve" smooth="yes"/>
      <point x="266" y="170" type="line" smooth="yes"/>
      <point x="407" y="170"/>
      <point x="477" y="255"/>
      <point x="477" y="357" type="curve" smooth="yes"/>
      <point x="477" y="466"/>
      <point x="391" y="543"/>
      <point x="266" y="543" type="curve" smooth="yes"/>
      <point x="116" y="543" type="line" smooth="yes"/>
      <point x="99" y="543"/>
      <point x="85" y="531"/>
      <point x="85" y="515" type="curve" smooth="yes"/>
      <point x="85" y="18" type="line" smooth="yes"/>
      <point x="85" y="2"/>
      <point x="100" y="-11"/>
    </contour>
  </outline>
</glyph>
<glyph name="Q" format="1">
  <advance width="646"/>
  <unicode hex="0051"/>
  <outline>
    <contour>
      <point x="325" y="-17" type="curve" smooth="yes"/>
      <point x="496" y="-17"/>
      <point x="600" y="106"/>
      <point x="600" y="269" type="curve" smooth="yes"/>
      <point x="600" y="440"/>
      <point x="476" y="556"/>
      <point x="325" y="556" type="curve" smooth="yes"/>
      <point x="161" y="556"/>
      <point x="46" y="440"/>
      <point x="46" y="266" type="curve" smooth="yes"/>
      <point x="46" y="106"/>
      <point x="163" y="-17"/>
    </contour>
    <contour>
      <point x="525" y="-154" type="curve" smooth="yes"/>
      <point x="541" y="-154"/>
      <point x="554" y="-141"/>
      <point x="554" y="-126" type="curve" smooth="yes"/>
      <point x="554" y="-111"/>
      <point x="541" y="-97"/>
      <point x="525" y="-97" type="curve" smooth="yes"/>
      <point x="430" y="-97"/>
      <point x="368" y="-48"/>
      <point x="351" y="17" type="curve" smooth="yes"/>
      <point x="347" y="31"/>
      <point x="329" y="40"/>
      <point x="314" y="36" type="curve" smooth="yes"/>
      <point x="299" y="33"/>
      <point x="287" y="16"/>
      <point x="291" y="1" type="curve" smooth="yes"/>
      <point x="314" y="-85"/>
      <point x="396" y="-154"/>
    </contour>
    <contour>
      <point x="325" y="40" type="curve" smooth="yes"/>
      <point x="195" y="40"/>
      <point x="108" y="142"/>
      <point x="108" y="266" type="curve" smooth="yes"/>
      <point x="108" y="402"/>
      <point x="193" y="499"/>
      <point x="325" y="499" type="curve" smooth="yes"/>
      <point x="446" y="499"/>
      <point x="538" y="402"/>
      <point x="538" y="269" type="curve" smooth="yes"/>
      <point x="538" y="143"/>
      <point x="462" y="40"/>
    </contour>
  </outline>
</glyph>
<glyph name="R" format="1">
  <advance width="542"/>
  <unicode hex="0052"/>
  <outline>
    <contour>
      <point x="116" y="-11" type="curve" smooth="yes"/>
      <point x="132" y="-11"/>
      <point x="147" y="2"/>
      <point x="147" y="18" type="curve" smooth="yes"/>
      <point x="147" y="515" type="line"/>
      <point x="116" y="487" type="line"/>
      <point x="271" y="487" type="line" smooth="yes"/>
      <point x="355" y="487"/>
      <point x="414" y="439"/>
      <point x="414" y="368" type="curve" smooth="yes"/>
      <point x="414" y="302"/>
      <point x="365" y="250"/>
      <point x="271" y="250" type="curve" smooth="yes"/>
      <point x="133" y="250" type="line" smooth="yes"/>
      <point x="117" y="250"/>
      <point x="104" y="238"/>
      <point x="104" y="222" type="curve" smooth="yes"/>
      <point x="104" y="206"/>
      <point x="117" y="194"/>
      <point x="133" y="194" type="curve" smooth="yes"/>
      <point x="271" y="194" type="line" smooth="yes"/>
      <point x="409" y="194"/>
      <point x="476" y="274"/>
      <point x="476" y="368" type="curve" smooth="yes"/>
      <point x="476" y="470"/>
      <point x="397" y="543"/>
      <point x="271" y="543" type="curve" smooth="yes"/>
      <point x="116" y="543" type="line" smooth="yes"/>
      <point x="99" y="543"/>
      <point x="85" y="531"/>
      <point x="85" y="515" type="curve" smooth="yes"/>
      <point x="85" y="18" type="line" smooth="yes"/>
      <point x="85" y="2"/>
      <point x="100" y="-11"/>
    </contour>
    <contour>
      <point x="493" y="-3" type="curve" smooth="yes"/>
      <point x="505" y="6"/>
      <point x="507" y="25"/>
      <point x="496" y="36" type="curve" smooth="yes"/>
      <point x="323" y="235" type="line" smooth="yes"/>
      <point x="313" y="246"/>
      <point x="294" y="247"/>
      <point x="282" y="238" type="curve" smooth="yes"/>
      <point x="270" y="227"/>
      <point x="268" y="209"/>
      <point x="279" y="198" type="curve" smooth="yes"/>
      <point x="452" y="0" type="line" smooth="yes"/>
      <point x="462" y="-12"/>
      <point x="481" y="-14"/>
    </contour>
    <contour>
      <point x="252" y="544" type="move" name="top"/>
    </contour>
    <contour>
      <point x="271" y="27" type="move" name="bottom"/>
    </contour>
  </outline>
</glyph>
<glyph name="S" format="1">
  <advance width="525"/>
  <unicode hex="0053"/>
  <outline>
    <contour>
      <point x="263" y="-20" type="curve" smooth="yes"/>
      <point x="410" y="-20"/>
      <point x="466" y="56"/>
      <point x="466" y="134" type="curve" smooth="yes"/>
      <point x="466" y="210"/>
      <point x="423" y="274"/>
      <point x="269" y="308" type="curve" smooth="yes"/>
      <point x="159" y="329"/>
      <point x="130" y="372"/>
      <point x="130" y="414" type="curve" smooth="yes"/>
      <point x="130" y="457"/>
      <point x="177" y="494"/>
      <point x="242" y="494" type="curve" smooth="yes"/>
      <point x="310" y="494"/>
      <point x="343" y="482"/>
      <point x="389" y="464" type="curve" smooth="yes"/>
      <point x="404" y="458"/>
      <point x="422" y="466"/>
      <point x="427" y="481" type="curve" smooth="yes"/>
      <point x="433" y="495"/>
      <point x="425" y="512"/>
      <point x="410" y="517" type="curve" smooth="yes"/>
      <point x="357" y="538"/>
      <point x="320" y="550"/>
      <point x="242" y="550" type="curve" smooth="yes"/>
      <point x="129" y="550"/>
      <point x="68" y="481"/>
      <point x="68" y="414" type="curve" smooth="yes"/>
      <point x="68" y="356"/>
      <point x="89" y="283"/>
      <point x="258" y="252" type="curve" smooth="yes"/>
      <point x="361" y="229"/>
      <point x="404" y="190"/>
      <point x="404" y="134" type="curve" smooth="yes"/>
      <point x="404" y="80"/>
      <point x="355" y="37"/>
      <point x="263" y="37" type="curve" smooth="yes"/>
      <point x="205" y="37"/>
      <point x="150" y="49"/>
      <point x="101" y="77" type="curve" smooth="yes"/>
      <point x="87" y="85"/>
      <point x="69" y="80"/>
      <point x="61" y="67" type="curve" smooth="yes"/>
      <point x="52" y="54"/>
      <point x="58" y="36"/>
      <point x="71" y="29" type="curve" smooth="yes"/>
      <point x="130" y="-4"/>
      <point x="194" y="-20"/>
    </contour>
    <contour>
      <point x="242" y="549" type="move" name="top"/>
    </contour>
    <contour>
      <point x="257" y="-22" type="move" name="bottom"/>
    </contour>
  </outline>
</glyph>
<glyph name="T" format="1">
  <advance width="547"/>
  <unicode hex="0054"/>
  <outline>
    <contour>
      <point x="272" y="-11" type="curve" smooth="yes"/>
      <point x="288" y="-11"/>
      <point x="303" y="2"/>
      <point x="303" y="18" type="curve" smooth="yes"/>
      <point x="303" y="515" type="line" smooth="yes"/>
      <point x="303" y="531"/>
      <point x="288" y="543"/>
      <point x="272" y="543" type="curve" smooth="yes"/>
      <point x="256" y="543"/>
      <point x="241" y="531"/>
      <point x="241" y="515" type="curve" smooth="yes"/>
      <point x="241" y="18" type="line" smooth="yes"/>
      <point x="241" y="2"/>
      <point x="256" y="-11"/>
    </contour>
    <contour>
      <point x="498" y="487" type="line" smooth="yes"/>
      <point x="514" y="487"/>
      <point x="527" y="500"/>
      <point x="527" y="515" type="curve" smooth="yes"/>
      <point x="527" y="531"/>
      <point x="514" y="543"/>
      <point x="498" y="543" type="curve" smooth="yes"/>
      <point x="49" y="543" type="line" smooth="yes"/>
      <point x="33" y="543"/>
      <point x="20" y="531"/>
      <point x="20" y="515" type="curve" smooth="yes"/>
      <point x="20" y="500"/>
      <point x="33" y="487"/>
      <point x="49" y="487" type="curve" smooth="yes"/>
    </contour>
    <contour>
      <point x="272" y="544" type="move" name="top"/>
    </contour>
    <contour>
      <point x="273" y="-8" type="move" name="bottom"/>
    </contour>
  </outline>
</glyph>
<glyph name="U" format="1">
  <advance width="621"/>
  <unicode hex="0055"/>
  <outline>
    <contour>
      <point x="308" y="-20" type="curve" smooth="yes"/>
      <point x="461" y="-20"/>
      <point x="548" y="62"/>
      <point x="548" y="215" type="curve" smooth="yes"/>
      <point x="548" y="515" type="line" smooth="yes"/>
      <point x="548" y="531"/>
      <point x="533" y="543"/>
      <point x="517" y="543" type="curve" smooth="yes"/>
      <point x="501" y="543"/>
      <point x="486" y="531"/>
      <point x="486" y="515" type="curve" smooth="yes"/>
      <point x="486" y="215" type="line" smooth="yes"/>
      <point x="486" y="101"/>
      <point x="423" y="37"/>
      <point x="308" y="37" type="curve" smooth="yes"/>
      <point x="205" y="37"/>
      <point x="135" y="101"/>
      <point x="135" y="212" type="curve" smooth="yes"/>
      <point x="135" y="515" type="line" smooth="yes"/>
      <point x="135" y="531"/>
      <point x="120" y="543"/>
      <point x="104" y="543" type="curve" smooth="yes"/>
      <point x="88" y="543"/>
      <point x="73" y="531"/>
      <point x="73" y="515" type="curve" smooth="yes"/>
      <point x="73" y="212" type="line" smooth="yes"/>
      <point x="73" y="62"/>
      <point x="171" y="-20"/>
    </contour>
    <contour>
      <point x="360" y="-4" type="move" name="ogonek"/>
    </contour>
    <contour>
      <point x="306" y="517" type="move" name="top"/>
    </contour>
  </outline>
</glyph>
<glyph name="W" format="1">
  <advance width="916"/>
  <unicode hex="0057"/>
  <outline>
    <contour>
      <point x="252" y="-17" type="curve" smooth="yes"/>
      <point x="267" y="-24"/>
      <point x="286" y="-17"/>
      <point x="292" y="-3" type="curve" smooth="yes"/>
      <point x="331" y="84"/>
      <point x="442" y="357"/>
      <point x="487" y="502" type="curve" smooth="yes"/>
      <point x="492" y="518"/>
      <point x="482" y="534"/>
      <point x="467" y="538" type="curve" smooth="yes"/>
      <point x="451" y="543"/>
      <point x="433" y="534"/>
      <point x="428" y="520" type="curve" smooth="yes"/>
      <point x="384" y="376"/>
      <point x="275" y="107"/>
      <point x="236" y="20" type="curve" smooth="yes"/>
      <point x="229" y="7"/>
      <point x="237" y="-11"/>
    </contour>
    <contour>
      <point x="273" y="-11" type="curve" smooth="yes"/>
      <point x="286" y="-4"/>
      <point x="295" y="14"/>
      <point x="287" y="27" type="curve" smooth="yes"/>
      <point x="251" y="103"/>
      <point x="147" y="396"/>
      <point x="113" y="522" type="curve" smooth="yes"/>
      <point x="109" y="537"/>
      <point x="91" y="545"/>
      <point x="76" y="541" type="curve" smooth="yes"/>
      <point x="60" y="538"/>
      <point x="49" y="521"/>
      <point x="53" y="506" type="curve" smooth="yes"/>
      <point x="88" y="378"/>
      <point x="195" y="79"/>
      <point x="233" y="2" type="curve" smooth="yes"/>
      <point x="240" y="-12"/>
      <point x="258" y="-18"/>
    </contour>
    <contour>
      <point x="662" y="-12" type="curve" smooth="yes"/>
      <point x="676" y="-4"/>
      <point x="684" y="13"/>
      <point x="676" y="27" type="curve" smooth="yes"/>
      <point x="639" y="102"/>
      <point x="532" y="385"/>
      <point x="492" y="508" type="curve" smooth="yes"/>
      <point x="488" y="523"/>
      <point x="469" y="531"/>
      <point x="454" y="526" type="curve" smooth="yes"/>
      <point x="439" y="522"/>
      <point x="429" y="505"/>
      <point x="433" y="491" type="curve" smooth="yes"/>
      <point x="474" y="364"/>
      <point x="583" y="78"/>
      <point x="622" y="0" type="curve" smooth="yes"/>
      <point x="629" y="-13"/>
      <point x="648" y="-19"/>
    </contour>
    <contour>
      <point x="641" y="-18" type="curve" smooth="yes"/>
      <point x="656" y="-25"/>
      <point x="675" y="-18"/>
      <point x="681" y="-4" type="curve" smooth="yes"/>
      <point x="720" y="83"/>
      <point x="820" y="358"/>
      <point x="863" y="506" type="curve" smooth="yes"/>
      <point x="868" y="521"/>
      <point x="857" y="537"/>
      <point x="842" y="541" type="curve" smooth="yes"/>
      <point x="827" y="545"/>
      <point x="809" y="537"/>
      <point x="804" y="523" type="curve" smooth="yes"/>
      <point x="761" y="377"/>
      <point x="664" y="106"/>
      <point x="625" y="19" type="curve" smooth="yes"/>
      <point x="618" y="6"/>
      <point x="626" y="-12"/>
    </contour>
    <contour>
      <point x="458" y="536" type="move" name="top"/>
    </contour>
  </outline>
</glyph>
<glyph name="Y" format="1">
  <advance width="562"/>
  <unicode hex="0059"/>
  <outline>
    <contour>
      <point x="266" y="174" type="curve" smooth="yes"/>
      <point x="278" y="165"/>
      <point x="297" y="167"/>
      <point x="307" y="179" type="curve" smooth="yes"/>
      <point x="359" y="247"/>
      <point x="479" y="429"/>
      <point x="523" y="500" type="curve" smooth="yes"/>
      <point x="531" y="513"/>
      <point x="526" y="532"/>
      <point x="512" y="539" type="curve" smooth="yes"/>
      <point x="498" y="547"/>
      <point x="479" y="543"/>
      <point x="471" y="530" type="curve" smooth="yes"/>
      <point x="428" y="461"/>
      <point x="311" y="281"/>
      <point x="259" y="214" type="curve" smooth="yes"/>
      <point x="250" y="201"/>
      <point x="253" y="183"/>
    </contour>
    <contour>
      <point x="283" y="-11" type="curve" smooth="yes"/>
      <point x="299" y="-11"/>
      <point x="314" y="2"/>
      <point x="314" y="18" type="curve" smooth="yes"/>
      <point x="314" y="190" type="line" smooth="yes"/>
      <point x="314" y="205"/>
      <point x="299" y="218"/>
      <point x="283" y="218" type="curve" smooth="yes"/>
      <point x="267" y="218"/>
      <point x="252" y="205"/>
      <point x="252" y="190" type="curve" smooth="yes"/>
      <point x="252" y="18" type="line" smooth="yes"/>
      <point x="252" y="2"/>
      <point x="267" y="-11"/>
    </contour>
    <contour>
      <point x="297" y="180" type="curve" smooth="yes"/>
      <point x="310" y="189"/>
      <point x="313" y="207"/>
      <point x="304" y="219" type="curve" smooth="yes"/>
      <point x="259" y="278"/>
      <point x="134" y="460"/>
      <point x="91" y="530" type="curve" smooth="yes"/>
      <point x="83" y="543"/>
      <point x="64" y="547"/>
      <point x="50" y="539" type="curve" smooth="yes"/>
      <point x="36" y="532"/>
      <point x="31" y="513"/>
      <point x="39" y="500" type="curve" smooth="yes"/>
      <point x="83" y="428"/>
      <point x="211" y="244"/>
      <point x="256" y="185" type="curve" smooth="yes"/>
      <point x="265" y="173"/>
      <point x="284" y="171"/>
    </contour>
    <contour>
      <point x="279" y="516" type="move" name="top"/>
    </contour>
  </outline>
</glyph>
<glyph name="bracketright" format="1">
  <advance width="326"/>
  <unicode hex="005D"/>
  <outline>
    <contour>
      <point x="236" y="-104" type="line" smooth="yes"/>
      <point x="253" y="-104"/>
      <point x="267" y="-92"/>
      <point x="267" y="-76" type="curve" smooth="yes"/>
      <point x="267" y="621" type="line" smooth="yes"/>
      <point x="267" y="636"/>
      <point x="253" y="649"/>
      <point x="236" y="649" type="curve" smooth="yes"/>
      <point x="94" y="649" type="line" smooth="yes"/>
      <point x="78" y="649"/>
      <point x="65" y="636"/>
      <point x="65" y="621" type="curve" smooth="yes"/>
      <point x="65" y="605"/>
      <point x="78" y="592"/>
      <point x="94" y="592" type="curve" smooth="yes"/>
      <point x="236" y="592" type="line"/>
      <point x="205" y="621" type="line"/>
      <point x="205" y="-76" type="line"/>
      <point x="236" y="-48" type="line"/>
      <point x="94" y="-48" type="line" smooth="yes"/>
      <point x="78" y="-48"/>
      <point x="65" y="-60"/>
      <point x="65" y="-76" type="curve" smooth="yes"/>
      <point x="65" y="-92"/>
      <point x="78" y="-104"/>
      <point x="94" y="-104" type="curve" smooth="yes"/>
    </contour>
  </outline>
</glyph>
<glyph name="underscore" format="1">
  <advance width="494"/>
  <unicode hex="005F"/>
  <outline>
    <contour>
      <point x="465" y="-120" type="line" smooth="yes"/>
      <point x="481" y="-120"/>
      <point x="494" y="-107"/>
      <point x="494" y="-92" type="curve" smooth="yes"/>
      <point x="494" y="-76"/>
      <point x="481" y="-63"/>
      <point x="465" y="-63" type="curve" smooth="yes"/>
      <point x="29" y="-63" type="line" smooth="yes"/>
      <point x="13" y="-63"/>
      <point x="0" y="-76"/>
      <point x="0" y="-92" type="curve" smooth="yes"/>
      <point x="0" y="-107"/>
      <point x="13" y="-120"/>
      <point x="29" y="-120" type="curve" smooth="yes"/>
    </contour>
  </outline>
</glyph>
<glyph name="a" format="1">
  <advance width="450"/>
  <unicode hex="0061"/>
  <outline>
    <contour>
      <point x="414" y="1" type="curve" smooth="yes"/>
      <point x="426" y="10"/>
      <point x="428" y="29"/>
      <point x="417" y="41" type="curve" smooth="yes"/>
      <point x="396" y="63"/>
      <point x="387" y="91"/>
      <point x="387" y="138" type="curve" smooth="yes"/>
      <point x="387" y="232" type="line" smooth="yes"/>
      <point x="387" y="333"/>
      <point x="331" y="401"/>
      <point x="216" y="401" type="curve" smooth="yes"/>
      <point x="178" y="401"/>
      <point x="133" y="390"/>
      <point x="109" y="383" type="curve" smooth="yes"/>
      <point x="94" y="378"/>
      <point x="85" y="361"/>
      <point x="90" y="348" type="curve" smooth="yes"/>
      <point x="95" y="333"/>
      <point x="112" y="325"/>
      <point x="127" y="329" type="curve" smooth="yes"/>
      <point x="147" y="335"/>
      <point x="184" y="344"/>
      <point x="216" y="344" type="curve" smooth="yes"/>
      <point x="293" y="344"/>
      <point x="325" y="296"/>
      <point x="325" y="232" type="curve" smooth="yes"/>
      <point x="325" y="138" type="line" smooth="yes"/>
      <point x="325" y="71"/>
      <point x="343" y="34"/>
      <point x="373" y="2" type="curve" smooth="yes"/>
      <point x="383" y="-9"/>
      <point x="403" y="-10"/>
    </contour>
    <contour>
      <point x="171" y="-8" type="curve" smooth="yes"/>
      <point x="258" y="-8"/>
      <point x="324" y="26"/>
      <point x="380" y="101" type="curve" smooth="yes"/>
      <point x="390" y="114"/>
      <point x="386" y="132"/>
      <point x="373" y="141" type="curve" smooth="yes"/>
      <point x="360" y="151"/>
      <point x="341" y="148"/>
      <point x="332" y="136" type="curve" smooth="yes"/>
      <point x="288" y="78"/>
      <point x="238" y="49"/>
      <point x="171" y="49" type="curve" smooth="yes"/>
      <point x="122" y="49"/>
      <point x="100" y="79"/>
      <point x="100" y="104" type="curve" smooth="yes"/>
      <point x="100" y="122"/>
      <point x="103" y="139"/>
      <point x="119" y="154" type="curve" smooth="yes"/>
      <point x="146" y="180"/>
      <point x="191" y="195"/>
      <point x="258" y="195" type="curve" smooth="yes"/>
      <point x="288" y="195"/>
      <point x="320" y="193"/>
      <point x="354" y="192" type="curve" smooth="yes"/>
      <point x="370" y="191"/>
      <point x="384" y="204"/>
      <point x="384" y="219" type="curve" smooth="yes"/>
      <point x="385" y="234"/>
      <point x="371" y="248"/>
      <point x="356" y="248" type="curve" smooth="yes"/>
      <point x="320" y="249"/>
      <point x="288" y="251"/>
      <point x="258" y="251" type="curve" smooth="yes"/>
      <point x="170" y="251"/>
      <point x="114" y="229"/>
      <point x="77" y="194" type="curve" smooth="yes"/>
      <point x="49" y="168"/>
      <point x="38" y="139"/>
      <point x="38" y="104" type="curve" smooth="yes"/>
      <point x="38" y="57"/>
      <point x="70" y="-8"/>
    </contour>
    <contour>
      <point x="397" y="23" type="move" name="ogonek"/>
    </contour>
    <contour>
      <point x="209" y="402" type="move" name="top"/>
    </contour>
  </outline>
</glyph>
<glyph name="b" format="1">
  <advance width="514"/>
  <unicode hex="0062"/>
  <outline>
    <contour>
      <point x="268" y="-12" type="curve" smooth="yes"/>
      <point x="385" y="-12"/>
      <point x="472" y="66"/>
      <point x="472" y="192" type="curve" smooth="yes"/>
      <point x="472" y="318"/>
      <point x="385" y="396"/>
      <point x="282" y="396" type="curve" smooth="yes"/>
      <point x="209" y="396"/>
      <point x="132" y="348"/>
      <point x="78" y="265" type="curve" smooth="yes"/>
      <point x="70" y="251"/>
      <point x="75" y="234"/>
      <point x="88" y="226" type="curve" smooth="yes"/>
      <point x="102" y="217"/>
      <point x="121" y="221"/>
      <point x="129" y="234" type="curve" smooth="yes"/>
      <point x="170" y="297"/>
      <point x="225" y="339"/>
      <point x="282" y="339" type="curve" smooth="yes"/>
      <point x="355" y="339"/>
      <point x="410" y="276"/>
      <point x="410" y="192" type="curve" smooth="yes"/>
      <point x="410" y="105"/>
      <point x="353" y="45"/>
      <point x="268" y="45" type="curve" smooth="yes"/>
      <point x="211" y="45"/>
      <point x="163" y="57"/>
      <point x="117" y="82" type="curve" smooth="yes"/>
      <point x="103" y="89"/>
      <point x="85" y="84"/>
      <point x="77" y="71" type="curve" smooth="yes"/>
      <point x="69" y="57"/>
      <point x="75" y="39"/>
      <point x="89" y="32" type="curve" smooth="yes"/>
      <point x="143" y="4"/>
      <point x="200" y="-12"/>
    </contour>
    <contour>
      <point x="103" y="-11" type="curve" smooth="yes"/>
      <point x="119" y="-11"/>
      <point x="134" y="2"/>
      <point x="134" y="18" type="curve" smooth="yes"/>
      <point x="134" y="542" type="line" smooth="yes"/>
      <point x="134" y="557"/>
      <point x="119" y="570"/>
      <point x="103" y="570" type="curve" smooth="yes"/>
      <point x="87" y="570"/>
      <point x="72" y="557"/>
      <point x="72" y="542" type="curve" smooth="yes"/>
      <point x="72" y="18" type="line" smooth="yes"/>
      <point x="72" y="2"/>
      <point x="87" y="-11"/>
    </contour>
  </outline>
</glyph>
<glyph name="c" format="1">
  <advance width="442"/>
  <unicode hex="0063"/>
  <outline>
    <contour>
      <point x="269" y="-8" type="curve" smooth="yes"/>
      <point x="316" y="-8"/>
      <point x="354" y="2"/>
      <point x="386" y="13" type="curve" smooth="yes"/>
      <point x="401" y="19"/>
      <point x="409" y="36"/>
      <point x="403" y="51" type="curve" smooth="yes"/>
      <point x="398" y="65"/>
      <point x="380" y="72"/>
      <point x="365" y="67" type="curve" smooth="yes"/>
      <point x="340" y="57"/>
      <point x="308" y="49"/>
      <point x="269" y="49" type="curve" smooth="yes"/>
      <point x="166" y="49"/>
      <point x="106" y="109"/>
      <point x="106" y="188" type="curve" smooth="yes"/>
      <point x="106" y="278"/>
      <point x="165" y="344"/>
      <point x="270" y="344" type="curve" smooth="yes"/>
      <point x="297" y="344"/>
      <point x="329" y="338"/>
      <point x="354" y="330" type="curve" smooth="yes"/>
      <point x="369" y="326"/>
      <point x="386" y="334"/>
      <point x="391" y="349" type="curve" smooth="yes"/>
      <point x="395" y="362"/>
      <point x="387" y="379"/>
      <point x="372" y="384" type="curve" smooth="yes"/>
      <point x="341" y="394"/>
      <point x="303" y="401"/>
      <point x="270" y="401" type="curve" smooth="yes"/>
      <point x="127" y="401"/>
      <point x="44" y="311"/>
      <point x="44" y="188" type="curve" smooth="yes"/>
      <point x="44" y="79"/>
      <point x="122" y="-8"/>
    </contour>
    <contour>
      <point x="248" y="401" type="move" name="top"/>
    </contour>
    <contour>
      <point x="244" y="-4" type="move" name="bottom"/>
    </contour>
  </outline>
</glyph>
<glyph name="d" format="1">
  <advance width="514"/>
  <unicode hex="0064"/>
  <outline>
    <contour>
      <point x="232" y="-12" type="curve" smooth="yes"/>
      <point x="322" y="-12"/>
      <point x="390" y="45"/>
      <point x="437" y="122" type="curve" smooth="yes"/>
      <point x="445" y="135"/>
      <point x="440" y="154"/>
      <point x="426" y="161" type="curve" smooth="yes"/>
      <point x="412" y="170"/>
      <point x="393" y="165"/>
      <point x="385" y="152" type="curve" smooth="yes"/>
      <point x="350" y="94"/>
      <point x="302" y="45"/>
      <point x="232" y="45" type="curve" smooth="yes"/>
      <point x="158" y="45"/>
      <point x="106" y="102"/>
      <point x="106" y="184" type="curve" smooth="yes"/>
      <point x="106" y="273"/>
      <point x="167" y="339"/>
      <point x="254" y="339" type="curve" smooth="yes"/>
      <point x="310" y="339"/>
      <point x="352" y="318"/>
      <point x="393" y="285" type="curve" smooth="yes"/>
      <point x="406" y="276"/>
      <point x="424" y="277"/>
      <point x="434" y="289" type="curve" smooth="yes"/>
      <point x="444" y="301"/>
      <point x="443" y="319"/>
      <point x="431" y="329" type="curve" smooth="yes"/>
      <point x="378" y="372"/>
      <point x="324" y="396"/>
      <point x="254" y="396" type="curve" smooth="yes"/>
      <point x="135" y="396"/>
      <point x="44" y="310"/>
      <point x="44" y="184" type="curve" smooth="yes"/>
      <point x="44" y="63"/>
      <point x="128" y="-12"/>
    </contour>
    <contour>
      <point x="412" y="-12" type="curve" smooth="yes"/>
      <point x="428" y="-12"/>
      <point x="443" y="1"/>
      <point x="443" y="17" type="curve" smooth="yes"/>
      <point x="443" y="542" type="line" smooth="yes"/>
      <point x="443" y="557"/>
      <point x="428" y="570"/>
      <point x="412" y="570" type="curve" smooth="yes"/>
      <point x="396" y="570"/>
      <point x="381" y="557"/>
      <point x="381" y="542" type="curve" smooth="yes"/>
      <point x="381" y="17" type="line" smooth="yes"/>
      <point x="381" y="1"/>
      <point x="396" y="-12"/>
    </contour>
  </outline>
</glyph>
<glyph name="h" format="1">
  <advance width="496"/>
  <unicode hex="0068"/>
  <outline>
    <contour>
      <point x="404" y="-12" type="curve" smooth="yes"/>
      <point x="420" y="-12"/>
      <point x="435" y="1"/>
      <point x="435" y="17" type="curve" smooth="yes"/>
      <point x="435" y="222" type="line" smooth="yes"/>
      <point x="435" y="358"/>
      <point x="366" y="396"/>
      <point x="286" y="396" type="curve" smooth="yes"/>
      <point x="213" y="396"/>
      <point x="142" y="353"/>
      <point x="86" y="299" type="curve" smooth="yes"/>
      <point x="74" y="288"/>
      <point x="75" y="269"/>
      <point x="86" y="259" type="curve" smooth="yes"/>
      <point x="97" y="247"/>
      <point x="117" y="247"/>
      <point x="128" y="259" type="curve" smooth="yes"/>
      <point x="172" y="301"/>
      <point x="227" y="339"/>
      <point x="286" y="339" type="curve" smooth="yes"/>
      <point x="340" y="339"/>
      <point x="373" y="301"/>
      <point x="373" y="222" type="curve" smooth="yes"/>
      <point x="373" y="17" type="line" smooth="yes"/>
      <point x="373" y="1"/>
      <point x="388" y="-12"/>
    </contour>
    <contour>
      <point x="103" y="-12" type="curve" smooth="yes"/>
      <point x="119" y="-12"/>
      <point x="134" y="1"/>
      <point x="134" y="17" type="curve" smooth="yes"/>
      <point x="134" y="542" type="line" smooth="yes"/>
      <point x="134" y="557"/>
      <point x="119" y="570"/>
      <point x="103" y="570" type="curve" smooth="yes"/>
      <point x="87" y="570"/>
      <point x="72" y="557"/>
      <point x="72" y="542" type="curve" smooth="yes"/>
      <point x="72" y="17" type="line" smooth="yes"/>
      <point x="72" y="1"/>
      <point x="87" y="-12"/>
    </contour>
  </outline>
</glyph>
<glyph name="i" format="1">
  <advance width="218"/>
  <unicode hex="0069"/>
  <outline>
    <contour>
      <point x="109" y="-13" type="curve" smooth="yes"/>
      <point x="125" y="-13"/>
      <point x="140" y="0"/>
      <point x="140" y="16" type="curve" smooth="yes"/>
      <point x="140" y="366" type="line" smooth="yes"/>
      <point x="140" y="382"/>
      <point x="125" y="395"/>
      <point x="109" y="395" type="curve" smooth="yes"/>
      <point x="93" y="395"/>
      <point x="78" y="382"/>
      <point x="78" y="366" type="curve" smooth="yes"/>
      <point x="78" y="16" type="line" smooth="yes"/>
      <point x="78" y="0"/>
      <point x="93" y="-13"/>
    </contour>
    <contour>
      <point x="110" y="500" type="curve" smooth="yes"/>
      <point x="134" y="500"/>
      <point x="159" y="519"/>
      <point x="159" y="553" type="curve" smooth="yes"/>
      <point x="159" y="589"/>
      <point x="134" y="609"/>
      <point x="109" y="609" type="curve" smooth="yes"/>
      <point x="83" y="609"/>
      <point x="59" y="589"/>
      <point x="59" y="553" type="curve" smooth="yes"/>
      <point x="59" y="521"/>
      <point x="82" y="500"/>
    </contour>
    <contour>
      <point x="109" y="-11" type="move" name="bottom"/>
    </contour>
  </outline>
</glyph>
<glyph name="j" format="1">
  <advance width="218"/>
  <unicode hex="006A"/>
  <outline>
    <contour>
      <point x="3" y="-169" type="curve" smooth="yes"/>
      <point x="89" y="-137"/>
      <point x="140" y="-79"/>
      <point x="140" y="39" type="curve" smooth="yes"/>
      <point x="140" y="370" type="line" smooth="yes"/>
      <point x="140" y="386"/>
      <point x="125" y="399"/>
      <point x="109" y="399" type="curve" smooth="yes"/>
      <point x="93" y="399"/>
      <point x="78" y="386"/>
      <point x="78" y="370" type="curve" smooth="yes"/>
      <point x="78" y="39" type="line" smooth="yes"/>
      <point x="78" y="-46"/>
      <point x="45" y="-91"/>
      <point x="-18" y="-116" type="curve" smooth="yes"/>
      <point x="-32" y="-121"/>
      <point x="-41" y="-139"/>
      <point x="-35" y="-153" type="curve" smooth="yes"/>
      <point x="-29" y="-167"/>
      <point x="-11" y="-175"/>
    </contour>
    <contour>
      <point x="110" y="504" type="curve" smooth="yes"/>
      <point x="134" y="504"/>
      <point x="159" y="523"/>
      <point x="159" y="557" type="curve" smooth="yes"/>
      <point x="159" y="593"/>
      <point x="134" y="613"/>
      <point x="109" y="613" type="curve" smooth="yes"/>
      <point x="83" y="613"/>
      <point x="59" y="593"/>
      <point x="59" y="557" type="curve" smooth="yes"/>
      <point x="59" y="525"/>
      <point x="82" y="504"/>
    </contour>
  </outline>
</glyph>
<glyph name="k" format="1">
  <advance width="466"/>
  <unicode hex="006B"/>
  <outline>
    <contour>
      <point x="406" y="345" type="line" smooth="yes"/>
      <point x="419" y="355"/>
      <point x="420" y="373"/>
      <point x="411" y="384" type="curve" smooth="yes"/>
      <point x="401" y="397"/>
      <point x="382" y="399"/>
      <point x="370" y="390" type="curve" smooth="yes"/>
      <point x="87" y="173" type="line" smooth="yes"/>
      <point x="74" y="163"/>
      <point x="72" y="145"/>
      <point x="82" y="133" type="curve" smooth="yes"/>
      <point x="92" y="121"/>
      <point x="111" y="119"/>
      <point x="123" y="128" type="curve" smooth="yes"/>
    </contour>
    <contour>
      <point x="103" y="-12" type="curve" smooth="yes"/>
      <point x="119" y="-12"/>
      <point x="134" y="1"/>
      <point x="134" y="17" type="curve" smooth="yes"/>
      <point x="134" y="542" type="line" smooth="yes"/>
      <point x="134" y="557"/>
      <point x="119" y="570"/>
      <point x="103" y="570" type="curve" smooth="yes"/>
      <point x="87" y="570"/>
      <point x="72" y="557"/>
      <point x="72" y="542" type="curve" smooth="yes"/>
      <point x="72" y="17" type="line" smooth="yes"/>
      <point x="72" y="1"/>
      <point x="87" y="-12"/>
    </contour>
    <contour>
      <point x="419" y="-6" type="curve" smooth="yes"/>
      <point x="432" y="2"/>
      <point x="436" y="21"/>
      <point x="426" y="34" type="curve" smooth="yes"/>
      <point x="257" y="267" type="line" smooth="yes"/>
      <point x="248" y="278"/>
      <point x="229" y="281"/>
      <point x="216" y="272" type="curve" smooth="yes"/>
      <point x="203" y="263"/>
      <point x="199" y="245"/>
      <point x="209" y="232" type="curve" smooth="yes"/>
      <point x="378" y="0" type="line" smooth="yes"/>
      <point x="387" y="-12"/>
      <point x="406" y="-16"/>
    </contour>
    <contour>
      <point x="233" y="22" type="move" name="bottom"/>
    </contour>
  </outline>
</glyph>
<glyph name="l" format="1">
  <advance width="218"/>
  <unicode hex="006C"/>
  <outline>
    <contour>
      <point x="109" y="-12" type="curve" smooth="yes"/>
      <point x="125" y="-12"/>
      <point x="140" y="1"/>
      <point x="140" y="17" type="curve" smooth="yes"/>
      <point x="140" y="542" type="line" smooth="yes"/>
      <point x="140" y="557"/>
      <point x="125" y="570"/>
      <point x="109" y="570" type="curve" smooth="yes"/>
      <point x="93" y="570"/>
      <point x="78" y="557"/>
      <point x="78" y="542" type="curve" smooth="yes"/>
      <point x="78" y="17" type="line" smooth="yes"/>
      <point x="78" y="1"/>
      <point x="93" y="-12"/>
    </contour>
    <contour>
      <point x="109" y="570" type="move" name="top"/>
    </contour>
    <contour>
      <point x="108" y="-11" type="move" name="bottom"/>
    </contour>
  </outline>
</glyph>
<glyph name="m" format="1">
  <advance width="764"/>
  <unicode hex="006D"/>
  <outline>
    <contour>
      <point x="672" y="-8" type="curve" smooth="yes"/>
      <point x="688" y="-8"/>
      <point x="703" y="6"/>
      <point x="703" y="21" type="curve" smooth="yes"/>
      <point x="703" y="237" type="line" smooth="yes"/>
      <point x="703" y="371"/>
      <point x="634" y="401"/>
      <point x="557" y="401" type="curve" smooth="yes"/>
      <point x="490" y="401"/>
      <point x="419" y="358"/>
      <point x="366" y="300" type="curve" smooth="yes"/>
      <point x="355" y="289"/>
      <point x="357" y="270"/>
      <point x="368" y="260" type="curve" smooth="yes"/>
      <point x="380" y="249"/>
      <point x="400" y="250"/>
      <point x="410" y="262" type="curve" smooth="yes"/>
      <point x="451" y="306"/>
      <point x="504" y="345"/>
      <point x="557" y="345" type="curve" smooth="yes"/>
      <point x="608" y="345"/>
      <point x="641" y="314"/>
      <point x="641" y="237" type="curve" smooth="yes"/>
      <point x="641" y="21" type="line" smooth="yes"/>
      <point x="641" y="6"/>
      <point x="656" y="-8"/>
    </contour>
    <contour>
      <point x="103" y="-8" type="curve" smooth="yes"/>
      <point x="119" y="-8"/>
      <point x="134" y="6"/>
      <point x="134" y="21" type="curve" smooth="yes"/>
      <point x="134" y="373" type="line" smooth="yes"/>
      <point x="134" y="388"/>
      <point x="119" y="401"/>
      <point x="103" y="401" type="curve" smooth="yes"/>
      <point x="87" y="401"/>
      <point x="72" y="388"/>
      <point x="72" y="373" type="curve" smooth="yes"/>
      <point x="72" y="21" type="line" smooth="yes"/>
      <point x="72" y="6"/>
      <point x="87" y="-8"/>
    </contour>
    <contour>
      <point x="388" y="-8" type="curve" smooth="yes"/>
      <point x="404" y="-8"/>
      <point x="419" y="6"/>
      <point x="419" y="21" type="curve" smooth="yes"/>
      <point x="419" y="237" type="line" smooth="yes"/>
      <point x="419" y="371"/>
      <point x="351" y="401"/>
      <point x="274" y="401" type="curve" smooth="yes"/>
      <point x="207" y="401"/>
      <point x="135" y="357"/>
      <point x="83" y="300" type="curve" smooth="yes"/>
      <point x="72" y="288"/>
      <point x="74" y="270"/>
      <point x="86" y="260" type="curve" smooth="yes"/>
      <point x="98" y="249"/>
      <point x="117" y="250"/>
      <point x="127" y="262" type="curve" smooth="yes"/>
      <point x="167" y="306"/>
      <point x="221" y="345"/>
      <point x="274" y="345" type="curve" smooth="yes"/>
      <point x="325" y="345"/>
      <point x="357" y="314"/>
      <point x="357" y="237" type="curve" smooth="yes"/>
      <point x="357" y="21" type="line" smooth="yes"/>
      <point x="357" y="6"/>
      <point x="372" y="-8"/>
    </contour>
  </outline>
</glyph>
<glyph name="n" format="1">
  <advance width="496"/>
  <unicode hex="006E"/>
  <outline>
    <contour>
      <point x="404" y="-8" type="curve" smooth="yes"/>
      <point x="420" y="-8"/>
      <point x="435" y="5"/>
      <point x="435" y="21" type="curve" smooth="yes"/>
      <point x="435" y="226" type="line" smooth="yes"/>
      <point x="435" y="363"/>
      <point x="366" y="401"/>
      <point x="286" y="401" type="curve" smooth="yes"/>
      <point x="213" y="401"/>
      <point x="142" y="358"/>
      <point x="86" y="303" type="curve" smooth="yes"/>
      <point x="74" y="291"/>
      <point x="75" y="273"/>
      <point x="86" y="263" type="curve" smooth="yes"/>
      <point x="98" y="251"/>
      <point x="117" y="251"/>
      <point x="128" y="263" type="curve" smooth="yes"/>
      <point x="172" y="306"/>
      <point x="227" y="344"/>
      <point x="286" y="344" type="curve" smooth="yes"/>
      <point x="340" y="344"/>
      <point x="373" y="306"/>
      <point x="373" y="226" type="curve" smooth="yes"/>
      <point x="373" y="21" type="line" smooth="yes"/>
      <point x="373" y="5"/>
      <point x="388" y="-8"/>
    </contour>
    <contour>
      <point x="103" y="-8" type="curve" smooth="yes"/>
      <point x="119" y="-8"/>
      <point x="134" y="5"/>
      <point x="134" y="21" type="curve" smooth="yes"/>
      <point x="134" y="372" type="line" smooth="yes"/>
      <point x="134" y="388"/>
      <point x="119" y="401"/>
      <point x="103" y="401" type="curve" smooth="yes"/>
      <point x="87" y="401"/>
      <point x="72" y="388"/>
      <point x="72" y="372" type="curve" smooth="yes"/>
      <point x="72" y="21" type="line" smooth="yes"/>
      <point x="72" y="5"/>
      <point x="87" y="-8"/>
    </contour>
    <contour>
      <point x="258" y="406" type="move" name="top"/>
    </contour>
    <contour>
      <point x="242" y="32" type="move" name="bottom"/>
    </contour>
  </outline>
</glyph>
<glyph name="o" format="1">
  <advance width="512"/>
  <unicode hex="006F"/>
  <outline>
    <contour>
      <point x="256" y="-12" type="curve" smooth="yes"/>
      <point x="387" y="-12"/>
      <point x="470" y="76"/>
      <point x="470" y="192" type="curve" smooth="yes"/>
      <point x="470" y="310"/>
      <point x="386" y="405"/>
      <point x="256" y="405" type="curve" smooth="yes"/>
      <point x="125" y="405"/>
      <point x="43" y="310"/>
      <point x="43" y="193" type="curve" smooth="yes"/>
      <point x="43" y="77"/>
      <point x="127" y="-12"/>
    </contour>
    <contour>
      <point x="256" y="45" type="curve" smooth="yes"/>
      <point x="163" y="45"/>
      <point x="105" y="111"/>
      <point x="105" y="193" type="curve" smooth="yes"/>
      <point x="105" y="277"/>
      <point x="161" y="348"/>
      <point x="256" y="348" type="curve" smooth="yes"/>
      <point x="352" y="348"/>
      <point x="408" y="276"/>
      <point x="408" y="192" type="curve" smooth="yes"/>
      <point x="408" y="110"/>
      <point x="349" y="45"/>
    </contour>
    <contour>
      <point x="256" y="406" type="move" name="top"/>
    </contour>
    <contour>
      <point x="257" y="-10" type="move" name="bottom"/>
    </contour>
  </outline>
</glyph>
<glyph name="r" format="1">
  <advance width="356"/>
  <unicode hex="0072"/>
  <outline>
    <contour>
      <point x="88" y="214" type="curve" smooth="yes"/>
      <point x="101" y="205"/>
      <point x="121" y="209"/>
      <point x="129" y="222" type="curve" smooth="yes"/>
      <point x="173" y="290"/>
      <point x="225" y="334"/>
      <point x="308" y="344" type="curve" smooth="yes"/>
      <point x="323" y="346"/>
      <point x="335" y="361"/>
      <point x="333" y="377" type="curve" smooth="yes"/>
      <point x="331" y="391"/>
      <point x="316" y="402"/>
      <point x="300" y="401" type="curve" smooth="yes"/>
      <point x="199" y="388"/>
      <point x="133" y="336"/>
      <point x="78" y="253" type="curve" smooth="yes"/>
      <point x="70" y="241"/>
      <point x="75" y="222"/>
    </contour>
    <contour>
      <point x="103" y="-8" type="curve" smooth="yes"/>
      <point x="119" y="-8"/>
      <point x="134" y="5"/>
      <point x="134" y="21" type="curve" smooth="yes"/>
      <point x="134" y="372" type="line" smooth="yes"/>
      <point x="134" y="388"/>
      <point x="119" y="401"/>
      <point x="103" y="401" type="curve" smooth="yes"/>
      <point x="87" y="401"/>
      <point x="72" y="388"/>
      <point x="72" y="372" type="curve" smooth="yes"/>
      <point x="72" y="21" type="line" smooth="yes"/>
      <point x="72" y="5"/>
      <point x="87" y="-8"/>
    </contour>
    <contour>
      <point x="196" y="405" type="move" name="top"/>
    </contour>
    <contour>
      <point x="104" y="-8" type="move" name="bottom"/>
    </contour>
  </outline>
</glyph>
<glyph name="s" format="1">
  <advance width="453"/>
  <unicode hex="0073"/>
  <outline>
    <contour>
      <point x="235" y="-12" type="curve" smooth="yes"/>
      <point x="371" y="-12"/>
      <point x="408" y="51"/>
      <point x="408" y="110" type="curve" smooth="yes"/>
      <point x="408" y="165"/>
      <point x="372" y="221"/>
      <point x="265" y="232" type="curve" smooth="yes"/>
      <point x="223" y="237" type="line" smooth="yes"/>
      <point x="161" y="242"/>
      <point x="125" y="260"/>
      <point x="125" y="289" type="curve" smooth="yes"/>
      <point x="125" y="322"/>
      <point x="163" y="347"/>
      <point x="228" y="347" type="curve" smooth="yes"/>
      <point x="269" y="347"/>
      <point x="306" y="340"/>
      <point x="336" y="332" type="curve" smooth="yes"/>
      <point x="351" y="329"/>
      <point x="368" y="338"/>
      <point x="371" y="353" type="curve" smooth="yes"/>
      <point x="375" y="367"/>
      <point x="365" y="383"/>
      <point x="350" y="387" type="curve" smooth="yes"/>
      <point x="317" y="396"/>
      <point x="275" y="404"/>
      <point x="228" y="404" type="curve" smooth="yes"/>
      <point x="99" y="404"/>
      <point x="63" y="341"/>
      <point x="63" y="289" type="curve" smooth="yes"/>
      <point x="63" y="242"/>
      <point x="89" y="192"/>
      <point x="217" y="180" type="curve" smooth="yes"/>
      <point x="259" y="175" type="line" smooth="yes"/>
      <point x="316" y="170"/>
      <point x="346" y="144"/>
      <point x="346" y="110" type="curve" smooth="yes"/>
      <point x="346" y="72"/>
      <point x="307" y="45"/>
      <point x="235" y="45" type="curve" smooth="yes"/>
      <point x="189" y="45"/>
      <point x="142" y="54"/>
      <point x="100" y="72" type="curve" smooth="yes"/>
      <point x="85" y="78"/>
      <point x="67" y="72"/>
      <point x="61" y="57" type="curve" smooth="yes"/>
      <point x="54" y="43"/>
      <point x="62" y="26"/>
      <point x="76" y="20" type="curve" smooth="yes"/>
      <point x="126" y="-1"/>
      <point x="181" y="-12"/>
    </contour>
    <contour>
      <point x="227" y="402" type="move" name="top"/>
    </contour>
    <contour>
      <point x="231" y="-10" type="move" name="bottom"/>
    </contour>
  </outline>
</glyph>
<glyph name="t" format="1">
  <advance width="346"/>
  <unicode hex="0074"/>
  <outline>
    <contour>
      <point x="280" y="-11" type="curve" smooth="yes"/>
      <point x="295" y="-11"/>
      <point x="309" y="2"/>
      <point x="309" y="18" type="curve" smooth="yes"/>
      <point x="309" y="32"/>
      <point x="296" y="46"/>
      <point x="280" y="46" type="curve" smooth="yes"/>
      <point x="200" y="47"/>
      <point x="159" y="77"/>
      <point x="159" y="138" type="curve" smooth="yes"/>
      <point x="159" y="498" type="line" smooth="yes"/>
      <point x="159" y="514"/>
      <point x="144" y="527"/>
      <point x="128" y="527" type="curve" smooth="yes"/>
      <point x="112" y="527"/>
      <point x="97" y="514"/>
      <point x="97" y="498" type="curve" smooth="yes"/>
      <point x="97" y="138" type="line" smooth="yes"/>
      <point x="97" y="46"/>
      <point x="148" y="-8"/>
    </contour>
    <contour>
      <point x="294" y="340" type="line" smooth="yes"/>
      <point x="310" y="340"/>
      <point x="323" y="353"/>
      <point x="323" y="368" type="curve" smooth="yes"/>
      <point x="323" y="384"/>
      <point x="310" y="397"/>
      <point x="294" y="397" type="curve" smooth="yes"/>
      <point x="35" y="397" type="line" smooth="yes"/>
      <point x="19" y="397"/>
      <point x="6" y="384"/>
      <point x="6" y="368" type="curve" smooth="yes"/>
      <point x="6" y="353"/>
      <point x="19" y="340"/>
      <point x="35" y="340" type="curve" smooth="yes"/>
    </contour>
    <contour>
      <point x="170" y="-6" type="move" name="bottom"/>
    </contour>
  </outline>
</glyph>
<glyph name="y" format="1">
  <advance width="447"/>
  <unicode hex="0079"/>
  <outline>
    <contour>
      <point x="68" y="-178" type="curve" smooth="yes"/>
      <point x="138" y="-139"/>
      <point x="202" y="-92"/>
      <point x="264" y="12" type="curve" smooth="yes"/>
      <point x="321" y="105"/>
      <point x="386" y="250"/>
      <point x="421" y="367" type="curve" smooth="yes"/>
      <point x="426" y="383"/>
      <point x="415" y="399"/>
      <point x="400" y="403" type="curve" smooth="yes"/>
      <point x="385" y="408"/>
      <point x="367" y="399"/>
      <point x="362" y="385" type="curve" smooth="yes"/>
      <point x="328" y="271"/>
      <point x="267" y="132"/>
      <point x="212" y="42" type="curve" smooth="yes"/>
      <point x="156" y="-51"/>
      <point x="100" y="-93"/>
      <point x="38" y="-129" type="curve" smooth="yes"/>
      <point x="25" y="-137"/>
      <point x="19" y="-154"/>
      <point x="28" y="-167" type="curve" smooth="yes"/>
      <point x="36" y="-181"/>
      <point x="54" y="-186"/>
    </contour>
    <contour>
      <point x="251" y="3" type="curve" smooth="yes"/>
      <point x="264" y="11"/>
      <point x="269" y="29"/>
      <point x="260" y="43" type="curve" smooth="yes"/>
      <point x="207" y="122"/>
      <point x="140" y="233"/>
      <point x="84" y="388" type="curve" smooth="yes"/>
      <point x="78" y="401"/>
      <point x="60" y="409"/>
      <point x="45" y="404" type="curve" smooth="yes"/>
      <point x="30" y="399"/>
      <point x="21" y="382"/>
      <point x="26" y="367" type="curve" smooth="yes"/>
      <point x="84" y="207"/>
      <point x="155" y="93"/>
      <point x="209" y="11" type="curve" smooth="yes"/>
      <point x="218" y="-2"/>
      <point x="238" y="-6"/>
    </contour>
    <contour>
      <point x="222" y="378" type="move" name="top"/>
    </contour>
  </outline>
</glyph>
<glyph name="braceleft" format="1">
  <advance width="407"/>
  <unicode hex="007B"/>
  <outline>
    <contour>
      <point x="313" y="-113" type="line" smooth="yes"/>
      <point x="329" y="-113"/>
      <point x="342" y="-100"/>
      <point x="342" y="-85" type="curve" smooth="yes"/>
      <point x="342" y="-69"/>
      <point x="329" y="-57"/>
      <point x="313" y="-57" type="curve" smooth="yes"/>
      <point x="292" y="-57" type="line" smooth="yes"/>
      <point x="215" y="-57"/>
      <point x="157" y="-21"/>
      <point x="157" y="25" type="curve" smooth="yes"/>
      <point x="157" y="93"/>
      <point x="227" y="128"/>
      <point x="227" y="188" type="curve" smooth="yes"/>
      <point x="227" y="234"/>
      <point x="192" y="274"/>
      <point x="93" y="289" type="curve"/>
      <point x="120" y="261" type="line"/>
      <point x="120" y="267" type="line"/>
      <point x="93" y="239" type="line"/>
      <point x="192" y="254"/>
      <point x="227" y="294"/>
      <point x="227" y="340" type="curve" smooth="yes"/>
      <point x="227" y="400"/>
      <point x="157" y="435"/>
      <point x="157" y="502" type="curve" smooth="yes"/>
      <point x="157" y="550"/>
      <point x="215" y="585"/>
      <point x="292" y="585" type="curve" smooth="yes"/>
      <point x="313" y="585" type="line" smooth="yes"/>
      <point x="329" y="585"/>
      <point x="342" y="597"/>
      <point x="342" y="613" type="curve" smooth="yes"/>
      <point x="342" y="628"/>
      <point x="329" y="641"/>
      <point x="313" y="641" type="curve" smooth="yes"/>
      <point x="292" y="641" type="line" smooth="yes"/>
      <point x="162" y="641"/>
      <point x="95" y="571"/>
      <point x="95" y="502" type="curve" smooth="yes"/>
      <point x="95" y="435"/>
      <point x="165" y="400"/>
      <point x="165" y="340" type="curve" smooth="yes"/>
      <point x="165" y="312"/>
      <point x="128" y="302"/>
      <point x="84" y="295" type="curve" smooth="yes"/>
      <point x="70" y="293"/>
      <point x="58" y="280"/>
      <point x="58" y="267" type="curve" smooth="yes"/>
      <point x="58" y="261" type="line" smooth="yes"/>
      <point x="58" y="248"/>
      <point x="70" y="235"/>
      <point x="84" y="233" type="curve" smooth="yes"/>
      <point x="128" y="227"/>
      <point x="165" y="215"/>
      <point x="165" y="188" type="curve" smooth="yes"/>
      <point x="165" y="128"/>
      <point x="95" y="93"/>
      <point x="95" y="25" type="curve" smooth="yes"/>
      <point x="95" y="-42"/>
      <point x="162" y="-113"/>
      <point x="292" y="-113" type="curve" smooth="yes"/>
    </contour>
  </outline>
</glyph>
<glyph name="bar" format="1">
  <advance width="289"/>
  <unicode hex="007C"/>
  <outline>
    <contour>
      <point x="145" y="-114" type="curve" smooth="yes"/>
      <point x="161" y="-114"/>
      <point x="176" y="-101"/>
      <point x="176" y="-86" type="curve" smooth="yes"/>
      <point x="176" y="614" type="line" smooth="yes"/>
      <point x="176" y="629"/>
      <point x="161" y="642"/>
      <point x="145" y="642" type="curve" smooth="yes"/>
      <point x="129" y="642"/>
      <point x="114" y="629"/>
      <point x="114" y="614" type="curve" smooth="yes"/>
      <point x="114" y="-86" type="line" smooth="yes"/>
      <point x="114" y="-101"/>
      <point x="129" y="-114"/>
    </contour>
  </outline>
</glyph>
<glyph name="braceright" format="1">
  <advance width="407"/>
  <unicode hex="007D"/>
  <outline>
    <contour>
      <point x="115" y="-113" type="line" smooth="yes"/>
      <point x="244" y="-113"/>
      <point x="312" y="-42"/>
      <point x="312" y="25" type="curve" smooth="yes"/>
      <point x="312" y="93"/>
      <point x="242" y="128"/>
      <point x="242" y="188" type="curve" smooth="yes"/>
      <point x="242" y="215"/>
      <point x="278" y="227"/>
      <point x="322" y="233" type="curve" smooth="yes"/>
      <point x="337" y="235"/>
      <point x="349" y="248"/>
      <point x="349" y="261" type="curve" smooth="yes"/>
      <point x="349" y="267" type="line" smooth="yes"/>
      <point x="349" y="280"/>
      <point x="337" y="293"/>
      <point x="322" y="295" type="curve" smooth="yes"/>
      <point x="278" y="302"/>
      <point x="242" y="312"/>
      <point x="242" y="340" type="curve" smooth="yes"/>
      <point x="242" y="400"/>
      <point x="312" y="435"/>
      <point x="312" y="502" type="curve" smooth="yes"/>
      <point x="312" y="571"/>
      <point x="244" y="641"/>
      <point x="115" y="641" type="curve" smooth="yes"/>
      <point x="94" y="641" type="line" smooth="yes"/>
      <point x="78" y="641"/>
      <point x="65" y="628"/>
      <point x="65" y="613" type="curve" smooth="yes"/>
      <point x="65" y="597"/>
      <point x="78" y="585"/>
      <point x="94" y="585" type="curve" smooth="yes"/>
      <point x="115" y="585" type="line" smooth="yes"/>
      <point x="191" y="585"/>
      <point x="250" y="550"/>
      <point x="250" y="502" type="curve" smooth="yes"/>
      <point x="250" y="435"/>
      <point x="180" y="400"/>
      <point x="180" y="340" type="curve" smooth="yes"/>
      <point x="180" y="294"/>
      <point x="214" y="254"/>
      <point x="313" y="239" type="curve"/>
      <point x="287" y="267" type="line"/>
      <point x="287" y="261" type="line"/>
      <point x="313" y="289" type="line"/>
      <point x="214" y="274"/>
      <point x="180" y="234"/>
      <point x="180" y="188" type="curve" smooth="yes"/>
      <point x="180" y="128"/>
      <point x="250" y="93"/>
      <point x="250" y="25" type="curve" smooth="yes"/>
      <point x="250" y="-21"/>
      <point x="191" y="-57"/>
      <point x="115" y="-57" type="curve" smooth="yes"/>
      <point x="94" y="-57" type="line" smooth="yes"/>
      <point x="78" y="-57"/>
      <point x="65" y="-69"/>
      <point x="65" y="-85" type="curve" smooth="yes"/>
      <point x="65" y="-100"/>
      <point x="78" y="-113"/>
      <point x="94" y="-113" type="curve" smooth="yes"/>
    </contour>
  </outline>
</glyph>
<glyph name="exclamdown" format="1">
  <advance width="317"/>
  <unicode hex="00A1"/>
  <outline>
    <contour>
      <point x="164" y="-23" type="curve" smooth="yes"/>
      <point x="180" y="-22"/>
      <point x="196" y="-8"/>
      <point x="195" y="6" type="curve" smooth="yes"/>
      <point x="188" y="292" type="line" smooth="yes"/>
      <point x="188" y="307"/>
      <point x="172" y="320"/>
      <point x="157" y="320" type="curve" smooth="yes"/>
      <point x="141" y="319"/>
      <point x="125" y="306"/>
      <point x="126" y="291" type="curve" smooth="yes"/>
      <point x="133" y="6" type="line" smooth="yes"/>
      <point x="133" y="-10"/>
      <point x="149" y="-23"/>
    </contour>
    <contour>
      <point x="157" y="457" type="curve" smooth="yes"/>
      <point x="186" y="457"/>
      <point x="210" y="480"/>
      <point x="210" y="515" type="curve" smooth="yes"/>
      <point x="210" y="558"/>
      <point x="188" y="573"/>
      <point x="158" y="573" type="curve" smooth="yes"/>
      <point x="134" y="573"/>
      <point x="105" y="557"/>
      <point x="105" y="515" type="curve" smooth="yes"/>
      <point x="105" y="479"/>
      <point x="126" y="457"/>
    </contour>
  </outline>
</glyph>
<glyph name="cent" format="1">
  <advance width="429"/>
  <unicode hex="00A2"/>
  <outline>
    <contour>
      <point x="259" y="69" type="curve" smooth="yes"/>
      <point x="306" y="69"/>
      <point x="344" y="77"/>
      <point x="376" y="89" type="curve" smooth="yes"/>
      <point x="391" y="94"/>
      <point x="399" y="111"/>
      <point x="393" y="125" type="curve" smooth="yes"/>
      <point x="388" y="140"/>
      <point x="370" y="148"/>
      <point x="355" y="142" type="curve" smooth="yes"/>
      <point x="330" y="132"/>
      <point x="298" y="125"/>
      <point x="259" y="125" type="curve" smooth="yes"/>
      <point x="156" y="125"/>
      <point x="96" y="180"/>
      <point x="96" y="256" type="curve" smooth="yes"/>
      <point x="96" y="340"/>
      <point x="156" y="403"/>
      <point x="260" y="403" type="curve" smooth="yes"/>
      <point x="287" y="403"/>
      <point x="319" y="397"/>
      <point x="344" y="390" type="curve" smooth="yes"/>
      <point x="359" y="385"/>
      <point x="376" y="394"/>
      <point x="381" y="408" type="curve" smooth="yes"/>
      <point x="385" y="422"/>
      <point x="377" y="439"/>
      <point x="362" y="443" type="curve" smooth="yes"/>
      <point x="331" y="453"/>
      <point x="293" y="459"/>
      <point x="260" y="459" type="curve" smooth="yes"/>
      <point x="116" y="459"/>
      <point x="34" y="373"/>
      <point x="34" y="256" type="curve" smooth="yes"/>
      <point x="34" y="152"/>
      <point x="112" y="69"/>
    </contour>
    <contour>
      <point x="238" y="-11" type="curve" smooth="yes"/>
      <point x="254" y="-11"/>
      <point x="269" y="2"/>
      <point x="269" y="18" type="curve" smooth="yes"/>
      <point x="269" y="514" type="line" smooth="yes"/>
      <point x="269" y="530"/>
      <point x="254" y="542"/>
      <point x="238" y="542" type="curve" smooth="yes"/>
      <point x="222" y="542"/>
      <point x="207" y="530"/>
      <point x="207" y="514" type="curve" smooth="yes"/>
      <point x="207" y="18" type="line" smooth="yes"/>
      <point x="207" y="2"/>
      <point x="222" y="-11"/>
    </contour>
  </outline>
</glyph>
<glyph name="sterling" format="1">
  <advance width="453"/>
  <unicode hex="00A3"/>
  <outline>
    <contour>
      <point x="157" y="77" type="line" smooth="yes"/>
      <point x="195" y="110"/>
      <point x="221" y="153"/>
      <point x="221" y="189" type="curve" smooth="yes"/>
      <point x="221" y="221"/>
      <point x="202" y="262"/>
      <point x="171" y="297" type="curve" smooth="yes"/>
      <point x="137" y="336"/>
      <point x="115" y="366"/>
      <point x="115" y="409" type="curve" smooth="yes"/>
      <point x="115" y="453"/>
      <point x="150" y="495"/>
      <point x="212" y="495" type="curve" smooth="yes"/>
      <point x="254" y="495"/>
      <point x="292" y="483"/>
      <point x="325" y="463" type="curve" smooth="yes"/>
      <point x="339" y="455"/>
      <point x="357" y="460"/>
      <point x="366" y="472" type="curve" smooth="yes"/>
      <point x="374" y="486"/>
      <point x="370" y="503"/>
      <point x="357" y="512" type="curve" smooth="yes"/>
      <point x="315" y="537"/>
      <point x="266" y="552"/>
      <point x="212" y="552" type="curve" smooth="yes"/>
      <point x="108" y="552"/>
      <point x="53" y="481"/>
      <point x="53" y="409" type="curve" smooth="yes"/>
      <point x="53" y="352"/>
      <point x="81" y="313"/>
      <point x="127" y="259" type="curve" smooth="yes"/>
      <point x="146" y="236"/>
      <point x="159" y="209"/>
      <point x="159" y="189" type="curve" smooth="yes"/>
      <point x="159" y="166"/>
      <point x="141" y="141"/>
      <point x="117" y="120" type="curve" smooth="yes"/>
      <point x="36" y="47" type="line" smooth="yes"/>
      <point x="24" y="37"/>
      <point x="23" y="19"/>
      <point x="34" y="7" type="curve" smooth="yes"/>
      <point x="45" y="-3"/>
      <point x="65" y="-5"/>
      <point x="76" y="5" type="curve" smooth="yes"/>
    </contour>
    <contour>
      <point x="376" y="-11" type="line" smooth="yes"/>
      <point x="392" y="-11"/>
      <point x="405" y="2"/>
      <point x="405" y="18" type="curve" smooth="yes"/>
      <point x="405" y="33"/>
      <point x="392" y="46"/>
      <point x="376" y="46" type="curve" smooth="yes"/>
      <point x="46" y="46" type="line" smooth="yes"/>
      <point x="30" y="46"/>
      <point x="17" y="33"/>
      <point x="17" y="18" type="curve" smooth="yes"/>
      <point x="17" y="2"/>
      <point x="30" y="-11"/>
      <point x="46" y="-11" type="curve" smooth="yes"/>
    </contour>
    <contour>
      <point x="366" y="220" type="line" smooth="yes"/>
      <point x="382" y="220"/>
      <point x="395" y="233"/>
      <point x="395" y="249" type="curve" smooth="yes"/>
      <point x="395" y="264"/>
      <point x="382" y="277"/>
      <point x="366" y="277" type="curve" smooth="yes"/>
      <point x="52" y="277" type="line" smooth="yes"/>
      <point x="36" y="277"/>
      <point x="23" y="264"/>
      <point x="23" y="249" type="curve" smooth="yes"/>
      <point x="23" y="233"/>
      <point x="36" y="220"/>
      <point x="52" y="220" type="curve" smooth="yes"/>
    </contour>
  </outline>
</glyph>
<glyph name="currency" format="1">
  <advance width="521"/>
  <unicode hex="00A4"/>
  <outline>
    <contour>
      <point x="260" y="38" type="curve" smooth="yes"/>
      <point x="379" y="38"/>
      <point x="457" y="118"/>
      <point x="457" y="224" type="curve" smooth="yes"/>
      <point x="457" y="333"/>
      <point x="379" y="420"/>
      <point x="260" y="420" type="curve" smooth="yes"/>
      <point x="139" y="420"/>
      <point x="63" y="332"/>
      <point x="63" y="226" type="curve" smooth="yes"/>
      <point x="63" y="119"/>
      <point x="141" y="38"/>
    </contour>
    <contour>
      <point x="49" y="0" type="curve" smooth="yes"/>
      <point x="60" y="-11"/>
      <point x="80" y="-10"/>
      <point x="90" y="1" type="curve" smooth="yes"/>
      <point x="161" y="79" type="line" smooth="yes"/>
      <point x="171" y="90"/>
      <point x="170" y="109"/>
      <point x="158" y="119" type="curve" smooth="yes"/>
      <point x="147" y="129"/>
      <point x="127" y="128"/>
      <point x="117" y="116" type="curve" smooth="yes"/>
      <point x="46" y="40" type="line" smooth="yes"/>
      <point x="35" y="28"/>
      <point x="37" y="9"/>
    </contour>
    <contour>
      <point x="472" y="0" type="curve" smooth="yes"/>
      <point x="484" y="9"/>
      <point x="485" y="28"/>
      <point x="475" y="40" type="curve" smooth="yes"/>
      <point x="401" y="119" type="line" smooth="yes"/>
      <point x="391" y="131"/>
      <point x="371" y="132"/>
      <point x="360" y="122" type="curve" smooth="yes"/>
      <point x="348" y="112"/>
      <point x="346" y="93"/>
      <point x="357" y="82" type="curve" smooth="yes"/>
      <point x="431" y="1" type="line" smooth="yes"/>
      <point x="441" y="-10"/>
      <point x="461" y="-11"/>
    </contour>
    <contour>
      <point x="260" y="94" type="curve" smooth="yes"/>
      <point x="177" y="94"/>
      <point x="125" y="152"/>
      <point x="125" y="226" type="curve" smooth="yes"/>
      <point x="125" y="299"/>
      <point x="175" y="364"/>
      <point x="260" y="364" type="curve" smooth="yes"/>
      <point x="345" y="364"/>
      <point x="395" y="299"/>
      <point x="395" y="224" type="curve" smooth="yes"/>
      <point x="395" y="151"/>
      <point x="343" y="94"/>
    </contour>
    <contour>
      <point x="161" y="333" type="curve" smooth="yes"/>
      <point x="172" y="343"/>
      <point x="173" y="362"/>
      <point x="163" y="373" type="curve" smooth="yes"/>
      <point x="95" y="446" type="line" smooth="yes"/>
      <point x="84" y="458"/>
      <point x="65" y="459"/>
      <point x="53" y="448" type="curve" smooth="yes"/>
      <point x="42" y="438"/>
      <point x="40" y="419"/>
      <point x="51" y="408" type="curve" smooth="yes"/>
      <point x="119" y="335" type="line" smooth="yes"/>
      <point x="129" y="324"/>
      <point x="149" y="323"/>
    </contour>
    <contour>
      <point x="360" y="334" type="curve" smooth="yes"/>
      <point x="371" y="324"/>
      <point x="391" y="325"/>
      <point x="401" y="336" type="curve" smooth="yes"/>
      <point x="469" y="410" type="line" smooth="yes"/>
      <point x="479" y="422"/>
      <point x="478" y="440"/>
      <point x="466" y="450" type="curve" smooth="yes"/>
      <point x="455" y="461"/>
      <point x="435" y="460"/>
      <point x="425" y="448" type="curve" smooth="yes"/>
      <point x="357" y="374" type="line" smooth="yes"/>
      <point x="346" y="362"/>
      <point x="348" y="344"/>
    </contour>
  </outline>
</glyph>
<glyph name="brokenbar" format="1">
  <advance width="289"/>
  <unicode hex="00A6"/>
  <outline>
    <contour>
      <point x="145" y="283" type="curve" smooth="yes"/>
      <point x="161" y="283"/>
      <point x="176" y="296"/>
      <point x="176" y="312" type="curve" smooth="yes"/>
      <point x="176" y="545" type="line" smooth="yes"/>
      <point x="176" y="560"/>
      <point x="161" y="573"/>
      <point x="145" y="573" type="curve" smooth="yes"/>
      <point x="129" y="573"/>
      <point x="114" y="560"/>
      <point x="114" y="545" type="curve" smooth="yes"/>
      <point x="114" y="312" type="line" smooth="yes"/>
      <point x="114" y="296"/>
      <point x="129" y="283"/>
    </contour>
    <contour>
      <point x="145" y="-112" type="curve" smooth="yes"/>
      <point x="161" y="-112"/>
      <point x="176" y="-99"/>
      <point x="176" y="-84" type="curve" smooth="yes"/>
      <point x="176" y="149" type="line" smooth="yes"/>
      <point x="176" y="164"/>
      <point x="161" y="177"/>
      <point x="145" y="177" type="curve" smooth="yes"/>
      <point x="129" y="177"/>
      <point x="114" y="164"/>
      <point x="114" y="149" type="curve" smooth="yes"/>
      <point x="114" y="-84" type="line" smooth="yes"/>
      <point x="114" y="-99"/>
      <point x="129" y="-112"/>
    </contour>
  </outline>
</glyph>
<glyph name="section" format="1">
  <advance width="525"/>
  <unicode hex="00A7"/>
  <outline>
    <contour>
      <point x="253" y="-133" type="curve" smooth="yes"/>
      <point x="404" y="-133"/>
      <point x="456" y="-67"/>
      <point x="456" y="-2" type="curve" smooth="yes"/>
      <point x="456" y="62"/>
      <point x="421" y="106"/>
      <point x="258" y="133" type="curve" smooth="yes"/>
      <point x="151" y="150"/>
      <point x="120" y="185"/>
      <point x="120" y="224" type="curve" smooth="yes"/>
      <point x="120" y="273"/>
      <point x="167" y="298"/>
      <point x="232" y="298" type="curve" smooth="yes"/>
      <point x="248" y="298"/>
      <point x="261" y="311"/>
      <point x="261" y="326" type="curve" smooth="yes"/>
      <point x="261" y="342"/>
      <point x="248" y="355"/>
      <point x="232" y="355" type="curve" smooth="yes"/>
      <point x="117" y="355"/>
      <point x="58" y="300"/>
      <point x="58" y="224" type="curve" smooth="yes"/>
      <point x="58" y="170"/>
      <point x="75" y="105"/>
      <point x="249" y="77" type="curve" smooth="yes"/>
      <point x="343" y="61"/>
      <point x="394" y="44"/>
      <point x="394" y="-2" type="curve" smooth="yes"/>
      <point x="394" y="-47"/>
      <point x="339" y="-77"/>
      <point x="253" y="-77" type="curve" smooth="yes"/>
      <point x="194" y="-77"/>
      <point x="139" y="-67"/>
      <point x="87" y="-45" type="curve" smooth="yes"/>
      <point x="73" y="-38"/>
      <point x="55" y="-45"/>
      <point x="48" y="-59" type="curve" smooth="yes"/>
      <point x="41" y="-73"/>
      <point x="48" y="-90"/>
      <point x="63" y="-96" type="curve" smooth="yes"/>
      <point x="121" y="-122"/>
      <point x="186" y="-133"/>
    </contour>
    <contour>
      <point x="263" y="76" type="curve" smooth="yes"/>
      <point x="418" y="76"/>
      <point x="466" y="138"/>
      <point x="466" y="203" type="curve" smooth="yes"/>
      <point x="466" y="266"/>
      <point x="427" y="322"/>
      <point x="268" y="354" type="curve" smooth="yes"/>
      <point x="164" y="369"/>
      <point x="130" y="401"/>
      <point x="130" y="436" type="curve" smooth="yes"/>
      <point x="130" y="471"/>
      <point x="182" y="495"/>
      <point x="242" y="495" type="curve" smooth="yes"/>
      <point x="311" y="495"/>
      <point x="344" y="487"/>
      <point x="391" y="473" type="curve" smooth="yes"/>
      <point x="406" y="468"/>
      <point x="423" y="476"/>
      <point x="428" y="491" type="curve" smooth="yes"/>
      <point x="432" y="505"/>
      <point x="424" y="522"/>
      <point x="409" y="526" type="curve" smooth="yes"/>
      <point x="356" y="543"/>
      <point x="319" y="552"/>
      <point x="242" y="552" type="curve" smooth="yes"/>
      <point x="124" y="552"/>
      <point x="68" y="490"/>
      <point x="68" y="436" type="curve" smooth="yes"/>
      <point x="68" y="386"/>
      <point x="84" y="324"/>
      <point x="259" y="297" type="curve" smooth="yes"/>
      <point x="357" y="278"/>
      <point x="404" y="248"/>
      <point x="404" y="203" type="curve" smooth="yes"/>
      <point x="404" y="159"/>
      <point x="348" y="133"/>
      <point x="263" y="133" type="curve" smooth="yes"/>
      <point x="247" y="133"/>
      <point x="234" y="120"/>
      <point x="234" y="105" type="curve" smooth="yes"/>
      <point x="234" y="89"/>
      <point x="247" y="76"/>
    </contour>
  </outline>
</glyph>
<glyph name="ordfeminine" format="1">
  <advance width="440"/>
  <unicode hex="00AA"/>
  <outline>
    <contour>
      <point x="347" y="255" type="curve" smooth="yes"/>
      <point x="359" y="265"/>
      <point x="360" y="283"/>
      <point x="350" y="294" type="curve" smooth="yes"/>
      <point x="337" y="309"/>
      <point x="332" y="326"/>
      <point x="332" y="354" type="curve" smooth="yes"/>
      <point x="332" y="415" type="line" smooth="yes"/>
      <point x="332" y="489"/>
      <point x="293" y="539"/>
      <point x="206" y="539" type="curve" smooth="yes"/>
      <point x="179" y="539"/>
      <point x="149" y="532"/>
      <point x="131" y="526" type="curve" smooth="yes"/>
      <point x="117" y="522"/>
      <point x="108" y="505"/>
      <point x="112" y="491" type="curve" smooth="yes"/>
      <point x="117" y="477"/>
      <point x="134" y="468"/>
      <point x="149" y="473" type="curve" smooth="yes"/>
      <point x="163" y="477"/>
      <point x="185" y="483"/>
      <point x="206" y="483" type="curve" smooth="yes"/>
      <point x="253" y="483"/>
      <point x="274" y="453"/>
      <point x="274" y="415" type="curve" smooth="yes"/>
      <point x="274" y="354" type="line" smooth="yes"/>
      <point x="274" y="307"/>
      <point x="285" y="280"/>
      <point x="306" y="257" type="curve" smooth="yes"/>
      <point x="316" y="246"/>
      <point x="335" y="244"/>
    </contour>
    <contour>
      <point x="361" y="131" type="line" smooth="yes"/>
      <point x="377" y="131"/>
      <point x="390" y="143"/>
      <point x="390" y="158" type="curve" smooth="yes"/>
      <point x="390" y="174"/>
      <point x="377" y="186"/>
      <point x="361" y="186" type="curve" smooth="yes"/>
      <point x="90" y="186" type="line" smooth="yes"/>
      <point x="74" y="186"/>
      <point x="61" y="174"/>
      <point x="61" y="158" type="curve" smooth="yes"/>
      <point x="61" y="143"/>
      <point x="74" y="131"/>
      <point x="90" y="131" type="curve" smooth="yes"/>
    </contour>
    <contour>
      <point x="175" y="248" type="curve" smooth="yes"/>
      <point x="239" y="248"/>
      <point x="285" y="271"/>
      <point x="326" y="325" type="curve" smooth="yes"/>
      <point x="335" y="337"/>
      <point x="333" y="355"/>
      <point x="320" y="363" type="curve" smooth="yes"/>
      <point x="307" y="372"/>
      <point x="290" y="370"/>
      <point x="281" y="358" type="curve" smooth="yes"/>
      <point x="252" y="320"/>
      <point x="219" y="304"/>
      <point x="175" y="304" type="curve" smooth="yes"/>
      <point x="149" y="304"/>
      <point x="136" y="318"/>
      <point x="136" y="333" type="curve" smooth="yes"/>
      <point x="136" y="343"/>
      <point x="138" y="351"/>
      <point x="147" y="360" type="curve" smooth="yes"/>
      <point x="164" y="374"/>
      <point x="192" y="384"/>
      <point x="235" y="384" type="curve" smooth="yes"/>
      <point x="256" y="384"/>
      <point x="276" y="382"/>
      <point x="300" y="381" type="curve" smooth="yes"/>
      <point x="315" y="381"/>
      <point x="329" y="392"/>
      <point x="330" y="407" type="curve" smooth="yes"/>
      <point x="330" y="422"/>
      <point x="318" y="434"/>
      <point x="302" y="434" type="curve" smooth="yes"/>
      <point x="278" y="435"/>
      <point x="256" y="437"/>
      <point x="235" y="437" type="curve" smooth="yes"/>
      <point x="172" y="437"/>
      <point x="134" y="422"/>
      <point x="107" y="398" type="curve" smooth="yes"/>
      <point x="84" y="377"/>
      <point x="78" y="358"/>
      <point x="78" y="331" type="curve" smooth="yes"/>
      <point x="78" y="297"/>
      <point x="101" y="248"/>
    </contour>
  </outline>
</glyph>
<glyph name="guillemotleft" format="1">
  <advance width="434"/>
  <unicode hex="00AB"/>
  <outline>
    <contour>
      <point x="374" y="15" type="curve" smooth="yes"/>
      <point x="387" y="24"/>
      <point x="391" y="42"/>
      <point x="381" y="54" type="curve" smooth="yes"/>
      <point x="264" y="209" type="line" smooth="yes"/>
      <point x="255" y="221"/>
      <point x="235" y="224"/>
      <point x="223" y="214" type="curve" smooth="yes"/>
      <point x="210" y="206"/>
      <point x="206" y="187"/>
      <point x="216" y="174" type="curve" smooth="yes"/>
      <point x="333" y="20" type="line" smooth="yes"/>
      <point x="342" y="7"/>
      <point x="361" y="5"/>
    </contour>
    <contour>
      <point x="195" y="15" type="curve" smooth="yes"/>
      <point x="208" y="24"/>
      <point x="212" y="42"/>
      <point x="202" y="54" type="curve" smooth="yes"/>
      <point x="86" y="209" type="line" smooth="yes"/>
      <point x="77" y="221"/>
      <point x="57" y="224"/>
      <point x="45" y="214" type="curve" smooth="yes"/>
      <point x="32" y="206"/>
      <point x="28" y="187"/>
      <point x="38" y="174" type="curve" smooth="yes"/>
      <point x="154" y="20" type="line" smooth="yes"/>
      <point x="163" y="7"/>
      <point x="182" y="5"/>
    </contour>
    <contour>
      <point x="45" y="174" type="curve" smooth="yes"/>
      <point x="57" y="164"/>
      <point x="77" y="167"/>
      <point x="86" y="179" type="curve" smooth="yes"/>
      <point x="202" y="334" type="line" smooth="yes"/>
      <point x="212" y="346"/>
      <point x="208" y="365"/>
      <point x="195" y="373" type="curve" smooth="yes"/>
      <point x="182" y="383"/>
      <point x="163" y="380"/>
      <point x="154" y="368" type="curve" smooth="yes"/>
      <point x="38" y="214" type="line" smooth="yes"/>
      <point x="28" y="201"/>
      <point x="32" y="183"/>
    </contour>
    <contour>
      <point x="223" y="174" type="curve" smooth="yes"/>
      <point x="235" y="164"/>
      <point x="255" y="167"/>
      <point x="264" y="179" type="curve" smooth="yes"/>
      <point x="381" y="334" type="line" smooth="yes"/>
      <point x="391" y="346"/>
      <point x="387" y="365"/>
      <point x="374" y="373" type="curve" smooth="yes"/>
      <point x="361" y="383"/>
      <point x="342" y="380"/>
      <point x="333" y="368" type="curve" smooth="yes"/>
      <point x="216" y="214" type="line" smooth="yes"/>
      <point x="206" y="201"/>
      <point x="210" y="183"/>
    </contour>
  </outline>
</glyph>
<glyph name="degree" format="1">
  <advance width="436"/>
  <unicode hex="00B0"/>
  <outline>
    <contour>
      <point x="218" y="205" type="curve" smooth="yes"/>
      <point x="322" y="205"/>
      <point x="396" y="278"/>
      <point x="396" y="371" type="curve" smooth="yes"/>
      <point x="396" y="469"/>
      <point x="321" y="543"/>
      <point x="217" y="543" type="curve" smooth="yes"/>
      <point x="112" y="543"/>
      <point x="40" y="466"/>
      <point x="40" y="371" type="curve" smooth="yes"/>
      <point x="40" y="279"/>
      <point x="113" y="205"/>
    </contour>
    <contour>
      <point x="218" y="262" type="curve" smooth="yes"/>
      <point x="149" y="262"/>
      <point x="102" y="311"/>
      <point x="102" y="371" type="curve" smooth="yes"/>
      <point x="102" y="433"/>
      <point x="146" y="487"/>
      <point x="217" y="487" type="curve" smooth="yes"/>
      <point x="287" y="487"/>
      <point x="334" y="436"/>
      <point x="334" y="371" type="curve" smooth="yes"/>
      <point x="334" y="310"/>
      <point x="286" y="262"/>
    </contour>
  </outline>
</glyph>
<glyph name="twosuperior" format="1">
  <advance width="347"/>
  <unicode hex="00B2"/>
  <outline>
    <contour>
      <point x="196" y="323" type="line" smooth="yes"/>
      <point x="268" y="390"/>
      <point x="285" y="416"/>
      <point x="285" y="455" type="curve" smooth="yes"/>
      <point x="285" y="497"/>
      <point x="256" y="543"/>
      <point x="177" y="543" type="curve" smooth="yes"/>
      <point x="141" y="543"/>
      <point x="111" y="534"/>
      <point x="80" y="514" type="curve" smooth="yes"/>
      <point x="67" y="506"/>
      <point x="63" y="488"/>
      <point x="72" y="475" type="curve" smooth="yes"/>
      <point x="80" y="463"/>
      <point x="99" y="459"/>
      <point x="112" y="467" type="curve" smooth="yes"/>
      <point x="132" y="481"/>
      <point x="153" y="487"/>
      <point x="177" y="487" type="curve" smooth="yes"/>
      <point x="206" y="487"/>
      <point x="227" y="475"/>
      <point x="227" y="455" type="curve" smooth="yes"/>
      <point x="227" y="426"/>
      <point x="206" y="409"/>
      <point x="156" y="364" type="curve" smooth="yes"/>
      <point x="63" y="279" type="line" smooth="yes"/>
      <point x="52" y="268"/>
      <point x="51" y="250"/>
      <point x="62" y="239" type="curve" smooth="yes"/>
      <point x="72" y="228"/>
      <point x="91" y="228"/>
      <point x="103" y="237" type="curve" smooth="yes"/>
    </contour>
    <contour>
      <point x="276" y="225" type="line" smooth="yes"/>
      <point x="292" y="225"/>
      <point x="305" y="238"/>
      <point x="305" y="253" type="curve" smooth="yes"/>
      <point x="305" y="268"/>
      <point x="292" y="281"/>
      <point x="276" y="281" type="curve" smooth="yes"/>
      <point x="77" y="281" type="line" smooth="yes"/>
      <point x="61" y="281"/>
      <point x="48" y="268"/>
      <point x="48" y="253" type="curve" smooth="yes"/>
      <point x="48" y="238"/>
      <point x="61" y="225"/>
      <point x="77" y="225" type="curve" smooth="yes"/>
    </contour>
  </outline>
</glyph>
<glyph name="threesuperior" format="1">
  <advance width="375"/>
  <unicode hex="00B3"/>
  <outline>
    <contour>
      <point x="185" y="213" type="curve" smooth="yes"/>
      <point x="283" y="213"/>
      <point x="319" y="262"/>
      <point x="319" y="316" type="curve" smooth="yes"/>
      <point x="319" y="372"/>
      <point x="277" y="416"/>
      <point x="193" y="416" type="curve" smooth="yes"/>
      <point x="159" y="416"/>
      <point x="133" y="410"/>
      <point x="119" y="406" type="curve" smooth="yes"/>
      <point x="104" y="401"/>
      <point x="96" y="385"/>
      <point x="100" y="370" type="curve" smooth="yes"/>
      <point x="105" y="356"/>
      <point x="122" y="348"/>
      <point x="137" y="353" type="curve" smooth="yes"/>
      <point x="147" y="356"/>
      <point x="167" y="360"/>
      <point x="193" y="360" type="curve" smooth="yes"/>
      <point x="231" y="360"/>
      <point x="261" y="346"/>
      <point x="261" y="316" type="curve" smooth="yes"/>
      <point x="261" y="285"/>
      <point x="229" y="270"/>
      <point x="185" y="270" type="curve" smooth="yes"/>
      <point x="152" y="270"/>
      <point x="122" y="276"/>
      <point x="100" y="284" type="curve" smooth="yes"/>
      <point x="85" y="289"/>
      <point x="68" y="281"/>
      <point x="63" y="268" type="curve" smooth="yes"/>
      <point x="58" y="254"/>
      <point x="66" y="237"/>
      <point x="80" y="232" type="curve" smooth="yes"/>
      <point x="108" y="222"/>
      <point x="144" y="213"/>
    </contour>
    <contour>
      <point x="108" y="363" type="curve" smooth="yes"/>
      <point x="118" y="352"/>
      <point x="137" y="354"/>
      <point x="149" y="364" type="curve" smooth="yes"/>
      <point x="295" y="485" type="line" smooth="yes"/>
      <point x="307" y="494"/>
      <point x="308" y="512"/>
      <point x="298" y="523" type="curve" smooth="yes"/>
      <point x="287" y="535"/>
      <point x="269" y="532"/>
      <point x="257" y="522" type="curve" smooth="yes"/>
      <point x="111" y="402" type="line" smooth="yes"/>
      <point x="99" y="393"/>
      <point x="98" y="374"/>
    </contour>
    <contour>
      <point x="281" y="482" type="line" smooth="yes"/>
      <point x="297" y="482"/>
      <point x="310" y="495"/>
      <point x="310" y="510" type="curve" smooth="yes"/>
      <point x="310" y="525"/>
      <point x="297" y="538"/>
      <point x="281" y="538" type="curve" smooth="yes"/>
      <point x="100" y="538" type="line" smooth="yes"/>
      <point x="84" y="538"/>
      <point x="71" y="525"/>
      <point x="71" y="510" type="curve" smooth="yes"/>
      <point x="71" y="495"/>
      <point x="84" y="482"/>
      <point x="100" y="482" type="curve" smooth="yes"/>
    </contour>
  </outline>
</glyph>
<glyph name="uni00B5" format="1">
  <advance width="496"/>
  <unicode hex="00B5"/>
  <outline>
    <contour>
      <point x="210" y="-8" type="curve" smooth="yes"/>
      <point x="284" y="-8"/>
      <point x="363" y="47"/>
      <point x="413" y="114" type="curve" smooth="yes"/>
      <point x="423" y="127"/>
      <point x="419" y="146"/>
      <point x="406" y="154" type="curve" smooth="yes"/>
      <point x="393" y="164"/>
      <point x="374" y="160"/>
      <point x="365" y="148" type="curve" smooth="yes"/>
      <point x="327" y="96"/>
      <point x="268" y="49"/>
      <point x="210" y="49" type="curve" smooth="yes"/>
      <point x="155" y="49"/>
      <point x="123" y="87"/>
      <point x="123" y="167" type="curve" smooth="yes"/>
      <point x="123" y="372" type="line" smooth="yes"/>
      <point x="123" y="388"/>
      <point x="108" y="401"/>
      <point x="92" y="401" type="curve" smooth="yes"/>
      <point x="76" y="401"/>
      <point x="61" y="388"/>
      <point x="61" y="372" type="curve" smooth="yes"/>
      <point x="61" y="167" type="line" smooth="yes"/>
      <point x="61" y="31"/>
      <point x="129" y="-8"/>
    </contour>
    <contour>
      <point x="92" y="-151" type="curve" smooth="yes"/>
      <point x="108" y="-151"/>
      <point x="123" y="-139"/>
      <point x="123" y="-123" type="curve" smooth="yes"/>
      <point x="123" y="229" type="line" smooth="yes"/>
      <point x="123" y="244"/>
      <point x="108" y="257"/>
      <point x="92" y="257" type="curve" smooth="yes"/>
      <point x="76" y="257"/>
      <point x="61" y="244"/>
      <point x="61" y="229" type="curve" smooth="yes"/>
      <point x="61" y="-123" type="line" smooth="yes"/>
      <point x="61" y="-139"/>
      <point x="76" y="-151"/>
    </contour>
    <contour>
      <point x="393" y="-8" type="curve" smooth="yes"/>
      <point x="409" y="-8"/>
      <point x="424" y="5"/>
      <point x="424" y="21" type="curve" smooth="yes"/>
      <point x="424" y="372" type="line" smooth="yes"/>
      <point x="424" y="388"/>
      <point x="409" y="401"/>
      <point x="393" y="401" type="curve" smooth="yes"/>
      <point x="377" y="401"/>
      <point x="362" y="388"/>
      <point x="362" y="372" type="curve" smooth="yes"/>
      <point x="362" y="21" type="line" smooth="yes"/>
      <point x="362" y="5"/>
      <point x="377" y="-8"/>
    </contour>
  </outline>
</glyph>
<glyph name="periodcentered" format="1">
  <advance width="210"/>
  <unicode hex="00B7"/>
  <outline>
    <contour>
      <point x="107" y="163" type="curve" smooth="yes"/>
      <point x="135" y="163"/>
      <point x="159" y="176"/>
      <point x="159" y="220" type="curve" smooth="yes"/>
      <point x="159" y="255"/>
      <point x="134" y="278"/>
      <point x="106" y="278" type="curve" smooth="yes"/>
      <point x="74" y="278"/>
      <point x="54" y="256"/>
      <point x="54" y="220" type="curve" smooth="yes"/>
      <point x="54" y="178"/>
      <point x="81" y="163"/>
    </contour>
  </outline>
</glyph>
<glyph name="onesuperior" format="1">
  <advance width="218"/>
  <unicode hex="00B9"/>
  <outline>
    <contour>
      <point x="133" y="223" type="curve" smooth="yes"/>
      <point x="149" y="223"/>
      <point x="162" y="236"/>
      <point x="162" y="252" type="curve" smooth="yes"/>
      <point x="162" y="516" type="line" smooth="yes"/>
      <point x="162" y="531"/>
      <point x="149" y="544"/>
      <point x="133" y="544" type="curve" smooth="yes"/>
      <point x="117" y="544"/>
      <point x="104" y="531"/>
      <point x="104" y="516" type="curve" smooth="yes"/>
      <point x="104" y="252" type="line" smooth="yes"/>
      <point x="104" y="236"/>
      <point x="117" y="223"/>
    </contour>
    <contour>
      <point x="147" y="495" type="line" smooth="yes"/>
      <point x="160" y="503"/>
      <point x="166" y="520"/>
      <point x="159" y="534" type="curve" smooth="yes"/>
      <point x="151" y="547"/>
      <point x="133" y="552"/>
      <point x="119" y="545" type="curve" smooth="yes"/>
      <point x="33" y="499" type="line" smooth="yes"/>
      <point x="19" y="491"/>
      <point x="14" y="474"/>
      <point x="21" y="460" type="curve" smooth="yes"/>
      <point x="29" y="447"/>
      <point x="47" y="442"/>
      <point x="61" y="449" type="curve" smooth="yes"/>
    </contour>
  </outline>
</glyph>
<glyph name="ordmasculine" format="1">
  <advance width="434"/>
  <unicode hex="00BA"/>
  <outline>
    <contour>
      <point x="217" y="249" type="curve" smooth="yes"/>
      <point x="306" y="249"/>
      <point x="365" y="311"/>
      <point x="365" y="392" type="curve" smooth="yes"/>
      <point x="365" y="472"/>
      <point x="306" y="539"/>
      <point x="217" y="539" type="curve" smooth="yes"/>
      <point x="125" y="539"/>
      <point x="68" y="472"/>
      <point x="68" y="392" type="curve" smooth="yes"/>
      <point x="68" y="311"/>
      <point x="128" y="249"/>
    </contour>
    <contour>
      <point x="351" y="131" type="line" smooth="yes"/>
      <point x="367" y="131"/>
      <point x="380" y="143"/>
      <point x="380" y="158" type="curve" smooth="yes"/>
      <point x="380" y="174"/>
      <point x="367" y="186"/>
      <point x="351" y="186" type="curve" smooth="yes"/>
      <point x="90" y="186" type="line" smooth="yes"/>
      <point x="74" y="186"/>
      <point x="61" y="174"/>
      <point x="61" y="158" type="curve" smooth="yes"/>
      <point x="61" y="143"/>
      <point x="74" y="131"/>
      <point x="90" y="131" type="curve" smooth="yes"/>
    </contour>
    <contour>
      <point x="217" y="305" type="curve" smooth="yes"/>
      <point x="162" y="305"/>
      <point x="126" y="342"/>
      <point x="126" y="392" type="curve" smooth="yes"/>
      <point x="126" y="441"/>
      <point x="159" y="483"/>
      <point x="217" y="483" type="curve" smooth="yes"/>
      <point x="272" y="483"/>
      <point x="307" y="441"/>
      <point x="307" y="392" type="curve" smooth="yes"/>
      <point x="307" y="342"/>
      <point x="272" y="305"/>
    </contour>
  </outline>
</glyph>
<glyph name="guillemotright" format="1">
  <advance width="434"/>
  <unicode hex="00BB"/>
  <outline>
    <contour>
      <point x="60" y="15" type="curve" smooth="yes"/>
      <point x="72" y="5"/>
      <point x="92" y="7"/>
      <point x="101" y="20" type="curve" smooth="yes"/>
      <point x="218" y="174" type="line" smooth="yes"/>
      <point x="228" y="187"/>
      <point x="224" y="206"/>
      <point x="211" y="214" type="curve" smooth="yes"/>
      <point x="198" y="224"/>
      <point x="179" y="221"/>
      <point x="170" y="209" type="curve" smooth="yes"/>
      <point x="53" y="54" type="line" smooth="yes"/>
      <point x="43" y="42"/>
      <point x="47" y="24"/>
    </contour>
    <contour>
      <point x="211" y="174" type="curve" smooth="yes"/>
      <point x="224" y="183"/>
      <point x="228" y="201"/>
      <point x="218" y="214" type="curve" smooth="yes"/>
      <point x="101" y="368" type="line" smooth="yes"/>
      <point x="92" y="380"/>
      <point x="72" y="383"/>
      <point x="60" y="373" type="curve" smooth="yes"/>
      <point x="47" y="365"/>
      <point x="43" y="346"/>
      <point x="53" y="334" type="curve" smooth="yes"/>
      <point x="170" y="179" type="line" smooth="yes"/>
      <point x="179" y="167"/>
      <point x="198" y="164"/>
    </contour>
    <contour>
      <point x="239" y="15" type="curve" smooth="yes"/>
      <point x="251" y="5"/>
      <point x="271" y="7"/>
      <point x="280" y="20" type="curve" smooth="yes"/>
      <point x="396" y="174" type="line" smooth="yes"/>
      <point x="406" y="187"/>
      <point x="402" y="206"/>
      <point x="389" y="214" type="curve" smooth="yes"/>
      <point x="376" y="224"/>
      <point x="357" y="221"/>
      <point x="348" y="209" type="curve" smooth="yes"/>
      <point x="232" y="54" type="line" smooth="yes"/>
      <point x="222" y="42"/>
      <point x="226" y="24"/>
    </contour>
    <contour>
      <point x="389" y="174" type="curve" smooth="yes"/>
      <point x="402" y="183"/>
      <point x="406" y="201"/>
      <point x="396" y="214" type="curve" smooth="yes"/>
      <point x="280" y="368" type="line" smooth="yes"/>
      <point x="271" y="380"/>
      <point x="251" y="383"/>
      <point x="239" y="373" type="curve" smooth="yes"/>
      <point x="226" y="365"/>
      <point x="222" y="346"/>
      <point x="232" y="334" type="curve" smooth="yes"/>
      <point x="348" y="179" type="line" smooth="yes"/>
      <point x="357" y="167"/>
      <point x="376" y="164"/>
    </contour>
  </outline>
</glyph>
<glyph name="onequarter" format="1">
  <advance width="724"/>
  <unicode hex="00BC"/>
  <outline>
    <contour>
      <point x="191" y="-6" type="curve" smooth="yes"/>
      <point x="205" y="-14"/>
      <point x="223" y="-9"/>
      <point x="231" y="3" type="curve" smooth="yes"/>
      <point x="529" y="501" type="line" smooth="yes"/>
      <point x="537" y="514"/>
      <point x="532" y="532"/>
      <point x="519" y="539" type="curve" smooth="yes"/>
      <point x="505" y="547"/>
      <point x="487" y="542"/>
      <point x="479" y="529" type="curve" smooth="yes"/>
      <point x="181" y="32" type="line" smooth="yes"/>
      <point x="173" y="19"/>
      <point x="178" y="1"/>
    </contour>
    <contour>
      <point x="199" y="229" type="curve" smooth="yes"/>
      <point x="215" y="229"/>
      <point x="228" y="242"/>
      <point x="228" y="257" type="curve" smooth="yes"/>
      <point x="228" y="522" type="line" smooth="yes"/>
      <point x="228" y="537"/>
      <point x="215" y="550"/>
      <point x="199" y="550" type="curve" smooth="yes"/>
      <point x="183" y="550"/>
      <point x="170" y="537"/>
      <point x="170" y="522" type="curve" smooth="yes"/>
      <point x="170" y="257" type="line" smooth="yes"/>
      <point x="170" y="242"/>
      <point x="183" y="229"/>
    </contour>
    <contour>
      <point x="635" y="68" type="line" smooth="yes"/>
      <point x="650" y="68"/>
      <point x="663" y="79"/>
      <point x="663" y="94" type="curve" smooth="yes"/>
      <point x="663" y="110"/>
      <point x="650" y="121"/>
      <point x="635" y="121" type="curve" smooth="yes"/>
      <point x="409" y="121" type="line" smooth="yes"/>
      <point x="393" y="121"/>
      <point x="380" y="111"/>
      <point x="380" y="95" type="curve" smooth="yes"/>
      <point x="380" y="80"/>
      <point x="393" y="68"/>
      <point x="409" y="68" type="curve" smooth="yes"/>
    </contour>
    <contour>
      <point x="212" y="500" type="line" smooth="yes"/>
      <point x="226" y="507"/>
      <point x="232" y="525"/>
      <point x="225" y="538" type="curve" smooth="yes"/>
      <point x="217" y="551"/>
      <point x="199" y="557"/>
      <point x="186" y="550" type="curve" smooth="yes"/>
      <point x="100" y="505" type="line" smooth="yes"/>
      <point x="85" y="498"/>
      <point x="80" y="480"/>
      <point x="87" y="467" type="curve" smooth="yes"/>
      <point x="95" y="453"/>
      <point x="113" y="448"/>
      <point x="126" y="455" type="curve" smooth="yes"/>
    </contour>
    <contour>
      <point x="385" y="74" type="curve" smooth="yes"/>
      <point x="397" y="65"/>
      <point x="413" y="67"/>
      <point x="423" y="78" type="curve" smooth="yes"/>
      <point x="586" y="264" type="line" smooth="yes"/>
      <point x="596" y="275"/>
      <point x="596" y="292"/>
      <point x="584" y="301" type="curve" smooth="yes"/>
      <point x="572" y="311"/>
      <point x="553" y="310"/>
      <point x="543" y="298" type="curve" smooth="yes"/>
      <point x="382" y="113" type="line" smooth="yes"/>
      <point x="371" y="102"/>
      <point x="372" y="84"/>
    </contour>
    <contour>
      <point x="569" y="-9" type="curve" smooth="yes"/>
      <point x="585" y="-9"/>
      <point x="598" y="3"/>
      <point x="598" y="19" type="curve" smooth="yes"/>
      <point x="598" y="285" type="line" smooth="yes"/>
      <point x="598" y="301"/>
      <point x="585" y="313"/>
      <point x="569" y="313" type="curve" smooth="yes"/>
      <point x="554" y="313"/>
      <point x="540" y="301"/>
      <point x="540" y="285" type="curve" smooth="yes"/>
      <point x="540" y="19" type="line" smooth="yes"/>
      <point x="540" y="3"/>
      <point x="554" y="-9"/>
    </contour>
  </outline>
</glyph>
<glyph name="threequarters" format="1">
  <advance width="841"/>
  <unicode hex="00BE"/>
  <outline>
    <contour>
      <point x="290" y="-6" type="curve" smooth="yes"/>
      <point x="304" y="-14"/>
      <point x="322" y="-9"/>
      <point x="330" y="3" type="curve" smooth="yes"/>
      <point x="627" y="501" type="line" smooth="yes"/>
      <point x="635" y="514"/>
      <point x="630" y="532"/>
      <point x="617" y="539" type="curve" smooth="yes"/>
      <point x="603" y="547"/>
      <point x="585" y="542"/>
      <point x="577" y="529" type="curve" smooth="yes"/>
      <point x="280" y="32" type="line" smooth="yes"/>
      <point x="272" y="19"/>
      <point x="277" y="1"/>
    </contour>
    <contour>
      <point x="215" y="219" type="curve" smooth="yes"/>
      <point x="311" y="219"/>
      <point x="349" y="268"/>
      <point x="349" y="322" type="curve" smooth="yes"/>
      <point x="349" y="377"/>
      <point x="307" y="421"/>
      <point x="222" y="421" type="curve" smooth="yes"/>
      <point x="189" y="421"/>
      <point x="163" y="416"/>
      <point x="148" y="412" type="curve" smooth="yes"/>
      <point x="134" y="407"/>
      <point x="125" y="391"/>
      <point x="129" y="377" type="curve" smooth="yes"/>
      <point x="134" y="362"/>
      <point x="151" y="354"/>
      <point x="166" y="359" type="curve" smooth="yes"/>
      <point x="177" y="362"/>
      <point x="197" y="365"/>
      <point x="222" y="365" type="curve" smooth="yes"/>
      <point x="259" y="365"/>
      <point x="291" y="352"/>
      <point x="291" y="322" type="curve" smooth="yes"/>
      <point x="291" y="291"/>
      <point x="258" y="275"/>
      <point x="215" y="275" type="curve" smooth="yes"/>
      <point x="181" y="275"/>
      <point x="152" y="281"/>
      <point x="129" y="290" type="curve" smooth="yes"/>
      <point x="115" y="296"/>
      <point x="97" y="288"/>
      <point x="92" y="274" type="curve" smooth="yes"/>
      <point x="86" y="260"/>
      <point x="94" y="243"/>
      <point x="109" y="238" type="curve" smooth="yes"/>
      <point x="138" y="227"/>
      <point x="173" y="219"/>
    </contour>
    <contour>
      <point x="137" y="369" type="curve" smooth="yes"/>
      <point x="147" y="358"/>
      <point x="166" y="359"/>
      <point x="178" y="369" type="curve" smooth="yes"/>
      <point x="324" y="490" type="line" smooth="yes"/>
      <point x="336" y="500"/>
      <point x="337" y="518"/>
      <point x="327" y="529" type="curve" smooth="yes"/>
      <point x="316" y="541"/>
      <point x="299" y="540"/>
      <point x="287" y="531" type="curve" smooth="yes"/>
      <point x="140" y="408" type="line" smooth="yes"/>
      <point x="128" y="398"/>
      <point x="127" y="380"/>
    </contour>
    <contour>
      <point x="734" y="68" type="line" smooth="yes"/>
      <point x="750" y="68"/>
      <point x="763" y="80"/>
      <point x="763" y="95" type="curve" smooth="yes"/>
      <point x="763" y="111"/>
      <point x="750" y="121"/>
      <point x="734" y="121" type="curve" smooth="yes"/>
      <point x="508" y="121" type="line" smooth="yes"/>
      <point x="492" y="121"/>
      <point x="479" y="111"/>
      <point x="479" y="96" type="curve" smooth="yes"/>
      <point x="479" y="81"/>
      <point x="492" y="68"/>
      <point x="508" y="68" type="curve" smooth="yes"/>
    </contour>
    <contour>
      <point x="310" y="487" type="line" smooth="yes"/>
      <point x="326" y="487"/>
      <point x="339" y="500"/>
      <point x="339" y="515" type="curve" smooth="yes"/>
      <point x="339" y="530"/>
      <point x="326" y="543"/>
      <point x="310" y="543" type="curve" smooth="yes"/>
      <point x="130" y="543" type="line" smooth="yes"/>
      <point x="114" y="543"/>
      <point x="101" y="530"/>
      <point x="101" y="515" type="curve" smooth="yes"/>
      <point x="101" y="500"/>
      <point x="114" y="487"/>
      <point x="130" y="487" type="curve" smooth="yes"/>
    </contour>
    <contour>
      <point x="484" y="74" type="curve" smooth="yes"/>
      <point x="496" y="65"/>
      <point x="512" y="67"/>
      <point x="522" y="78" type="curve" smooth="yes"/>
      <point x="685" y="264" type="line" smooth="yes"/>
      <point x="695" y="276"/>
      <point x="695" y="292"/>
      <point x="683" y="302" type="curve" smooth="yes"/>
      <point x="671" y="311"/>
      <point x="652" y="310"/>
      <point x="642" y="299" type="curve" smooth="yes"/>
      <point x="481" y="114" type="line" smooth="yes"/>
      <point x="471" y="103"/>
      <point x="472" y="85"/>
    </contour>
    <contour>
      <point x="668" y="-9" type="curve" smooth="yes"/>
      <point x="684" y="-9"/>
      <point x="697" y="3"/>
      <point x="697" y="19" type="curve" smooth="yes"/>
      <point x="697" y="285" type="line" smooth="yes"/>
      <point x="697" y="301"/>
      <point x="684" y="313"/>
      <point x="668" y="313" type="curve" smooth="yes"/>
      <point x="652" y="313"/>
      <point x="639" y="301"/>
      <point x="639" y="285" type="curve" smooth="yes"/>
      <point x="639" y="19" type="line" smooth="yes"/>
      <point x="639" y="3"/>
      <point x="652" y="-9"/>
    </contour>
  </outline>
</glyph>
<glyph name="AE" format="1">
  <advance width="767"/>
  <unicode hex="00C6"/>
  <outline>
    <contour>
      <point x="16" y="-6" type="curve" smooth="yes"/>
      <point x="29" y="-15"/>
      <point x="49" y="-11"/>
      <point x="57" y="2" type="curve" smooth="yes"/>
      <point x="143" y="131"/>
      <point x="276" y="327"/>
      <point x="384" y="500" type="curve" smooth="yes"/>
      <point x="393" y="513"/>
      <point x="388" y="531"/>
      <point x="374" y="539" type="curve" smooth="yes"/>
      <point x="361" y="547"/>
      <point x="342" y="543"/>
      <point x="333" y="530" type="curve" smooth="yes"/>
      <point x="225" y="357"/>
      <point x="92" y="163"/>
      <point x="6" y="34" type="curve" smooth="yes"/>
      <point x="-2" y="21"/>
      <point x="3" y="2"/>
    </contour>
    <contour>
      <point x="399" y="138" type="line" smooth="yes"/>
      <point x="415" y="138"/>
      <point x="428" y="151"/>
      <point x="428" y="166" type="curve" smooth="yes"/>
      <point x="428" y="182"/>
      <point x="415" y="195"/>
      <point x="399" y="195" type="curve" smooth="yes"/>
      <point x="137" y="195" type="line" smooth="yes"/>
      <point x="121" y="195"/>
      <point x="108" y="182"/>
      <point x="108" y="166" type="curve" smooth="yes"/>
      <point x="108" y="151"/>
      <point x="121" y="138"/>
      <point x="137" y="138" type="curve" smooth="yes"/>
    </contour>
    <contour>
      <point x="693" y="-11" type="line" smooth="yes"/>
      <point x="709" y="-11"/>
      <point x="722" y="2"/>
      <point x="722" y="18" type="curve" smooth="yes"/>
      <point x="722" y="33"/>
      <point x="709" y="46"/>
      <point x="693" y="46" type="curve" smooth="yes"/>
      <point x="409" y="46" type="line" smooth="yes"/>
      <point x="393" y="46"/>
      <point x="380" y="33"/>
      <point x="380" y="18" type="curve" smooth="yes"/>
      <point x="380" y="2"/>
      <point x="393" y="-11"/>
      <point x="409" y="-11" type="curve" smooth="yes"/>
    </contour>
    <contour>
      <point x="400" y="-11" type="curve" smooth="yes"/>
      <point x="416" y="-11"/>
      <point x="431" y="2"/>
      <point x="431" y="18" type="curve" smooth="yes"/>
      <point x="431" y="515" type="line" smooth="yes"/>
      <point x="431" y="531"/>
      <point x="416" y="543"/>
      <point x="400" y="543" type="curve" smooth="yes"/>
      <point x="384" y="543"/>
      <point x="369" y="531"/>
      <point x="369" y="515" type="curve" smooth="yes"/>
      <point x="369" y="18" type="line" smooth="yes"/>
      <point x="369" y="2"/>
      <point x="384" y="-11"/>
    </contour>
    <contour>
      <point x="646" y="257" type="line" smooth="yes"/>
      <point x="662" y="257"/>
      <point x="675" y="270"/>
      <point x="675" y="285" type="curve" smooth="yes"/>
      <point x="675" y="301"/>
      <point x="662" y="314"/>
      <point x="646" y="314" type="curve" smooth="yes"/>
      <point x="409" y="314" type="line" smooth="yes"/>
      <point x="393" y="314"/>
      <point x="380" y="301"/>
      <point x="380" y="285" type="curve" smooth="yes"/>
      <point x="380" y="270"/>
      <point x="393" y="257"/>
      <point x="409" y="257" type="curve" smooth="yes"/>
    </contour>
    <contour>
      <point x="418" y="487" type="line" smooth="yes"/>
      <point x="434" y="487"/>
      <point x="447" y="500"/>
      <point x="447" y="515" type="curve" smooth="yes"/>
      <point x="447" y="531"/>
      <point x="434" y="543"/>
      <point x="418" y="543" type="curve" smooth="yes"/>
      <point x="364" y="543" type="line" smooth="yes"/>
      <point x="348" y="543"/>
      <point x="335" y="531"/>
      <point x="335" y="515" type="curve" smooth="yes"/>
      <point x="335" y="500"/>
      <point x="348" y="487"/>
      <point x="364" y="487" type="curve" smooth="yes"/>
    </contour>
    <contour>
      <point x="691" y="487" type="line" smooth="yes"/>
      <point x="707" y="487"/>
      <point x="720" y="500"/>
      <point x="720" y="515" type="curve" smooth="yes"/>
      <point x="720" y="531"/>
      <point x="707" y="543"/>
      <point x="691" y="543" type="curve" smooth="yes"/>
      <point x="409" y="543" type="line" smooth="yes"/>
      <point x="393" y="543"/>
      <point x="380" y="531"/>
      <point x="380" y="515" type="curve" smooth="yes"/>
      <point x="380" y="500"/>
      <point x="393" y="487"/>
      <point x="409" y="487" type="curve" smooth="yes"/>
    </contour>
  </outline>
</glyph>
<glyph name="multiply" format="1">
  <advance width="531"/>
  <unicode hex="00D7"/>
  <outline>
    <contour>
      <point x="82" y="99" type="curve" smooth="yes"/>
      <point x="93" y="88"/>
      <point x="112" y="88"/>
      <point x="124" y="99" type="curve" smooth="yes"/>
      <point x="424" y="381" type="line" smooth="yes"/>
      <point x="435" y="392"/>
      <point x="435" y="410"/>
      <point x="424" y="421" type="curve" smooth="yes"/>
      <point x="413" y="433"/>
      <point x="394" y="433"/>
      <point x="382" y="422" type="curve" smooth="yes"/>
      <point x="82" y="140" type="line" smooth="yes"/>
      <point x="71" y="129"/>
      <point x="71" y="111"/>
    </contour>
    <contour>
      <point x="386" y="99" type="line" smooth="yes"/>
      <point x="398" y="88"/>
      <point x="417" y="88"/>
      <point x="428" y="100" type="curve" smooth="yes"/>
      <point x="439" y="111"/>
      <point x="439" y="129"/>
      <point x="428" y="140" type="curve" smooth="yes"/>
      <point x="128" y="421" type="line" smooth="yes"/>
      <point x="116" y="432"/>
      <point x="97" y="432"/>
      <point x="86" y="420" type="curve" smooth="yes"/>
      <point x="75" y="409"/>
      <point x="75" y="391"/>
      <point x="86" y="380" type="curve" smooth="yes"/>
    </contour>
  </outline>
</glyph>
<glyph name="ae" format="1">
  <advance width="769"/>
  <unicode hex="00E6"/>
  <outline>
    <contour>
      <point x="564" y="-8" type="curve" smooth="yes"/>
      <point x="606" y="-8"/>
      <point x="646" y="3"/>
      <point x="676" y="12" type="curve" smooth="yes"/>
      <point x="691" y="17"/>
      <point x="699" y="35"/>
      <point x="693" y="49" type="curve" smooth="yes"/>
      <point x="688" y="63"/>
      <point x="671" y="70"/>
      <point x="656" y="65" type="curve" smooth="yes"/>
      <point x="632" y="56"/>
      <point x="598" y="49"/>
      <point x="564" y="49" type="curve" smooth="yes"/>
      <point x="467" y="49"/>
      <point x="398" y="97"/>
      <point x="398" y="191" type="curve"/>
      <point x="398" y="280"/>
      <point x="461" y="344"/>
      <point x="543" y="344" type="curve" smooth="yes"/>
      <point x="608" y="344"/>
      <point x="655" y="297"/>
      <point x="655" y="259" type="curve" smooth="yes"/>
      <point x="655" y="233"/>
      <point x="635" y="223"/>
      <point x="600" y="223" type="curve" smooth="yes"/>
      <point x="380" y="223" type="line" smooth="yes"/>
      <point x="364" y="223"/>
      <point x="351" y="211"/>
      <point x="351" y="195" type="curve" smooth="yes"/>
      <point x="351" y="180"/>
      <point x="364" y="167"/>
      <point x="380" y="167" type="curve" smooth="yes"/>
      <point x="600" y="167" type="line" smooth="yes"/>
      <point x="691" y="167"/>
      <point x="717" y="206"/>
      <point x="717" y="259" type="curve" smooth="yes"/>
      <point x="717" y="318"/>
      <point x="652" y="400"/>
      <point x="543" y="400" type="curve" smooth="yes"/>
      <point x="429" y="400"/>
      <point x="336" y="318"/>
      <point x="336" y="191" type="curve" smooth="yes"/>
      <point x="336" y="62"/>
      <point x="429" y="-8"/>
    </contour>
    <contour>
      <point x="171" y="-8" type="curve" smooth="yes"/>
      <point x="255" y="-8"/>
      <point x="333" y="33"/>
      <point x="399" y="90" type="curve" smooth="yes"/>
      <point x="410" y="100"/>
      <point x="411" y="119"/>
      <point x="401" y="130" type="curve" smooth="yes"/>
      <point x="390" y="142"/>
      <point x="371" y="143"/>
      <point x="359" y="133" type="curve" smooth="yes"/>
      <point x="305" y="85"/>
      <point x="241" y="49"/>
      <point x="171" y="49" type="curve" smooth="yes"/>
      <point x="122" y="49"/>
      <point x="100" y="79"/>
      <point x="100" y="104" type="curve" smooth="yes"/>
      <point x="100" y="122"/>
      <point x="103" y="139"/>
      <point x="119" y="154" type="curve" smooth="yes"/>
      <point x="146" y="180"/>
      <point x="191" y="195"/>
      <point x="258" y="195" type="curve" smooth="yes"/>
      <point x="288" y="195"/>
      <point x="327" y="193"/>
      <point x="362" y="192" type="curve" smooth="yes"/>
      <point x="378" y="191"/>
      <point x="392" y="204"/>
      <point x="392" y="219" type="curve" smooth="yes"/>
      <point x="393" y="235"/>
      <point x="379" y="248"/>
      <point x="364" y="248" type="curve" smooth="yes"/>
      <point x="327" y="249"/>
      <point x="288" y="251"/>
      <point x="258" y="251" type="curve" smooth="yes"/>
      <point x="170" y="251"/>
      <point x="114" y="229"/>
      <point x="77" y="194" type="curve" smooth="yes"/>
      <point x="49" y="168"/>
      <point x="38" y="139"/>
      <point x="38" y="104" type="curve" smooth="yes"/>
      <point x="38" y="57"/>
      <point x="70" y="-8"/>
    </contour>
    <contour>
      <point x="364" y="176" type="curve" smooth="yes"/>
      <point x="380" y="176"/>
      <point x="395" y="189"/>
      <point x="395" y="204" type="curve" smooth="yes"/>
      <point x="395" y="232" type="line" smooth="yes"/>
      <point x="395" y="332"/>
      <point x="331" y="401"/>
      <point x="216" y="401" type="curve" smooth="yes"/>
      <point x="178" y="401"/>
      <point x="133" y="390"/>
      <point x="109" y="383" type="curve" smooth="yes"/>
      <point x="94" y="378"/>
      <point x="85" y="361"/>
      <point x="90" y="348" type="curve" smooth="yes"/>
      <point x="95" y="333"/>
      <point x="112" y="325"/>
      <point x="127" y="329" type="curve" smooth="yes"/>
      <point x="147" y="335"/>
      <point x="184" y="344"/>
      <point x="216" y="344" type="curve" smooth="yes"/>
      <point x="293" y="344"/>
      <point x="333" y="298"/>
      <point x="333" y="232" type="curve" smooth="yes"/>
      <point x="333" y="204" type="line" smooth="yes"/>
      <point x="333" y="189"/>
      <point x="348" y="176"/>
    </contour>
  </outline>
</glyph>
<glyph name="divide" format="1">
  <advance width="531"/>
  <unicode hex="00F7"/>
  <outline>
    <contour>
      <point x="442" y="240" type="line" smooth="yes"/>
      <point x="458" y="240"/>
      <point x="471" y="253"/>
      <point x="471" y="268" type="curve" smooth="yes"/>
      <point x="471" y="283"/>
      <point x="458" y="296"/>
      <point x="442" y="296" type="curve" smooth="yes"/>
      <point x="88" y="296" type="line" smooth="yes"/>
      <point x="72" y="296"/>
      <point x="59" y="283"/>
      <point x="59" y="268" type="curve" smooth="yes"/>
      <point x="59" y="253"/>
      <point x="72" y="240"/>
      <point x="88" y="240" type="curve" smooth="yes"/>
    </contour>
    <contour>
      <point x="268" y="59" type="curve" smooth="yes"/>
      <point x="296" y="59"/>
      <point x="316" y="73"/>
      <point x="316" y="112" type="curve" smooth="yes"/>
      <point x="316" y="146"/>
      <point x="295" y="165"/>
      <point x="267" y="165" type="curve" smooth="yes"/>
      <point x="239" y="165"/>
      <point x="219" y="147"/>
      <point x="219" y="112" type="curve" smooth="yes"/>
      <point x="219" y="74"/>
      <point x="244" y="59"/>
    </contour>
    <contour>
      <point x="268" y="368" type="curve" smooth="yes"/>
      <point x="296" y="368"/>
      <point x="316" y="380"/>
      <point x="316" y="421" type="curve" smooth="yes"/>
      <point x="316" y="453"/>
      <point x="295" y="474"/>
      <point x="267" y="474" type="curve" smooth="yes"/>
      <point x="239" y="474"/>
      <point x="219" y="454"/>
      <point x="219" y="421" type="curve" smooth="yes"/>
      <point x="219" y="381"/>
      <point x="245" y="368"/>
    </contour>
  </outline>
</glyph>
<glyph name="oslash" format="1">
  <advance width="519"/>
  <unicode hex="00F8"/>
  <outline>
    <contour>
      <point x="256" y="-12" type="curve" smooth="yes"/>
      <point x="387" y="-12"/>
      <point x="470" y="76"/>
      <point x="470" y="192" type="curve" smooth="yes"/>
      <point x="470" y="310"/>
      <point x="386" y="405"/>
      <point x="256" y="405" type="curve" smooth="yes"/>
      <point x="125" y="405"/>
      <point x="43" y="310"/>
      <point x="43" y="193" type="curve" smooth="yes"/>
      <point x="43" y="77"/>
      <point x="127" y="-12"/>
    </contour>
    <contour>
      <point x="58" y="1" type="curve" smooth="yes"/>
      <point x="70" y="-10"/>
      <point x="89" y="-10"/>
      <point x="100" y="1" type="curve" smooth="yes"/>
      <point x="458" y="353" type="line" smooth="yes"/>
      <point x="469" y="364"/>
      <point x="469" y="382"/>
      <point x="458" y="392" type="curve" smooth="yes"/>
      <point x="446" y="403"/>
      <point x="427" y="403"/>
      <point x="416" y="392" type="curve" smooth="yes"/>
      <point x="58" y="40" type="line" smooth="yes"/>
      <point x="47" y="29"/>
      <point x="47" y="11"/>
    </contour>
    <contour>
      <point x="256" y="45" type="curve" smooth="yes"/>
      <point x="163" y="45"/>
      <point x="105" y="111"/>
      <point x="105" y="193" type="curve" smooth="yes"/>
      <point x="105" y="277"/>
      <point x="161" y="348"/>
      <point x="256" y="348" type="curve" smooth="yes"/>
      <point x="352" y="348"/>
      <point x="408" y="276"/>
      <point x="408" y="192" type="curve" smooth="yes"/>
      <point x="408" y="110"/>
      <point x="349" y="45"/>
    </contour>
  </outline>
</glyph>
<glyph name="dcaron" format="1">
  <advance width="647"/>
  <unicode hex="010F"/>
  <outline>
    <contour>
      <point x="232" y="-12" type="curve" smooth="yes"/>
      <point x="322" y="-12"/>
      <point x="390" y="44"/>
      <point x="437" y="121" type="curve" smooth="yes"/>
      <point x="445" y="134"/>
      <point x="440" y="153"/>
      <point x="426" y="160" type="curve" smooth="yes"/>
      <point x="412" y="169"/>
      <point x="393" y="164"/>
      <point x="385" y="151" type="curve" smooth="yes"/>
      <point x="350" y="93"/>
      <point x="302" y="45"/>
      <point x="232" y="45" type="curve" smooth="yes"/>
      <point x="158" y="45"/>
      <point x="106" y="102"/>
      <point x="106" y="184" type="curve" smooth="yes"/>
      <point x="106" y="272"/>
      <point x="167" y="339"/>
      <point x="254" y="339" type="curve" smooth="yes"/>
      <point x="310" y="339"/>
      <point x="352" y="318"/>
      <point x="393" y="285" type="curve" smooth="yes"/>
      <point x="406" y="276"/>
      <point x="424" y="277"/>
      <point x="434" y="289" type="curve" smooth="yes"/>
      <point x="444" y="301"/>
      <point x="443" y="319"/>
      <point x="431" y="329" type="curve" smooth="yes"/>
      <point x="378" y="372"/>
      <point x="324" y="396"/>
      <point x="254" y="396" type="curve" smooth="yes"/>
      <point x="135" y="396"/>
      <point x="44" y="309"/>
      <point x="44" y="184" type="curve" smooth="yes"/>
      <point x="44" y="63"/>
      <point x="128" y="-12"/>
    </contour>
    <contour>
      <point x="412" y="-12" type="curve" smooth="yes"/>
      <point x="428" y="-12"/>
      <point x="443" y="1"/>
      <point x="443" y="17" type="curve" smooth="yes"/>
      <point x="443" y="541" type="line" smooth="yes"/>
      <point x="443" y="556"/>
      <point x="428" y="569"/>
      <point x="412" y="569" type="curve" smooth="yes"/>
      <point x="396" y="569"/>
      <point x="381" y="556"/>
      <point x="381" y="541" type="curve" smooth="yes"/>
      <point x="381" y="17" type="line" smooth="yes"/>
      <point x="381" y="1"/>
      <point x="396" y="-12"/>
    </contour>
    <contour>
      <point x="587" y="398" type="curve" smooth="yes"/>
      <point x="602" y="396"/>
      <point x="619" y="406"/>
      <point x="622" y="422" type="curve" smooth="yes"/>
      <point x="643" y="564" type="line" smooth="yes"/>
      <point x="645" y="579"/>
      <point x="632" y="594"/>
      <point x="616" y="596" type="curve" smooth="yes"/>
      <point x="600" y="598"/>
      <point x="583" y="588"/>
      <point x="581" y="572" type="curve" smooth="yes"/>
      <point x="560" y="430" type="line" smooth="yes"/>
      <point x="558" y="415"/>
      <point x="571" y="401"/>
    </contour>
  </outline>
</glyph>
<glyph name="dcroat" format="1">
  <advance width="516"/>
  <unicode hex="0111"/>
  <outline>
    <contour>
      <point x="232" y="-12" type="curve" smooth="yes"/>
      <point x="322" y="-12"/>
      <point x="390" y="45"/>
      <point x="437" y="122" type="curve" smooth="yes"/>
      <point x="445" y="135"/>
      <point x="440" y="154"/>
      <point x="426" y="161" type="curve" smooth="yes"/>
      <point x="412" y="170"/>
      <point x="393" y="165"/>
      <point x="385" y="152" type="curve" smooth="yes"/>
      <point x="350" y="94"/>
      <point x="302" y="45"/>
      <point x="232" y="45" type="curve" smooth="yes"/>
      <point x="158" y="45"/>
      <point x="106" y="102"/>
      <point x="106" y="184" type="curve" smooth="yes"/>
      <point x="106" y="273"/>
      <point x="167" y="339"/>
      <point x="254" y="339" type="curve" smooth="yes"/>
      <point x="310" y="339"/>
      <point x="352" y="318"/>
      <point x="393" y="285" type="curve" smooth="yes"/>
      <point x="406" y="276"/>
      <point x="424" y="277"/>
      <point x="434" y="289" type="curve" smooth="yes"/>
      <point x="444" y="301"/>
      <point x="443" y="319"/>
      <point x="431" y="329" type="curve" smooth="yes"/>
      <point x="378" y="372"/>
      <point x="324" y="396"/>
      <point x="254" y="396" type="curve" smooth="yes"/>
      <point x="135" y="396"/>
      <point x="44" y="310"/>
      <point x="44" y="184" type="curve" smooth="yes"/>
      <point x="44" y="63"/>
      <point x="128" y="-12"/>
    </contour>
    <contour>
      <point x="412" y="-12" type="curve" smooth="yes"/>
      <point x="428" y="-12"/>
      <point x="443" y="1"/>
      <point x="443" y="17" type="curve" smooth="yes"/>
      <point x="443" y="542" type="line" smooth="yes"/>
      <point x="443" y="557"/>
      <point x="428" y="570"/>
      <point x="412" y="570" type="curve" smooth="yes"/>
      <point x="396" y="570"/>
      <point x="381" y="557"/>
      <point x="381" y="542" type="curve" smooth="yes"/>
      <point x="381" y="17" type="line" smooth="yes"/>
      <point x="381" y="1"/>
      <point x="396" y="-12"/>
    </contour>
    <contour>
      <point x="470" y="451" type="line" smooth="yes"/>
      <point x="486" y="451"/>
      <point x="499" y="463"/>
      <point x="499" y="479" type="curve" smooth="yes"/>
      <point x="499" y="494"/>
      <point x="486" y="507"/>
      <point x="470" y="507" type="curve" smooth="yes"/>
      <point x="297" y="507" type="line" smooth="yes"/>
      <point x="281" y="507"/>
      <point x="268" y="494"/>
      <point x="268" y="479" type="curve" smooth="yes"/>
      <point x="268" y="463"/>
      <point x="281" y="451"/>
      <point x="297" y="451" type="curve" smooth="yes"/>
    </contour>
  </outline>
</glyph>
<glyph name="hbar" format="1">
  <advance width="496"/>
  <unicode hex="0127"/>
  <outline>
    <contour>
      <point x="404" y="-12" type="curve" smooth="yes"/>
      <point x="420" y="-12"/>
      <point x="435" y="1"/>
      <point x="435" y="17" type="curve" smooth="yes"/>
      <point x="435" y="222" type="line" smooth="yes"/>
      <point x="435" y="358"/>
      <point x="366" y="396"/>
      <point x="286" y="396" type="curve" smooth="yes"/>
      <point x="213" y="396"/>
      <point x="142" y="353"/>
      <point x="86" y="299" type="curve" smooth="yes"/>
      <point x="74" y="288"/>
      <point x="75" y="269"/>
      <point x="86" y="259" type="curve" smooth="yes"/>
      <point x="97" y="247"/>
      <point x="117" y="247"/>
      <point x="128" y="259" type="curve" smooth="yes"/>
      <point x="172" y="301"/>
      <point x="227" y="339"/>
      <point x="286" y="339" type="curve" smooth="yes"/>
      <point x="340" y="339"/>
      <point x="373" y="301"/>
      <point x="373" y="222" type="curve" smooth="yes"/>
      <point x="373" y="17" type="line" smooth="yes"/>
      <point x="373" y="1"/>
      <point x="388" y="-12"/>
    </contour>
    <contour>
      <point x="103" y="-12" type="curve" smooth="yes"/>
      <point x="119" y="-12"/>
      <point x="134" y="1"/>
      <point x="134" y="17" type="curve" smooth="yes"/>
      <point x="134" y="542" type="line" smooth="yes"/>
      <point x="134" y="557"/>
      <point x="119" y="570"/>
      <point x="103" y="570" type="curve" smooth="yes"/>
      <point x="87" y="570"/>
      <point x="72" y="557"/>
      <point x="72" y="542" type="curve" smooth="yes"/>
      <point x="72" y="17" type="line" smooth="yes"/>
      <point x="72" y="1"/>
      <point x="87" y="-12"/>
    </contour>
    <contour>
      <point x="250" y="439" type="line" smooth="yes"/>
      <point x="266" y="439"/>
      <point x="279" y="451"/>
      <point x="279" y="467" type="curve" smooth="yes"/>
      <point x="279" y="483"/>
      <point x="266" y="495"/>
      <point x="250" y="495" type="curve" smooth="yes"/>
      <point x="25" y="495" type="line" smooth="yes"/>
      <point x="9" y="495"/>
      <point x="-4" y="483"/>
      <point x="-4" y="467" type="curve" smooth="yes"/>
      <point x="-4" y="451"/>
      <point x="9" y="439"/>
      <point x="25" y="439" type="curve" smooth="yes"/>
    </contour>
  </outline>
</glyph>
<glyph name="Iogonek" format="1">
  <advance width="243"/>
  <unicode hex="012E"/>
  <outline>
    <contour>
      <point x="159" y="-222" type="curve" smooth="yes"/>
      <point x="175" y="-222"/>
      <point x="188" y="-209"/>
      <point x="188" y="-194" type="curve" smooth="yes"/>
      <point x="188" y="-179"/>
      <point x="175" y="-168"/>
      <point x="159" y="-168" type="curve" smooth="yes"/>
      <point x="101" y="-168"/>
      <point x="67" y="-154"/>
      <point x="67" y="-129" type="curve" smooth="yes"/>
      <point x="67" y="-107"/>
      <point x="82" y="-83"/>
      <point x="142" y="-24" type="curve" smooth="yes"/>
      <point x="147" y="-19"/>
      <point x="152" y="-11"/>
      <point x="152" y="-3" type="curve" smooth="yes"/>
      <point x="152" y="35" type="line" smooth="yes"/>
      <point x="152" y="51"/>
      <point x="139" y="64"/>
      <point x="123" y="64" type="curve" smooth="yes"/>
      <point x="108" y="64"/>
      <point x="90" y="51"/>
      <point x="90" y="35" type="curve" smooth="yes"/>
      <point x="90" y="-3" type="line"/>
      <point x="105" y="17" type="line"/>
      <point x="20" y="-65"/>
      <point x="6" y="-101"/>
      <point x="6" y="-133" type="curve" smooth="yes"/>
      <point x="6" y="-180"/>
      <point x="47" y="-222"/>
    </contour>
    <contour>
      <point x="121" y="-11" type="curve" smooth="yes"/>
      <point x="137" y="-11"/>
      <point x="152" y="2"/>
      <point x="152" y="18" type="curve" smooth="yes"/>
      <point x="152" y="515" type="line" smooth="yes"/>
      <point x="152" y="531"/>
      <point x="137" y="543"/>
      <point x="121" y="543" type="curve" smooth="yes"/>
      <point x="105" y="543"/>
      <point x="90" y="531"/>
      <point x="90" y="515" type="curve" smooth="yes"/>
      <point x="90" y="18" type="line" smooth="yes"/>
      <point x="90" y="2"/>
      <point x="105" y="-11"/>
    </contour>
    <contour>
      <point x="124" y="39" type="move" name="_ogonek"/>
    </contour>
  </outline>
</glyph>
<glyph name="dotlessi" format="1">
  <advance width="191"/>
  <unicode hex="0131"/>
  <outline>
    <contour>
      <point x="95" y="-8" type="curve" smooth="yes"/>
      <point x="111" y="-8"/>
      <point x="126" y="5"/>
      <point x="126" y="21" type="curve" smooth="yes"/>
      <point x="126" y="372" type="line" smooth="yes"/>
      <point x="126" y="388"/>
      <point x="111" y="401"/>
      <point x="95" y="401" type="curve" smooth="yes"/>
      <point x="79" y="401"/>
      <point x="64" y="388"/>
      <point x="64" y="372" type="curve" smooth="yes"/>
      <point x="64" y="21" type="line" smooth="yes"/>
      <point x="64" y="5"/>
      <point x="79" y="-8"/>
    </contour>
    <contour>
      <point x="98" y="36" type="move" name="ogonek"/>
    </contour>
    <contour>
      <point x="95" y="-8" type="move" name="bottom"/>
    </contour>
    <contour>
      <point x="95" y="401" type="move" name="top"/>
    </contour>
  </outline>
</glyph>
<glyph name="Lslash" format="1">
  <advance width="472"/>
  <unicode hex="0141"/>
  <outline>
    <contour>
      <point x="294" y="324" type="line" smooth="yes"/>
      <point x="307" y="333"/>
      <point x="311" y="351"/>
      <point x="303" y="363" type="curve" smooth="yes"/>
      <point x="294" y="376"/>
      <point x="275" y="380"/>
      <point x="262" y="372" type="curve" smooth="yes"/>
      <point x="36" y="226" type="line" smooth="yes"/>
      <point x="23" y="218"/>
      <point x="18" y="200"/>
      <point x="27" y="187" type="curve" smooth="yes"/>
      <point x="36" y="174"/>
      <point x="55" y="170"/>
      <point x="68" y="178" type="curve" smooth="yes"/>
    </contour>
    <contour>
      <point x="417" y="-11" type="line" smooth="yes"/>
      <point x="433" y="-11"/>
      <point x="446" y="2"/>
      <point x="446" y="18" type="curve" smooth="yes"/>
      <point x="446" y="33"/>
      <point x="433" y="46"/>
      <point x="417" y="46" type="curve" smooth="yes"/>
      <point x="141" y="46" type="line" smooth="yes"/>
      <point x="125" y="46"/>
      <point x="112" y="33"/>
      <point x="112" y="18" type="curve" smooth="yes"/>
      <point x="112" y="2"/>
      <point x="125" y="-11"/>
      <point x="141" y="-11" type="curve" smooth="yes"/>
    </contour>
    <contour>
      <point x="132" y="-11" type="curve" smooth="yes"/>
      <point x="148" y="-11"/>
      <point x="163" y="2"/>
      <point x="163" y="18" type="curve" smooth="yes"/>
      <point x="163" y="515" type="line" smooth="yes"/>
      <point x="163" y="531"/>
      <point x="148" y="543"/>
      <point x="132" y="543" type="curve" smooth="yes"/>
      <point x="116" y="543"/>
      <point x="101" y="531"/>
      <point x="101" y="515" type="curve" smooth="yes"/>
      <point x="101" y="18" type="line" smooth="yes"/>
      <point x="101" y="2"/>
      <point x="116" y="-11"/>
    </contour>
  </outline>
</glyph>
<glyph name="lslash" format="1">
  <advance width="230"/>
  <unicode hex="0142"/>
  <outline>
    <contour>
      <point x="115" y="-12" type="curve" smooth="yes"/>
      <point x="131" y="-12"/>
      <point x="146" y="1"/>
      <point x="146" y="17" type="curve" smooth="yes"/>
      <point x="146" y="542" type="line" smooth="yes"/>
      <point x="146" y="557"/>
      <point x="131" y="570"/>
      <point x="115" y="570" type="curve" smooth="yes"/>
      <point x="99" y="570"/>
      <point x="84" y="557"/>
      <point x="84" y="542" type="curve" smooth="yes"/>
      <point x="84" y="17" type="line" smooth="yes"/>
      <point x="84" y="1"/>
      <point x="99" y="-12"/>
    </contour>
    <contour>
      <point x="215" y="334" type="line" smooth="yes"/>
      <point x="228" y="343"/>
      <point x="231" y="361"/>
      <point x="222" y="373" type="curve" smooth="yes"/>
      <point x="213" y="385"/>
      <point x="193" y="389"/>
      <point x="181" y="380" type="curve" smooth="yes"/>
      <point x="17" y="265" type="line" smooth="yes"/>
      <point x="4" y="255"/>
      <point x="0" y="237"/>
      <point x="10" y="225" type="curve" smooth="yes"/>
      <point x="19" y="213"/>
      <point x="38" y="209"/>
      <point x="51" y="219" type="curve" smooth="yes"/>
    </contour>
  </outline>
</glyph>
<glyph name="Eng" format="1">
  <advance width="641"/>
  <unicode hex="014A"/>
  <outline>
    <contour>
      <point x="535" y="-5" type="curve" smooth="yes"/>
      <point x="548" y="4"/>
      <point x="551" y="22"/>
      <point x="542" y="35" type="curve" smooth="yes"/>
      <point x="430" y="182"/>
      <point x="225" y="430"/>
      <point x="146" y="532" type="curve" smooth="yes"/>
      <point x="136" y="545"/>
      <point x="117" y="546"/>
      <point x="105" y="538" type="curve" smooth="yes"/>
      <point x="92" y="528"/>
      <point x="89" y="510"/>
      <point x="98" y="498" type="curve" smooth="yes"/>
      <point x="177" y="395"/>
      <point x="382" y="147"/>
      <point x="494" y="0" type="curve" smooth="yes"/>
      <point x="503" y="-12"/>
      <point x="522" y="-14"/>
    </contour>
    <contour>
      <point x="116" y="-11" type="curve" smooth="yes"/>
      <point x="132" y="-11"/>
      <point x="147" y="2"/>
      <point x="147" y="18" type="curve" smooth="yes"/>
      <point x="147" y="515" type="line" smooth="yes"/>
      <point x="147" y="531"/>
      <point x="132" y="543"/>
      <point x="116" y="543" type="curve" smooth="yes"/>
      <point x="100" y="543"/>
      <point x="85" y="531"/>
      <point x="85" y="515" type="curve" smooth="yes"/>
      <point x="85" y="18" type="line" smooth="yes"/>
      <point x="85" y="2"/>
      <point x="100" y="-11"/>
    </contour>
    <contour>
      <point x="437" y="-177" type="curve" smooth="yes"/>
      <point x="516" y="-145"/>
      <point x="556" y="-89"/>
      <point x="556" y="-4" type="curve" smooth="yes"/>
      <point x="556" y="149" type="line" smooth="yes"/>
      <point x="556" y="165"/>
      <point x="541" y="178"/>
      <point x="525" y="178" type="curve" smooth="yes"/>
      <point x="509" y="178"/>
      <point x="494" y="165"/>
      <point x="494" y="149" type="curve" smooth="yes"/>
      <point x="494" y="-4" type="line" smooth="yes"/>
      <point x="494" y="-67"/>
      <point x="472" y="-101"/>
      <point x="415" y="-124" type="curve" smooth="yes"/>
      <point x="400" y="-130"/>
      <point x="392" y="-147"/>
      <point x="398" y="-161" type="curve" smooth="yes"/>
      <point x="404" y="-175"/>
      <point x="422" y="-183"/>
    </contour>
    <contour>
      <point x="525" y="-11" type="curve" smooth="yes"/>
      <point x="541" y="-11"/>
      <point x="556" y="2"/>
      <point x="556" y="18" type="curve" smooth="yes"/>
      <point x="556" y="515" type="line" smooth="yes"/>
      <point x="556" y="531"/>
      <point x="541" y="543"/>
      <point x="525" y="543" type="curve" smooth="yes"/>
      <point x="509" y="543"/>
      <point x="494" y="531"/>
      <point x="494" y="515" type="curve" smooth="yes"/>
      <point x="494" y="18" type="line" smooth="yes"/>
      <point x="494" y="2"/>
      <point x="509" y="-11"/>
    </contour>
  </outline>
</glyph>
<glyph name="eng" format="1">
  <advance width="496"/>
  <unicode hex="014B"/>
  <outline>
    <contour>
      <point x="404" y="-8" type="curve" smooth="yes"/>
      <point x="420" y="-8"/>
      <point x="435" y="5"/>
      <point x="435" y="21" type="curve" smooth="yes"/>
      <point x="435" y="226" type="line" smooth="yes"/>
      <point x="435" y="363"/>
      <point x="366" y="401"/>
      <point x="286" y="401" type="curve" smooth="yes"/>
      <point x="213" y="401"/>
      <point x="142" y="358"/>
      <point x="86" y="303" type="curve" smooth="yes"/>
      <point x="74" y="291"/>
      <point x="75" y="273"/>
      <point x="86" y="263" type="curve" smooth="yes"/>
      <point x="98" y="251"/>
      <point x="117" y="251"/>
      <point x="128" y="263" type="curve" smooth="yes"/>
      <point x="172" y="306"/>
      <point x="227" y="344"/>
      <point x="286" y="344" type="curve" smooth="yes"/>
      <point x="340" y="344"/>
      <point x="373" y="306"/>
      <point x="373" y="226" type="curve" smooth="yes"/>
      <point x="373" y="21" type="line" smooth="yes"/>
      <point x="373" y="5"/>
      <point x="388" y="-8"/>
    </contour>
    <contour>
      <point x="103" y="-8" type="curve" smooth="yes"/>
      <point x="119" y="-8"/>
      <point x="134" y="5"/>
      <point x="134" y="21" type="curve" smooth="yes"/>
      <point x="134" y="372" type="line" smooth="yes"/>
      <point x="134" y="388"/>
      <point x="119" y="401"/>
      <point x="103" y="401" type="curve" smooth="yes"/>
      <point x="87" y="401"/>
      <point x="72" y="388"/>
      <point x="72" y="372" type="curve" smooth="yes"/>
      <point x="72" y="21" type="line" smooth="yes"/>
      <point x="72" y="5"/>
      <point x="87" y="-8"/>
    </contour>
    <contour>
      <point x="315" y="-164" type="curve" smooth="yes"/>
      <point x="394" y="-131"/>
      <point x="435" y="-77"/>
      <point x="435" y="9" type="curve" smooth="yes"/>
      <point x="435" y="162" type="line" smooth="yes"/>
      <point x="435" y="177"/>
      <point x="420" y="191"/>
      <point x="404" y="191" type="curve" smooth="yes"/>
      <point x="388" y="191"/>
      <point x="373" y="177"/>
      <point x="373" y="162" type="curve" smooth="yes"/>
      <point x="373" y="9" type="line" smooth="yes"/>
      <point x="373" y="-54"/>
      <point x="351" y="-88"/>
      <point x="294" y="-111" type="curve" smooth="yes"/>
      <point x="279" y="-117"/>
      <point x="271" y="-133"/>
      <point x="277" y="-147" type="curve" smooth="yes"/>
      <point x="283" y="-161"/>
      <point x="300" y="-170"/>
    </contour>
    <contour>
      <point x="258" y="406" type="move" name="top"/>
    </contour>
    <contour>
      <point x="242" y="32" type="move" name="bottom"/>
    </contour>
  </outline>
</glyph>
<glyph name="OE" format="1">
  <advance width="826"/>
  <unicode hex="0152"/>
  <outline>
    <contour>
      <point x="562" y="-11" type="line"/>
      <point x="562" y="46" type="line"/>
      <point x="325" y="46" type="line" smooth="yes"/>
      <point x="196" y="46"/>
      <point x="108" y="143"/>
      <point x="108" y="264" type="curve" smooth="yes"/>
      <point x="108" y="394"/>
      <point x="194" y="487"/>
      <point x="325" y="487" type="curve" smooth="yes"/>
      <point x="543" y="487" type="line"/>
      <point x="543" y="543" type="line"/>
      <point x="325" y="543" type="line" smooth="yes"/>
      <point x="160" y="543"/>
      <point x="46" y="431"/>
      <point x="46" y="264" type="curve" smooth="yes"/>
      <point x="46" y="109"/>
      <point x="162" y="-11"/>
      <point x="325" y="-11" type="curve" smooth="yes"/>
    </contour>
    <contour>
      <point x="749" y="-11" type="line" smooth="yes"/>
      <point x="765" y="-11"/>
      <point x="778" y="2"/>
      <point x="778" y="18" type="curve" smooth="yes"/>
      <point x="778" y="33"/>
      <point x="765" y="46"/>
      <point x="749" y="46" type="curve" smooth="yes"/>
      <point x="465" y="46" type="line"/>
      <point x="465" y="-11" type="line"/>
    </contour>
    <contour>
      <point x="456" y="-11" type="curve" smooth="yes"/>
      <point x="472" y="-11"/>
      <point x="487" y="2"/>
      <point x="487" y="18" type="curve" smooth="yes"/>
      <point x="487" y="515" type="line" smooth="yes"/>
      <point x="487" y="531"/>
      <point x="472" y="543"/>
      <point x="456" y="543" type="curve" smooth="yes"/>
      <point x="440" y="543"/>
      <point x="425" y="531"/>
      <point x="425" y="515" type="curve" smooth="yes"/>
      <point x="425" y="18" type="line" smooth="yes"/>
      <point x="425" y="2"/>
      <point x="440" y="-11"/>
    </contour>
    <contour>
      <point x="702" y="257" type="line" smooth="yes"/>
      <point x="718" y="257"/>
      <point x="731" y="270"/>
      <point x="731" y="285" type="curve" smooth="yes"/>
      <point x="731" y="301"/>
      <point x="718" y="314"/>
      <point x="702" y="314" type="curve" smooth="yes"/>
      <point x="465" y="314" type="line"/>
      <point x="465" y="257" type="line"/>
    </contour>
    <contour>
      <point x="747" y="487" type="line" smooth="yes"/>
      <point x="763" y="487"/>
      <point x="776" y="500"/>
      <point x="776" y="515" type="curve" smooth="yes"/>
      <point x="776" y="531"/>
      <point x="763" y="543"/>
      <point x="747" y="543" type="curve" smooth="yes"/>
      <point x="465" y="543" type="line"/>
      <point x="465" y="487" type="line"/>
    </contour>
  </outline>
</glyph>
<glyph name="oe" format="1">
  <advance width="841"/>
  <unicode hex="0153"/>
  <outline>
    <contour>
      <point x="256" y="-12" type="curve" smooth="yes"/>
      <point x="387" y="-12"/>
      <point x="470" y="76"/>
      <point x="470" y="192" type="curve" smooth="yes"/>
      <point x="470" y="310"/>
      <point x="386" y="405"/>
      <point x="256" y="405" type="curve" smooth="yes"/>
      <point x="125" y="405"/>
      <point x="43" y="310"/>
      <point x="43" y="193" type="curve" smooth="yes"/>
      <point x="43" y="77"/>
      <point x="127" y="-12"/>
    </contour>
    <contour>
      <point x="256" y="45" type="curve" smooth="yes"/>
      <point x="163" y="45"/>
      <point x="105" y="111"/>
      <point x="105" y="193" type="curve" smooth="yes"/>
      <point x="105" y="277"/>
      <point x="161" y="348"/>
      <point x="256" y="348" type="curve" smooth="yes"/>
      <point x="352" y="348"/>
      <point x="408" y="276"/>
      <point x="408" y="192" type="curve" smooth="yes"/>
      <point x="408" y="110"/>
      <point x="349" y="45"/>
    </contour>
    <contour>
      <point x="636" y="-8" type="curve" smooth="yes"/>
      <point x="678" y="-8"/>
      <point x="719" y="1"/>
      <point x="748" y="12" type="curve" smooth="yes"/>
      <point x="763" y="18"/>
      <point x="771" y="35"/>
      <point x="765" y="49" type="curve" smooth="yes"/>
      <point x="760" y="64"/>
      <point x="742" y="71"/>
      <point x="727" y="65" type="curve" smooth="yes"/>
      <point x="703" y="56"/>
      <point x="670" y="49"/>
      <point x="636" y="49" type="curve" smooth="yes"/>
      <point x="539" y="49"/>
      <point x="470" y="98"/>
      <point x="470" y="192" type="curve" smooth="yes"/>
      <point x="470" y="280"/>
      <point x="533" y="344"/>
      <point x="615" y="344" type="curve" smooth="yes"/>
      <point x="681" y="344"/>
      <point x="727" y="298"/>
      <point x="727" y="259" type="curve" smooth="yes"/>
      <point x="727" y="234"/>
      <point x="707" y="223"/>
      <point x="672" y="223" type="curve" smooth="yes"/>
      <point x="453" y="223" type="line" smooth="yes"/>
      <point x="437" y="223"/>
      <point x="424" y="211"/>
      <point x="424" y="195" type="curve" smooth="yes"/>
      <point x="424" y="180"/>
      <point x="437" y="168"/>
      <point x="453" y="168" type="curve" smooth="yes"/>
      <point x="672" y="168" type="line" smooth="yes"/>
      <point x="763" y="168"/>
      <point x="789" y="206"/>
      <point x="789" y="259" type="curve" smooth="yes"/>
      <point x="789" y="318"/>
      <point x="725" y="400"/>
      <point x="615" y="400" type="curve" smooth="yes"/>
      <point x="503" y="400"/>
      <point x="408" y="318"/>
      <point x="408" y="192" type="curve" smooth="yes"/>
      <point x="408" y="63"/>
      <point x="501" y="-8"/>
    </contour>
  </outline>
</glyph>
<glyph name="tbar" format="1">
  <advance width="346"/>
  <unicode hex="0167"/>
  <outline>
    <contour>
      <point x="280" y="-11" type="curve" smooth="yes"/>
      <point x="295" y="-11"/>
      <point x="309" y="2"/>
      <point x="309" y="18" type="curve" smooth="yes"/>
      <point x="309" y="32"/>
      <point x="296" y="46"/>
      <point x="280" y="46" type="curve" smooth="yes"/>
      <point x="200" y="47"/>
      <point x="159" y="77"/>
      <point x="159" y="138" type="curve" smooth="yes"/>
      <point x="159" y="498" type="line" smooth="yes"/>
      <point x="159" y="514"/>
      <point x="144" y="527"/>
      <point x="128" y="527" type="curve" smooth="yes"/>
      <point x="112" y="527"/>
      <point x="97" y="514"/>
      <point x="97" y="498" type="curve" smooth="yes"/>
      <point x="97" y="138" type="line" smooth="yes"/>
      <point x="97" y="46"/>
      <point x="148" y="-8"/>
    </contour>
    <contour>
      <point x="295" y="215" type="line" smooth="yes"/>
      <point x="311" y="215"/>
      <point x="324" y="228"/>
      <point x="324" y="243" type="curve" smooth="yes"/>
      <point x="324" y="259"/>
      <point x="311" y="272"/>
      <point x="295" y="272" type="curve" smooth="yes"/>
      <point x="40" y="272" type="line" smooth="yes"/>
      <point x="24" y="272"/>
      <point x="11" y="259"/>
      <point x="11" y="243" type="curve" smooth="yes"/>
      <point x="11" y="228"/>
      <point x="24" y="215"/>
      <point x="40" y="215" type="curve" smooth="yes"/>
    </contour>
    <contour>
      <point x="294" y="340" type="line" smooth="yes"/>
      <point x="310" y="340"/>
      <point x="323" y="353"/>
      <point x="323" y="368" type="curve" smooth="yes"/>
      <point x="323" y="384"/>
      <point x="310" y="397"/>
      <point x="294" y="397" type="curve" smooth="yes"/>
      <point x="35" y="397" type="line" smooth="yes"/>
      <point x="19" y="397"/>
      <point x="6" y="384"/>
      <point x="6" y="368" type="curve" smooth="yes"/>
      <point x="6" y="353"/>
      <point x="19" y="340"/>
      <point x="35" y="340" type="curve" smooth="yes"/>
    </contour>
  </outline>
</glyph>
<glyph name="uogonek" format="1">
  <advance width="496"/>
  <unicode hex="0173"/>
  <outline>
    <contour>
      <point x="210" y="-8" type="curve" smooth="yes"/>
      <point x="284" y="-8"/>
      <point x="363" y="47"/>
      <point x="413" y="114" type="curve" smooth="yes"/>
      <point x="423" y="127"/>
      <point x="419" y="146"/>
      <point x="406" y="154" type="curve" smooth="yes"/>
      <point x="393" y="164"/>
      <point x="374" y="160"/>
      <point x="365" y="148" type="curve" smooth="yes"/>
      <point x="327" y="96"/>
      <point x="268" y="49"/>
      <point x="210" y="49" type="curve" smooth="yes"/>
      <point x="155" y="49"/>
      <point x="123" y="87"/>
      <point x="123" y="167" type="curve" smooth="yes"/>
      <point x="123" y="372" type="line" smooth="yes"/>
      <point x="123" y="388"/>
      <point x="108" y="401"/>
      <point x="92" y="401" type="curve" smooth="yes"/>
      <point x="76" y="401"/>
      <point x="61" y="388"/>
      <point x="61" y="372" type="curve" smooth="yes"/>
      <point x="61" y="167" type="line" smooth="yes"/>
      <point x="61" y="31"/>
      <point x="129" y="-8"/>
    </contour>
    <contour>
      <point x="431" y="-234" type="curve" smooth="yes"/>
      <point x="447" y="-234"/>
      <point x="460" y="-222"/>
      <point x="460" y="-207" type="curve" smooth="yes"/>
      <point x="460" y="-192"/>
      <point x="447" y="-180"/>
      <point x="431" y="-180" type="curve" smooth="yes"/>
      <point x="375" y="-180"/>
      <point x="339" y="-167"/>
      <point x="339" y="-142" type="curve" smooth="yes"/>
      <point x="339" y="-120"/>
      <point x="356" y="-97"/>
      <point x="414" y="-38" type="curve" smooth="yes"/>
      <point x="420" y="-32"/>
      <point x="424" y="-23"/>
      <point x="424" y="-16" type="curve" smooth="yes"/>
      <point x="424" y="45" type="line"/>
      <point x="362" y="45" type="line"/>
      <point x="362" y="-30" type="line"/>
      <point x="377" y="5" type="line"/>
      <point x="291" y="-77"/>
      <point x="278" y="-114"/>
      <point x="278" y="-145" type="curve" smooth="yes"/>
      <point x="278" y="-193"/>
      <point x="319" y="-234"/>
    </contour>
    <contour>
      <point x="424" y="21" type="line"/>
      <point x="424" y="372" type="line" smooth="yes"/>
      <point x="424" y="388"/>
      <point x="409" y="401"/>
      <point x="393" y="401" type="curve" smooth="yes"/>
      <point x="377" y="401"/>
      <point x="362" y="388"/>
      <point x="362" y="372" type="curve" smooth="yes"/>
      <point x="362" y="21" type="line"/>
    </contour>
    <contour>
      <point x="396" y="30" type="move" name="ogonek"/>
    </contour>
    <contour>
      <point x="236" y="396" type="move" name="top"/>
    </contour>
  </outline>
</glyph>
